# Blender v2.81 (sub 16) OBJ File: 'Low Poly assets.blend'
# www.blender.org
mtllib Ammo_Box.mtl
o Ammo_Box_Cube.026
v -0.100224 -0.081705 0.056149
v -0.100224 0.081705 0.056149
v -0.100224 -0.081705 -0.056149
v -0.100224 0.081705 -0.056149
v 0.100224 -0.081705 0.056149
v 0.100224 0.081705 0.056149
v 0.100224 -0.081705 -0.056149
v 0.100224 0.081705 -0.056149
v -0.105071 0.064537 0.060872
v -0.105071 0.092084 0.060872
v -0.105071 0.064537 -0.060872
v -0.105071 0.092084 -0.060872
v 0.105071 0.026609 0.060872
v 0.105071 0.092084 0.060872
v 0.105071 0.026609 -0.060872
v 0.105071 0.092084 -0.060872
v -0.056979 0.075105 0.006979
v -0.056979 0.120761 0.006979
v -0.056979 0.075105 -0.006979
v -0.056979 0.120761 -0.006979
v -0.043021 0.075105 0.006979
v -0.043021 0.120761 0.006979
v -0.043021 0.075105 -0.006979
v -0.043021 0.120761 -0.006979
v 0.043021 0.075105 0.006979
v 0.043021 0.075105 -0.006979
v 0.043021 0.120761 -0.006979
v 0.056979 0.075105 0.006979
v 0.056979 0.120761 0.006979
v 0.056979 0.075105 -0.006979
v 0.056979 0.120761 -0.006979
v -0.056979 0.105866 0.006979
v -0.056979 0.105866 -0.006979
v -0.043021 0.105866 -0.006979
v -0.043021 0.105866 0.006979
v 0.056979 0.105866 -0.006979
v 0.056979 0.105866 0.006979
v 0.043021 0.120761 0.006979
v 0.043021 0.105866 0.006979
v 0.043021 0.105866 -0.006979
vt 0.375000 0.000000
vt 0.625000 0.000000
vt 0.625000 0.250000
vt 0.375000 0.250000
vt 0.625000 0.500000
vt 0.375000 0.500000
vt 0.625000 0.750000
vt 0.375000 0.750000
vt 0.625000 1.000000
vt 0.375000 1.000000
vt 0.125000 0.500000
vt 0.125000 0.750000
vt 0.500000 0.000000
vt 0.625000 0.000000
vt 0.625000 0.250000
vt 0.500000 0.250000
vt 0.375000 0.000000
vt 0.625000 0.000000
vt 0.625000 0.250000
vt 0.375000 0.250000
vt 0.625000 0.500000
vt 0.375000 0.500000
vt 0.625000 0.750000
vt 0.375000 0.750000
vt 0.625000 1.000000
vt 0.375000 1.000000
vt 0.125000 0.500000
vt 0.125000 0.750000
vt 0.875000 0.500000
vt 0.875000 0.750000
vt 0.625000 0.500000
vt 0.500000 0.500000
vt 0.625000 0.500001
vt 0.500000 0.500001
vt 0.500000 0.750000
vt 0.625000 0.750000
vt 0.625000 1.000000
vt 0.500000 1.000000
vt 0.875000 0.500000
vt 0.875000 0.750000
vt 0.500000 0.250000
vt 0.625000 0.250000
vt 0.625000 0.500000
vt 0.500000 0.500000
vt 0.625000 0.750000
vt 0.500000 0.750000
vt 0.625000 1.000000
vt 0.500000 1.000000
vt 0.875000 0.500000
vt 0.875000 0.750000
vt 0.375000 0.750000
vt 0.375000 1.000000
vt 0.375000 0.500000
vt 0.375000 0.250000
vt 0.375000 0.000000
vt 0.375000 0.750000
vt 0.375000 1.000000
vt 0.375000 0.500000
vt 0.375000 0.250000
vt 0.375000 0.000000
vt 0.500000 0.000000
vt 0.500000 0.749999
vt 0.625000 0.749999
vn -1.0000 0.0000 0.0000
vn 0.0000 0.0000 -1.0000
vn 1.0000 0.0000 0.0000
vn 0.0000 0.0000 1.0000
vn 0.0000 -1.0000 0.0000
vn -0.1776 -0.9841 0.0000
vn 0.0000 1.0000 0.0000
usemtl Green_Military
s off
f 1/1/1 2/2/1 4/3/1 3/4/1
f 3/4/2 4/3/2 8/5/2 7/6/2
f 7/6/3 8/5/3 6/7/3 5/8/3
f 5/8/4 6/7/4 2/9/4 1/10/4
f 3/11/5 7/6/5 5/8/5 1/12/5
f 32/13/1 18/14/1 20/15/1 33/16/1
f 9/17/1 10/18/1 12/19/1 11/20/1
f 11/20/2 12/19/2 16/21/2 15/22/2
f 15/22/3 16/21/3 14/23/3 13/24/3
f 13/24/4 14/23/4 10/25/4 9/26/4
f 11/27/6 15/22/6 13/24/6 9/28/6
f 16/21/7 12/29/7 10/30/7 14/23/7
f 33/16/2 20/15/2 24/31/2 34/32/2
f 34/32/2 24/31/2 27/33/2 40/34/2
f 35/35/4 22/36/4 18/37/4 32/38/4
f 24/31/7 20/39/7 18/40/7 22/36/7
f 40/41/2 27/42/2 31/43/2 36/44/2
f 36/44/3 31/43/3 29/45/3 37/46/3
f 37/46/4 29/45/4 38/47/4 39/48/4
f 31/43/7 27/49/7 38/50/7 29/45/7
f 21/51/4 35/35/4 32/38/4 17/52/4
f 23/53/3 34/32/3 35/35/3 21/51/3
f 19/54/2 33/16/2 34/32/2 23/53/2
f 17/55/1 32/13/1 33/16/1 19/54/1
f 28/56/4 37/46/4 39/48/4 25/57/4
f 30/58/3 36/44/3 37/46/3 28/56/3
f 26/59/2 40/41/2 36/44/2 30/58/2
f 25/60/1 39/61/1 40/41/1 26/59/1
f 35/35/5 34/32/5 40/34/5 39/62/5
f 22/36/4 35/35/4 39/62/4 38/63/4
f 24/31/7 22/36/7 38/63/7 27/33/7
