# Blender v2.81 (sub 16) OBJ File: 'Low Poly assets.blend'
# www.blender.org
mtllib First_Aid_Kid.mtl
o First_Aid_Kid_Cube.023
v -0.076379 -0.020687 -0.057861
v -0.010221 0.019810 -0.034602
v 0.010221 0.019810 -0.034602
v 0.010221 0.019810 0.034602
v -0.010221 0.019810 0.034602
v -0.076379 -0.020687 0.057861
v -0.036164 0.019810 0.009726
v -0.036164 0.019810 -0.009726
v 0.036164 0.019810 -0.009726
v 0.036164 0.019810 0.009726
v 0.010221 0.019810 -0.009726
v 0.010221 0.019810 0.009726
v -0.010221 0.019810 -0.009726
v -0.010221 0.019810 0.009726
v 0.076379 -0.020687 -0.057861
v 0.076379 -0.020687 0.057861
v -0.076379 0.019810 -0.057861
v 0.076379 0.019810 -0.057861
v -0.076379 0.019810 0.057861
v 0.076379 0.019810 0.057861
vt 0.375000 0.750000
vt 0.625000 0.750000
vt 0.625000 1.000000
vt 0.375000 1.000000
vt 0.375000 0.250000
vt 0.625000 0.250000
vt 0.625000 0.500000
vt 0.375000 0.500000
vt 0.125000 0.500000
vt 0.125000 0.750000
vt 0.636201 0.498682
vt 0.636201 0.751318
vt 0.375000 0.000000
vt 0.625000 0.000000
vt 0.766727 0.532921
vt 0.733272 0.532921
vt 0.875000 0.507700
vt 0.733272 0.717079
vt 0.766727 0.717079
vt 0.875000 0.750000
vt 0.733272 0.633746
vt 0.766727 0.633746
vt 0.850061 0.633746
vt 0.850061 0.616254
vt 0.854048 0.504851
vt 0.854047 0.752465
vt 0.649939 0.616254
vt 0.649939 0.633746
vt 0.733272 0.616254
vt 0.766727 0.616254
vn 0.0000 0.0000 1.0000
vn 0.0000 0.0000 -1.0000
vn 0.0000 -1.0000 0.0000
vn 1.0000 0.0000 0.0000
vn -1.0000 0.0000 0.0000
vn 0.0000 1.0000 0.0000
usemtl White
s off
f 16/1/1 20/2/1 19/3/1 6/4/1
f 1/5/2 17/6/2 18/7/2 15/8/2
f 1/9/3 15/8/3 16/1/3 6/10/3
f 15/8/4 18/11/4 20/12/4 16/1/4
f 6/13/5 19/14/5 17/6/5 1/5/5
f 2/15/6 3/16/6 18/7/6 17/17/6
f 4/18/6 5/19/6 19/20/6 20/2/6
f 12/21/6 4/18/6 20/12/6
f 5/19/6 14/22/6 19/20/6
f 7/23/6 8/24/6 17/25/6 19/26/6
f 9/27/6 10/28/6 20/12/6 18/11/6
f 3/16/6 11/29/6 18/7/6
f 13/30/6 2/15/6 17/25/6
f 11/29/6 9/27/6 18/11/6
f 10/28/6 12/21/6 20/12/6
f 8/24/6 13/30/6 17/25/6
f 14/22/6 7/23/6 19/26/6
usemtl Red
f 12/21/6 14/22/6 5/19/6 4/18/6
f 3/16/6 2/15/6 13/30/6 11/29/6
f 11/29/6 13/30/6 14/22/6 12/21/6
f 9/27/6 11/29/6 12/21/6 10/28/6
f 13/30/6 8/24/6 7/23/6 14/22/6
