# Blender v2.81 (sub 16) OBJ File: 'Low Poly assets.blend'
# www.blender.org
mtllib 12x_Scope.mtl
o 12x_Scope_Cube.042
v -0.016374 -0.075510 -0.029969
v -0.016374 0.016142 -0.029969
v -0.016374 -0.075510 -0.046598
v -0.016374 0.016142 -0.046598
v 0.016211 -0.075510 -0.029969
v 0.016211 0.016142 -0.029969
v 0.016211 -0.075510 -0.046598
v 0.016211 0.016142 -0.046598
v -0.016374 -0.075510 0.045392
v -0.016374 0.016142 0.045392
v -0.016374 -0.075510 0.028763
v -0.016374 0.016142 0.028763
v 0.016211 -0.075510 0.045392
v 0.016211 0.016142 0.045392
v 0.016211 -0.075510 0.028763
v 0.016211 0.016142 0.028763
v -0.022510 -0.024480 0.154698
v -0.022510 0.020378 0.154698
v -0.015693 -0.017662 -0.144471
v -0.015693 0.013560 -0.144471
v 0.022347 -0.024480 0.154698
v 0.022347 0.020378 0.154698
v 0.015530 -0.017662 -0.144471
v 0.015530 0.013560 -0.144471
v -0.014161 -0.015330 -0.058022
v -0.014161 0.012493 -0.058022
v 0.013998 -0.015330 -0.058022
v 0.013998 0.012493 -0.058022
v -0.028452 -0.030421 0.119752
v 0.028289 0.026320 0.119752
v -0.028452 0.026320 0.119752
v 0.028289 -0.030421 0.119752
v -0.018616 0.016484 -0.088769
v 0.018453 -0.020585 -0.088769
v -0.018616 -0.020585 -0.088769
v 0.018453 0.016484 -0.088769
v -0.015090 0.012493 0.064609
v 0.014927 -0.015330 0.064609
v -0.015090 -0.015330 0.064609
v 0.014927 0.012493 0.064609
v -0.018503 -0.020472 0.018128
v -0.018503 0.016371 0.018128
v -0.018503 -0.020472 -0.018716
v -0.018503 0.016371 -0.018716
v 0.018340 -0.020472 0.018128
v 0.018340 0.016371 0.018128
v 0.018340 -0.020472 -0.018716
v 0.018340 0.016371 -0.018716
v -0.012287 0.009761 0.011912
v -0.012287 0.034173 0.011912
v -0.012287 0.009761 -0.012500
v -0.012287 0.034173 -0.012500
v 0.012124 0.009761 0.011912
v 0.012124 0.034173 0.011912
v 0.012124 0.009761 -0.012500
v 0.012124 0.034173 -0.012500
v -0.028452 -0.030421 0.154698
v -0.028452 0.026320 0.154698
v 0.028289 0.026320 0.154698
v 0.028289 -0.030421 0.154698
v -0.022510 -0.024480 0.147267
v -0.022510 0.020378 0.147267
v 0.022347 0.020378 0.147267
v 0.022347 -0.024480 0.147267
v -0.018480 0.016348 -0.144471
v -0.018480 -0.020450 -0.144471
v 0.018317 -0.020450 -0.144471
v 0.018317 0.016348 -0.144471
v -0.015693 0.013560 -0.139089
v -0.015693 -0.017662 -0.139089
v 0.015530 -0.017662 -0.139089
v 0.015530 0.013560 -0.139089
vt 0.030813 0.215815
vt 0.035131 0.215815
vt 0.035131 0.220132
vt 0.030813 0.220132
vt 0.030655 0.204734
vt 0.035289 0.204734
vt 0.035289 0.209368
vt 0.030655 0.209368
vt 0.094386 0.957724
vt 0.097391 0.957724
vt 0.097391 0.960728
vt 0.094386 0.960728
vt 0.097391 0.963733
vt 0.094386 0.963733
vt 0.097391 0.966738
vt 0.094386 0.966738
vt 0.097391 0.969743
vt 0.094386 0.969743
vt 0.094386 0.957724
vt 0.097391 0.957724
vt 0.097391 0.960728
vt 0.094386 0.960728
vt 0.100396 0.963733
vt 0.100396 0.966738
vt 0.097391 0.963733
vt 0.094386 0.963733
vt 0.097391 0.966738
vt 0.094386 0.966738
vt 0.097391 0.969743
vt 0.094386 0.969743
vt 0.100396 0.963733
vt 0.100396 0.966738
vt 0.094386 0.960167
vt 0.097391 0.960167
vt 0.097391 0.960728
vt 0.094386 0.960728
vt 0.094614 0.963506
vt 0.094614 0.960956
vt 0.094614 0.960956
vt 0.094614 0.963506
vt 0.094386 0.966406
vt 0.097391 0.966406
vt 0.097391 0.966738
vt 0.094386 0.966738
vt 0.094701 0.969428
vt 0.094701 0.967053
vt 0.094701 0.967053
vt 0.094701 0.969428
vt 0.091381 0.966406
vt 0.091381 0.966738
vt 0.100396 0.966406
vt 0.100396 0.966738
vt 0.097391 0.964295
vt 0.100396 0.964295
vt 0.100396 0.964605
vt 0.097391 0.964605
vt 0.091381 0.964295
vt 0.094386 0.964295
vt 0.094386 0.964605
vt 0.091381 0.964605
vt 0.094386 0.958614
vt 0.097391 0.958614
vt 0.097391 0.959856
vt 0.094386 0.959856
vt 0.094386 0.957724
vt 0.097391 0.957724
vt 0.097391 0.958056
vt 0.094386 0.958056
vt 0.097391 0.965848
vt 0.100396 0.965848
vt 0.091381 0.965848
vt 0.094386 0.965848
vt 0.094386 0.963733
vt 0.097391 0.963733
vt 0.091381 0.963733
vt 0.100396 0.963733
vt 0.094386 0.957724
vt 0.097391 0.957724
vt 0.097391 0.960728
vt 0.094386 0.960728
vt 0.097391 0.963733
vt 0.094386 0.963733
vt 0.097391 0.966738
vt 0.094386 0.966738
vt 0.097391 0.969743
vt 0.094386 0.969743
vt 0.091381 0.963733
vt 0.091381 0.966738
vt 0.100396 0.963733
vt 0.100396 0.966738
vt 0.094386 0.957724
vt 0.097391 0.957724
vt 0.097391 0.960728
vt 0.094386 0.960728
vt 0.097391 0.963733
vt 0.094386 0.963733
vt 0.097391 0.966738
vt 0.094386 0.966738
vt 0.097391 0.969743
vt 0.094386 0.969743
vt 0.100396 0.963733
vt 0.100396 0.966738
vt 0.097076 0.969428
vt 0.097391 0.969743
vt 0.094386 0.969743
vt 0.097076 0.967053
vt 0.097076 0.969428
vt 0.097076 0.967053
vt 0.097163 0.960956
vt 0.097163 0.963506
vt 0.097163 0.963506
vt 0.097163 0.960956
vn 0.0000 0.0000 1.0000
vn 0.0000 0.0000 -1.0000
vn -1.0000 0.0000 0.0000
vn 1.0000 0.0000 0.0000
vn 0.0000 1.0000 0.0000
vn -1.0000 -0.0000 -0.0024
vn 0.0000 -1.0000 0.0000
vn 0.0000 0.9917 0.1287
vn 0.0000 -0.9857 0.1685
vn 0.9897 0.0000 0.1434
vn -1.0000 0.0000 -0.0076
vn 0.0000 0.9700 -0.2432
vn 0.0000 -0.9645 -0.2640
vn 0.9719 0.0000 -0.2355
vn 1.0000 0.0000 -0.0024
vn 0.0000 -1.0000 -0.0024
vn 0.0000 1.0000 -0.0024
vn -0.9897 -0.0000 0.1434
vn 1.0000 0.0000 -0.0076
vn -0.9719 0.0000 -0.2355
usemtl Light_Green
s off
f 64/1/1 63/2/1 62/3/1 61/4/1
f 70/5/2 69/6/2 72/7/2 71/8/2
usemtl Dark_Gray
f 1/9/3 2/10/3 4/11/3 3/12/3
f 3/12/2 4/11/2 8/13/2 7/14/2
f 7/14/4 8/13/4 6/15/4 5/16/4
f 5/16/1 6/15/1 2/17/1 1/18/1
f 9/19/3 10/20/3 12/21/3 11/22/3
f 8/13/5 4/23/5 2/24/5 6/15/5
f 11/22/2 12/21/2 16/25/2 15/26/2
f 15/26/4 16/25/4 14/27/4 13/28/4
f 13/28/1 14/27/1 10/29/1 9/30/1
f 16/25/5 12/31/5 10/32/5 14/27/5
f 35/33/6 33/34/6 65/35/6 66/36/6
f 23/37/5 19/38/5 70/39/5 71/40/5
f 32/41/4 30/42/4 59/43/4 60/44/4
f 17/45/5 21/46/5 64/47/5 61/48/5
f 29/49/7 32/41/7 60/44/7 57/50/7
f 30/42/5 31/51/5 58/52/5 59/43/5
f 36/53/8 33/54/8 26/55/8 28/56/8
f 35/57/9 34/58/9 27/59/9 25/60/9
f 34/58/10 36/53/10 28/56/10 27/59/10
f 39/61/11 37/62/11 26/63/11 25/64/11
f 57/65/3 58/66/3 31/67/3 29/68/3
f 40/69/12 37/70/12 31/51/12 30/42/12
f 39/71/13 38/72/13 32/41/13 29/49/13
f 38/72/14 40/69/14 30/42/14 32/41/14
f 67/73/15 68/74/15 36/53/15 34/58/15
f 66/75/16 67/73/16 34/58/16 35/57/16
f 68/74/17 65/76/17 33/54/17 36/53/17
f 25/64/18 26/63/18 33/34/18 35/33/18
f 27/59/19 28/56/19 40/69/19 38/72/19
f 25/60/7 27/59/7 38/72/7 39/71/7
f 28/56/5 26/55/5 37/70/5 40/69/5
f 29/68/20 31/67/20 37/62/20 39/61/20
f 41/77/3 42/78/3 44/79/3 43/80/3
f 43/80/2 44/79/2 48/81/2 47/82/2
f 47/82/4 48/81/4 46/83/4 45/84/4
f 45/84/1 46/83/1 42/85/1 41/86/1
f 43/87/7 47/82/7 45/84/7 41/88/7
f 48/81/5 44/89/5 42/90/5 46/83/5
f 49/91/3 50/92/3 52/93/3 51/94/3
f 51/94/2 52/93/2 56/95/2 55/96/2
f 55/96/4 56/95/4 54/97/4 53/98/4
f 53/98/1 54/97/1 50/99/1 49/100/1
f 56/95/5 52/101/5 50/102/5 54/97/5
f 17/45/1 18/103/1 58/104/1 57/105/1
f 22/106/1 21/46/1 60/44/1 59/43/1
f 21/46/1 17/45/1 57/105/1 60/44/1
f 18/103/1 22/106/1 59/43/1 58/104/1
f 18/103/4 17/45/4 61/48/4 62/107/4
f 22/106/7 18/103/7 62/107/7 63/108/7
f 21/46/3 22/106/3 63/108/3 64/47/3
f 20/109/2 19/38/2 66/36/2 65/35/2
f 19/38/2 23/37/2 67/73/2 66/36/2
f 24/110/2 20/109/2 65/35/2 68/74/2
f 23/37/2 24/110/2 68/74/2 67/73/2
f 20/109/7 24/110/7 72/111/7 69/112/7
f 19/38/4 20/109/4 69/112/4 70/39/4
f 24/110/3 23/37/3 71/40/3 72/111/3
f 9/30/7 11/22/7 15/26/7 13/28/7
f 1/18/7 3/12/7 7/14/7 5/16/7
