# Blender v2.81 (sub 16) OBJ File: 'Low Poly assets.blend'
# www.blender.org
mtllib Bipod_Closed.mtl
o Bipod_Closed_Cube.038
v -0.013499 0.009988 -0.060747
v -0.013499 0.036986 -0.060747
v -0.013499 0.009988 -0.096260
v -0.013499 0.036986 -0.096260
v 0.013499 0.009988 -0.060747
v 0.013499 0.036986 -0.060747
v 0.013499 0.009988 -0.096260
v 0.013499 0.036986 -0.096260
v 0.000000 0.009988 -0.096260
v 0.000000 0.036986 -0.096260
v 0.000000 0.009988 -0.060747
v 0.000000 0.036986 -0.060747
v 0.001936 -0.005757 -0.086601
v 0.011563 -0.005757 -0.086601
v 0.011563 0.009978 -0.086601
v 0.001936 0.009978 -0.086601
v -0.011563 -0.005757 -0.086601
v -0.001936 -0.005757 -0.086601
v -0.001936 0.009978 -0.086601
v -0.011563 0.009978 -0.086601
v 0.051563 -0.005757 0.089441
v 0.041936 -0.005757 0.089441
v 0.051563 0.009978 0.089441
v 0.041936 0.009978 0.089441
v -0.041936 -0.005757 0.089441
v -0.051563 -0.005757 0.089441
v -0.041936 0.009978 0.089441
v -0.051563 0.009978 0.089441
v 0.053969 -0.009690 0.089441
v 0.039530 -0.009690 0.089441
v 0.053969 0.013911 0.089441
v 0.039530 0.013911 0.089441
v -0.039530 -0.009690 0.089441
v -0.053969 -0.009690 0.089441
v -0.039530 0.013911 0.089441
v -0.053969 0.013911 0.089441
v 0.053969 -0.009690 0.099441
v 0.039530 -0.009690 0.099441
v 0.053969 0.013911 0.099441
v 0.039530 0.013911 0.099441
v -0.039530 -0.009690 0.099441
v -0.053969 -0.009690 0.099441
v -0.039530 0.013911 0.099441
v -0.053969 0.013911 0.099441
vt 0.375000 0.000000
vt 0.625000 0.000000
vt 0.625000 0.250000
vt 0.375000 0.250000
vt 0.375000 0.375000
vt 0.625000 0.375000
vt 0.625000 0.500000
vt 0.375000 0.500000
vt 0.625000 0.750000
vt 0.375000 0.750000
vt 0.375000 0.875000
vt 0.625000 0.875000
vt 0.625000 1.000000
vt 0.375000 1.000000
vt 0.125000 0.750000
vt 0.125000 0.500000
vt 0.125000 0.500000
vt 0.125000 0.750000
vt 0.750000 0.500000
vt 0.875000 0.500000
vt 0.875000 0.750000
vt 0.750000 0.750000
vt 0.250000 0.500000
vt 0.375000 0.500000
vt 0.375000 0.500000
vt 0.250000 0.500000
vt 0.375000 0.500000
vt 0.375000 0.750000
vt 0.375000 0.750000
vt 0.250000 0.750000
vt 0.250000 0.500000
vt 0.250000 0.750000
vt 0.250000 0.500000
vt 0.125000 0.500000
vt 0.125000 0.750000
vt 0.250000 0.750000
vt 0.250000 0.750000
vt 0.250000 0.500000
vt 0.125000 0.500000
vt 0.125000 0.750000
vt 0.250000 0.750000
vt 0.375000 0.750000
vt 0.250000 0.750000
vt 0.375000 0.750000
vt 0.250000 0.750000
vt 0.250000 0.500000
vt 0.250000 0.500000
vt 0.375000 0.500000
vt 0.250000 0.500000
vt 0.250000 0.750000
vn -1.0000 0.0000 0.0000
vn 0.0000 0.0000 -1.0000
vn 1.0000 0.0000 0.0000
vn 0.0000 0.0000 1.0000
vn 0.0000 1.0000 0.0000
vn 0.9751 0.0000 -0.2216
vn -0.9751 0.0000 0.2216
vn 0.0000 -1.0000 -0.0000
vn -0.9751 0.0000 -0.2216
vn 0.9751 0.0000 0.2216
usemtl Dark_Gray
s off
f 1/1/1 2/2/1 4/3/1 3/4/1
f 9/5/2 10/6/2 8/7/2 7/8/2
f 7/8/3 8/7/3 6/9/3 5/10/3
f 11/11/4 12/12/4 2/13/4 1/14/4
f 28/15/2 26/16/2 34/17/2 36/18/2
f 10/19/5 4/20/5 2/21/5 12/22/5
f 8/7/5 10/19/5 12/22/5 6/9/5
f 22/23/2 21/24/2 29/25/2 30/26/2
f 5/10/4 6/9/4 12/12/4 11/11/4
f 3/4/2 4/3/2 10/6/2 9/5/2
f 14/27/6 15/28/6 23/29/6 21/24/6
f 16/30/7 13/31/7 22/23/7 24/32/7
f 14/27/2 13/31/2 16/30/2 15/28/2
f 18/33/2 17/34/2 20/35/2 19/36/2
f 19/36/5 20/35/5 28/15/5 27/37/5
f 17/34/8 18/33/8 25/38/8 26/16/8
f 15/28/5 16/30/5 24/32/5 23/29/5
f 20/35/9 17/34/9 26/16/9 28/15/9
f 13/31/8 14/27/8 21/24/8 22/23/8
f 18/33/10 19/36/10 27/37/10 25/38/10
f 36/18/1 34/17/1 42/39/1 44/40/1
f 24/32/2 22/23/2 30/26/2 32/41/2
f 21/24/2 23/29/2 31/42/2 29/25/2
f 23/29/2 24/32/2 32/41/2 31/42/2
f 31/42/5 32/41/5 40/43/5 39/44/5
f 25/38/2 27/37/2 35/45/2 33/46/2
f 27/37/2 28/15/2 36/18/2 35/45/2
f 26/16/2 25/38/2 33/46/2 34/17/2
f 38/47/4 37/48/4 39/44/4 40/43/4
f 42/39/4 41/49/4 43/50/4 44/40/4
f 30/26/8 29/25/8 37/48/8 38/47/8
f 33/46/3 35/45/3 43/50/3 41/49/3
f 32/41/1 30/26/1 38/47/1 40/43/1
f 29/25/3 31/42/3 39/44/3 37/48/3
f 35/45/5 36/18/5 44/40/5 43/50/5
f 34/17/8 33/46/8 41/49/8 42/39/8
f 3/4/8 9/5/8 7/8/8 5/10/8 11/11/8 1/14/8
