# Blender v2.81 (sub 16) OBJ File: 'Low Poly assets.blend'
# www.blender.org
mtllib Iron_Sight_Front.mtl
o Iron_Sight_Front_Cube.035
v -0.006003 -0.000429 0.011197
v -0.006003 -0.000429 -0.008135
v 0.006003 -0.000429 0.011197
v 0.006003 -0.000429 -0.008135
v -0.004972 -0.011678 0.013483
v -0.004972 -0.011678 -0.014910
v 0.004972 -0.011678 -0.014910
v 0.004972 -0.011678 0.013483
v -0.015380 -0.018138 -0.023484
v 0.015380 -0.018138 -0.023484
v 0.015380 -0.018138 0.013483
v -0.015380 -0.018138 0.013483
v -0.000942 0.001528 0.002090
v -0.000942 0.001528 0.000972
v 0.000942 0.001528 0.000972
v 0.000942 0.001528 0.002090
v -0.010049 0.021760 0.011197
v -0.010049 0.021760 -0.008135
v 0.010049 0.021760 -0.008135
v 0.010049 0.021760 0.011197
v -0.012006 -0.000429 -0.008135
v 0.012006 -0.000429 -0.008135
v 0.012006 -0.000429 0.011197
v -0.012006 -0.000429 0.011197
v -0.012006 0.023717 -0.008135
v 0.012006 0.023717 -0.008135
v 0.012006 0.023717 0.011197
v -0.012006 0.023717 0.011197
v -0.015380 -0.029387 -0.023484
v 0.015380 -0.029387 -0.023484
v 0.015380 -0.029387 0.013483
v -0.015380 -0.029387 0.013483
v -0.010049 0.001528 -0.008135
v 0.010049 0.001528 -0.008135
v 0.010049 0.001528 0.011197
v -0.010049 0.001528 0.011197
v -0.000942 0.011528 0.000972
v 0.000942 0.011528 0.000972
v 0.000942 0.011528 0.002090
v -0.000942 0.011528 0.002090
vt 0.158081 0.960337
vt 0.158973 0.960337
vt 0.158973 0.965464
vt 0.158081 0.965464
vt 0.158973 0.970591
vt 0.158081 0.970591
vt 0.158973 0.975719
vt 0.158081 0.975719
vt 0.158973 0.980846
vt 0.158081 0.980846
vt 0.158973 0.965464
vt 0.158973 0.970591
vt 0.157289 0.975719
vt 0.157289 0.980846
vt 0.157289 0.970591
vt 0.157289 0.965464
vt 0.157289 0.960337
vt 0.158973 0.970174
vt 0.158973 0.976137
vt 0.158973 0.976137
vt 0.158973 0.970174
vt 0.158973 0.975719
vt 0.158973 0.960337
vt 0.158973 0.980846
vt 0.158973 0.970591
vt 0.164100 0.970591
vt 0.164100 0.975719
vt 0.158973 0.975719
vt 0.158973 0.960337
vt 0.158973 0.965464
vt 0.158973 0.972844
vt 0.158973 0.973466
vt 0.158973 0.973466
vt 0.158973 0.972844
vt 0.158973 0.965882
vt 0.158973 0.980428
vt 0.158973 0.965882
vt 0.158973 0.980428
vt 0.158973 0.980846
vt 0.157289 0.975719
vt 0.157289 0.970591
vt 0.157289 0.965464
vt 0.157289 0.960337
vt 0.157289 0.980846
vt 0.158973 0.972873
vt 0.158973 0.973437
vt 0.158973 0.973437
vt 0.158973 0.972873
vn -0.9958 -0.0912 0.0000
vn 0.0000 0.5159 -0.8567
vn 0.9958 -0.0912 0.0000
vn 0.0000 0.1992 0.9800
vn 0.0000 0.0000 1.0000
vn 0.5274 0.8496 0.0000
vn 0.0000 0.7987 -0.6018
vn -0.5274 0.8496 0.0000
vn -1.0000 0.0000 0.0000
vn 0.0000 -1.0000 0.0000
vn 0.0000 1.0000 0.0000
vn 1.0000 0.0000 0.0000
vn 0.0000 0.0000 -1.0000
usemtl Dark_Gray
s off
f 5/1/1 1/2/1 2/3/1 6/4/1
f 6/4/2 2/3/2 4/5/2 7/6/2
f 7/6/3 4/5/3 3/7/3 8/8/3
f 8/8/4 3/7/4 1/9/4 5/10/4
f 4/5/5 2/3/5 21/11/5 22/12/5
f 11/13/5 8/8/5 5/10/5 12/14/5
f 10/15/6 7/6/6 8/8/6 11/13/6
f 9/16/7 6/4/7 7/6/7 10/15/7
f 12/17/8 5/1/8 6/4/8 9/16/8
f 34/18/9 35/19/9 20/20/9 19/21/9
f 3/7/10 4/5/10 22/12/10 23/22/10
f 2/3/10 1/2/10 24/23/10 21/11/10
f 1/9/5 3/7/5 23/22/5 24/24/5
f 26/25/11 25/26/11 28/27/11 27/28/11
f 23/22/12 22/12/12 26/25/12 27/28/12
f 21/11/9 24/23/9 28/29/9 25/30/9
f 14/31/9 13/32/9 40/33/9 37/34/9
f 33/35/13 34/18/13 22/12/13 21/11/13
f 35/19/5 36/36/5 24/24/5 23/22/5
f 19/21/13 18/37/13 25/30/13 26/25/13
f 17/38/5 20/20/5 27/28/5 28/39/5
f 18/37/13 33/35/13 21/11/13 25/30/13
f 34/18/13 19/21/13 26/25/13 22/12/13
f 20/20/5 35/19/5 23/22/5 27/28/5
f 36/36/5 17/38/5 28/39/5 24/24/5
f 18/37/10 19/21/10 20/20/10 17/38/10
f 18/37/12 17/38/12 36/36/12 33/35/12
f 10/15/12 11/13/12 31/40/12 30/41/12
f 12/17/9 9/16/9 29/42/9 32/43/9
f 11/13/5 12/14/5 32/44/5 31/40/5
f 9/16/13 10/15/13 30/41/13 29/42/13
f 14/31/11 15/45/11 34/18/11 33/35/11
f 16/46/11 13/32/11 36/36/11 35/19/11
f 13/32/11 14/31/11 33/35/11 36/36/11
f 15/45/11 16/46/11 35/19/11 34/18/11
f 37/34/11 40/33/11 39/47/11 38/48/11
f 15/45/13 14/31/13 37/34/13 38/48/13
f 16/46/12 15/45/12 38/48/12 39/47/12
f 13/32/5 16/46/5 39/47/5 40/33/5
f 32/44/10 29/42/10 30/41/10 31/40/10
