# Blender v2.81 (sub 16) OBJ File: 'Low Poly assets.blend'
# www.blender.org
mtllib Revolver_Speedloader.mtl
o Revolver_Speedloader_Cylinder.005
v -0.010550 -0.016152 0.001520
v -0.010550 0.016473 0.001520
v -0.006623 -0.016152 0.003788
v -0.006623 0.016473 0.003788
v -0.006623 -0.016152 0.008323
v -0.006623 0.016473 0.008323
v -0.010550 -0.016152 0.010591
v -0.010550 0.016473 0.010591
v -0.014478 -0.016152 0.008323
v -0.014478 0.016473 0.008323
v -0.014478 -0.016152 0.003788
v -0.014478 0.016473 0.003788
v -0.010550 0.024973 0.003442
v -0.008287 0.024973 0.004749
v -0.008287 0.024973 0.007362
v -0.010550 0.024973 0.008669
v -0.012814 0.024973 0.007362
v -0.012814 0.024973 0.004749
v -0.010550 -0.016152 -0.010480
v -0.010550 0.016473 -0.010480
v -0.006623 -0.016152 -0.008212
v -0.006623 0.016473 -0.008212
v -0.006623 -0.016152 -0.003677
v -0.006623 0.016473 -0.003677
v -0.010550 -0.016152 -0.001409
v -0.010550 0.016473 -0.001409
v -0.014478 -0.016152 -0.003677
v -0.014478 0.016473 -0.003677
v -0.014478 -0.016152 -0.008212
v -0.014478 0.016473 -0.008212
v -0.010550 0.024973 -0.008558
v -0.008287 0.024973 -0.007251
v -0.008287 0.024973 -0.004638
v -0.010550 0.024973 -0.003331
v -0.012814 0.024973 -0.004638
v -0.012814 0.024973 -0.007251
v 0.010450 -0.016152 0.001520
v 0.010450 0.016473 0.001520
v 0.014377 -0.016152 0.003788
v 0.014377 0.016473 0.003788
v 0.014377 -0.016152 0.008323
v 0.014377 0.016473 0.008323
v 0.010450 -0.016152 0.010591
v 0.010450 0.016473 0.010591
v 0.006522 -0.016152 0.008323
v 0.006522 0.016473 0.008323
v 0.006522 -0.016152 0.003788
v 0.006522 0.016473 0.003788
v 0.010450 0.024973 0.003442
v 0.012713 0.024973 0.004749
v 0.012713 0.024973 0.007362
v 0.010450 0.024973 0.008669
v 0.008186 0.024973 0.007362
v 0.008186 0.024973 0.004749
v 0.010450 -0.016152 -0.010480
v 0.010450 0.016473 -0.010480
v 0.014377 -0.016152 -0.008212
v 0.014377 0.016473 -0.008212
v 0.014377 -0.016152 -0.003677
v 0.014377 0.016473 -0.003677
v 0.010450 -0.016152 -0.001409
v 0.010450 0.016473 -0.001409
v 0.006522 -0.016152 -0.003677
v 0.006522 0.016473 -0.003677
v 0.006522 -0.016152 -0.008212
v 0.006522 0.016473 -0.008212
v 0.010450 0.024973 -0.008558
v 0.012713 0.024973 -0.007251
v 0.012713 0.024973 -0.004638
v 0.010450 0.024973 -0.003331
v 0.008186 0.024973 -0.004638
v 0.008186 0.024973 -0.007251
v 0.000125 -0.016152 0.007520
v 0.000125 0.016473 0.007520
v 0.004053 -0.016152 0.009788
v 0.004053 0.016473 0.009788
v 0.004053 -0.016152 0.014323
v 0.004053 0.016473 0.014323
v 0.000125 -0.016152 0.016591
v 0.000125 0.016473 0.016591
v -0.003803 -0.016152 0.014323
v -0.003803 0.016473 0.014323
v -0.003803 -0.016152 0.009788
v -0.003803 0.016473 0.009788
v 0.000125 0.024973 0.009442
v 0.002388 0.024973 0.010749
v 0.002388 0.024973 0.013362
v 0.000125 0.024973 0.014669
v -0.002138 0.024973 0.013362
v -0.002138 0.024973 0.010749
v 0.000125 -0.016152 -0.016480
v 0.000125 0.016473 -0.016480
v 0.004053 -0.016152 -0.014212
v 0.004053 0.016473 -0.014212
v 0.004053 -0.016152 -0.009677
v 0.004053 0.016473 -0.009677
v 0.000125 -0.016152 -0.007409
v 0.000125 0.016473 -0.007409
v -0.003803 -0.016152 -0.009677
v -0.003803 0.016473 -0.009677
v -0.003803 -0.016152 -0.014212
v -0.003803 0.016473 -0.014212
v 0.000125 0.024973 -0.014558
v 0.002388 0.024973 -0.013251
v 0.002388 0.024973 -0.010638
v 0.000125 0.024973 -0.009331
v -0.002138 0.024973 -0.010638
v -0.002138 0.024973 -0.013251
v 0.000262 -0.017213 -0.005856
v 0.000262 0.000765 -0.020503
v 0.005260 -0.017213 -0.002971
v 0.017944 0.000765 -0.010294
v 0.005260 -0.017213 0.002800
v 0.017944 0.000765 0.010124
v 0.000262 -0.017213 0.005686
v 0.000262 0.000765 0.020332
v -0.004736 -0.017213 0.002800
v -0.017420 0.000765 0.010124
v -0.004736 -0.017213 -0.002971
v -0.017420 0.000765 -0.010294
v -0.010527 0.000765 0.010853
v -0.006361 0.000765 0.008448
v -0.014694 0.000765 0.003637
v 0.010430 0.000765 -0.001159
v 0.006263 0.000765 -0.008375
v 0.014596 0.000765 -0.003565
v 0.010439 0.000765 0.010810
v 0.006272 0.000765 0.008405
v -0.010527 -0.015656 0.010853
v 0.000118 0.000765 -0.016752
v 0.004280 0.000765 0.010080
v 0.004280 0.000765 0.014418
v 0.000114 0.000765 0.007202
v 0.006272 0.000765 0.003594
v -0.014793 0.000765 -0.008341
v -0.010527 0.000765 0.001231
v 0.006263 0.000765 -0.003565
v -0.014694 0.000765 0.008448
v 0.014605 0.000765 0.003594
v -0.006480 -0.010693 -0.008353
v -0.006460 0.000765 -0.008341
v 0.010430 0.000765 -0.010781
v -0.004052 0.000765 0.014418
v 0.000114 0.000765 0.016824
v -0.010626 0.000765 -0.001125
v -0.006460 0.000765 -0.003531
v 0.010439 0.000765 0.001188
v -0.004048 0.000765 -0.009536
v 0.004284 0.000765 -0.014347
v -0.004048 0.000765 -0.014347
v 0.000118 0.000765 -0.007131
v 0.014596 0.000765 -0.008375
v -0.006361 0.000765 0.003637
v 0.004262 0.000765 -0.009523
v -0.004052 0.000765 0.010080
v -0.014793 0.000765 -0.003531
v 0.014605 0.000765 0.008405
v -0.010626 0.000765 -0.010747
v 0.000262 -0.017213 -0.020503
v 0.017944 -0.017213 -0.010294
v 0.017944 -0.017213 0.010124
v 0.000262 -0.017213 0.020332
v -0.017420 -0.017213 0.010124
v -0.017420 -0.017213 -0.010294
v 0.000262 -0.026974 -0.005856
v 0.005260 -0.026974 -0.002971
v 0.005260 -0.026974 0.002800
v 0.000262 -0.026974 0.005686
v -0.004736 -0.026974 0.002800
v -0.004736 -0.026974 -0.002971
v -0.006361 -0.015656 0.008448
v -0.014694 -0.015656 0.008448
v -0.014694 -0.015656 0.003637
v 0.010430 -0.015656 -0.001159
v 0.014596 -0.015656 -0.003565
v 0.014596 -0.015656 -0.008375
v 0.000118 -0.015656 -0.016752
v -0.004048 -0.015656 -0.014347
v 0.004280 -0.015656 0.014418
v 0.004280 -0.015656 0.010080
v 0.006272 -0.015656 0.003594
v 0.006272 -0.015656 0.008405
v -0.014793 -0.015656 -0.008341
v -0.014793 -0.015656 -0.003531
v -0.010527 -0.015656 0.001231
v 0.014605 -0.015656 0.003594
v 0.010439 -0.015656 0.001188
v 0.006263 -0.015656 -0.003565
v -0.010626 -0.015656 -0.010747
v -0.006460 -0.015656 -0.008341
v 0.010430 -0.015656 -0.010781
v 0.006263 -0.015656 -0.008375
v -0.004052 -0.015656 0.014418
v 0.000114 -0.015656 0.016824
v -0.010626 -0.015656 -0.001125
v -0.006460 -0.015656 -0.003531
v -0.004048 -0.015656 -0.009536
v 0.000118 -0.015656 -0.007131
v 0.004284 -0.015656 -0.014347
v -0.006361 -0.015656 0.003637
v 0.004262 -0.015656 -0.009523
v -0.004052 -0.015656 0.010080
v 0.010439 -0.015656 0.010810
v 0.014605 -0.015656 0.008405
v 0.000114 -0.015656 0.007202
vt 1.000000 0.500000
vt 1.000000 1.000000
vt 0.833333 1.000000
vt 0.833333 0.500000
vt 0.666667 1.000000
vt 0.666667 0.500000
vt 0.500000 1.000000
vt 0.500000 0.500000
vt 0.333333 1.000000
vt 0.333333 0.500000
vt 0.166667 1.000000
vt 0.166667 0.500000
vt -0.000000 1.000000
vt -0.000000 0.500000
vt 0.750000 0.490000
vt 0.957846 0.370000
vt 0.957846 0.130000
vt 0.750000 0.010000
vt 0.542154 0.130000
vt 0.542154 0.370000
vt 1.000000 0.500000
vt 1.000000 1.000000
vt 0.833333 1.000000
vt 0.833333 0.500000
vt 0.666667 1.000000
vt 0.666667 0.500000
vt 0.500000 1.000000
vt 0.500000 0.500000
vt 0.333333 1.000000
vt 0.333333 0.500000
vt 0.166667 1.000000
vt 0.166667 0.500000
vt -0.000000 1.000000
vt -0.000000 0.500000
vt 0.750000 0.490000
vt 0.957846 0.370000
vt 0.957846 0.130000
vt 0.750000 0.010000
vt 0.542154 0.130000
vt 0.542154 0.370000
vt 1.000000 0.500000
vt 1.000000 1.000000
vt 0.833333 1.000000
vt 0.833333 0.500000
vt 0.666667 1.000000
vt 0.666667 0.500000
vt 0.500000 1.000000
vt 0.500000 0.500000
vt 0.333333 1.000000
vt 0.333333 0.500000
vt 0.166667 1.000000
vt 0.166667 0.500000
vt -0.000000 1.000000
vt -0.000000 0.500000
vt 0.750000 0.490000
vt 0.957846 0.370000
vt 0.957846 0.130000
vt 0.750000 0.010000
vt 0.542154 0.130000
vt 0.542154 0.370000
vt 1.000000 0.500000
vt 1.000000 1.000000
vt 0.833333 1.000000
vt 0.833333 0.500000
vt 0.666667 1.000000
vt 0.666667 0.500000
vt 0.500000 1.000000
vt 0.500000 0.500000
vt 0.333333 1.000000
vt 0.333333 0.500000
vt 0.166667 1.000000
vt 0.166667 0.500000
vt -0.000000 1.000000
vt -0.000000 0.500000
vt 0.750000 0.490000
vt 0.957846 0.370000
vt 0.957846 0.130000
vt 0.750000 0.010000
vt 0.542154 0.130000
vt 0.542154 0.370000
vt 1.000000 0.500000
vt 1.000000 1.000000
vt 0.833333 1.000000
vt 0.833333 0.500000
vt 0.666667 1.000000
vt 0.666667 0.500000
vt 0.500000 1.000000
vt 0.500000 0.500000
vt 0.333333 1.000000
vt 0.333333 0.500000
vt 0.166667 1.000000
vt 0.166667 0.500000
vt -0.000000 1.000000
vt -0.000000 0.500000
vt 0.750000 0.490000
vt 0.957846 0.370000
vt 0.957846 0.130000
vt 0.750000 0.010000
vt 0.542154 0.130000
vt 0.542154 0.370000
vt 1.000000 0.500000
vt 1.000000 1.000000
vt 0.833333 1.000000
vt 0.833333 0.500000
vt 0.666667 1.000000
vt 0.666667 0.500000
vt 0.500000 1.000000
vt 0.500000 0.500000
vt 0.333333 1.000000
vt 0.333333 0.500000
vt 0.166667 1.000000
vt 0.166667 0.500000
vt -0.000000 1.000000
vt -0.000000 0.500000
vt 0.750000 0.490000
vt 0.957846 0.370000
vt 0.957846 0.130000
vt 0.750000 0.010000
vt 0.542154 0.130000
vt 0.542154 0.370000
vt 0.333333 1.000000
vt 0.166667 1.000000
vt 0.457846 0.370000
vt 0.250000 0.490000
vt 0.042154 0.370000
vt 0.042154 0.130000
vt 0.250000 0.010000
vt 0.457846 0.130000
vt 1.000000 1.000000
vt 0.833333 1.000000
vt 0.666667 1.000000
vt 0.500000 1.000000
vt -0.000000 1.000000
vt 0.333333 1.000000
vt 0.166667 1.000000
vt 0.457846 0.370000
vt 0.250000 0.490000
vt 0.042154 0.370000
vt 0.042154 0.130000
vt 0.250000 0.010000
vt 0.457846 0.130000
vt 1.000000 1.000000
vt 0.833333 1.000000
vt 0.666667 1.000000
vt 0.500000 1.000000
vt -0.000000 1.000000
vt 0.333333 1.000000
vt 0.166667 1.000000
vt 0.457846 0.370000
vt 0.250000 0.490000
vt 0.042154 0.370000
vt 0.042154 0.130000
vt 0.250000 0.010000
vt 0.457846 0.130000
vt 1.000000 1.000000
vt 0.833333 1.000000
vt 0.666667 1.000000
vt 0.500000 1.000000
vt -0.000000 1.000000
vt 0.333333 1.000000
vt 0.166667 1.000000
vt 0.457846 0.370000
vt 0.250000 0.490000
vt 0.042154 0.370000
vt 0.042154 0.130000
vt 0.250000 0.010000
vt 0.457846 0.130000
vt 1.000000 1.000000
vt 0.833333 1.000000
vt 0.666667 1.000000
vt 0.500000 1.000000
vt -0.000000 1.000000
vt 0.333333 1.000000
vt 0.166667 1.000000
vt 0.457846 0.370000
vt 0.250000 0.490000
vt 0.042154 0.370000
vt 0.042154 0.130000
vt 0.250000 0.010000
vt 0.457846 0.130000
vt 1.000000 1.000000
vt 0.833333 1.000000
vt 0.666667 1.000000
vt 0.500000 1.000000
vt -0.000000 1.000000
vt 0.333333 1.000000
vt 0.166667 1.000000
vt 0.457846 0.370000
vt 0.250000 0.490000
vt 0.042154 0.370000
vt 0.042154 0.130000
vt 0.250000 0.010000
vt 0.457846 0.130000
vt 1.000000 1.000000
vt 0.833333 1.000000
vt 0.666667 1.000000
vt 0.500000 1.000000
vt -0.000000 1.000000
vt 0.475459 0.964949
vt 0.474270 0.964262
vt 0.474270 0.964262
vt 0.475459 0.964949
vt 0.474270 0.967010
vt 0.475459 0.966323
vt 0.473080 0.964949
vt 0.473080 0.966323
vt 0.474270 0.967010
vt 0.475459 0.966323
vt 0.473080 0.966323
vt 0.473080 0.964949
vt 0.478260 0.969626
vt 0.478260 0.977606
vt 0.475600 0.977606
vt 0.475600 0.969626
vt 0.472940 0.977606
vt 0.472940 0.969626
vt 0.470280 0.977606
vt 0.470280 0.969626
vt 0.467620 0.977606
vt 0.467620 0.969626
vt 0.469607 0.967551
vt 0.469182 0.967325
vt 0.469182 0.966322
vt 0.468314 0.965821
vt 0.467445 0.966322
vt 0.467445 0.967320
vt 0.467153 0.967488
vt 0.466290 0.966990
vt 0.465421 0.967491
vt 0.465134 0.967325
vt 0.465134 0.966322
vt 0.464265 0.965821
vt 0.463397 0.966322
vt 0.462972 0.967551
vt 0.462972 0.963721
vt 0.463397 0.963985
vt 0.463397 0.964988
vt 0.464265 0.965489
vt 0.465134 0.964988
vt 0.467445 0.964988
vt 0.468314 0.965489
vt 0.469182 0.964988
vt 0.469182 0.963985
vt 0.469607 0.963721
vt 0.464960 0.977606
vt 0.464960 0.969626
vt 0.462299 0.977606
vt 0.462299 0.969626
vt 0.468314 0.963484
vt 0.467158 0.963721
vt 0.467158 0.962816
vt 0.466290 0.962315
vt 0.465421 0.962816
vt 0.465421 0.963721
vt 0.465134 0.963985
vt 0.464265 0.963484
vt 0.466290 0.961805
vt 0.466290 0.964321
vt 0.467445 0.963985
vt 0.463397 0.967325
vt 0.464265 0.967827
vt 0.465421 0.968494
vt 0.466290 0.968995
vt 0.467158 0.968494
vt 0.468314 0.967827
vt 0.466290 0.969466
vt 0.474270 0.969466
vt 0.477587 0.967551
vt 0.477587 0.963721
vt 0.474270 0.961805
vt 0.470952 0.963721
vt 0.470952 0.967551
vt 0.467158 0.963721
vt 0.467158 0.962816
vt 0.466290 0.968995
vt 0.467158 0.968494
vt 0.465421 0.968494
vt 0.466290 0.966990
vt 0.465421 0.967491
vt 0.467445 0.964988
vt 0.468314 0.965489
vt 0.468314 0.963484
vt 0.467445 0.963985
vt 0.463397 0.967325
vt 0.463397 0.966322
vt 0.464265 0.965821
vt 0.465134 0.966322
vt 0.465134 0.967325
vt 0.464265 0.967827
vt 0.467153 0.967488
vt 0.468314 0.965821
vt 0.469182 0.966322
vt 0.469182 0.967325
vt 0.468314 0.967827
vt 0.467445 0.967320
vt 0.467445 0.966322
vt 0.469182 0.963985
vt 0.469182 0.964988
vt 0.466290 0.964321
vt 0.465421 0.963721
vt 0.465421 0.962816
vt 0.466290 0.962315
vt 0.464265 0.963484
vt 0.465134 0.963985
vt 0.465134 0.964988
vt 0.464265 0.965489
vt 0.463397 0.964988
vt 0.463397 0.963985
vn 0.5000 0.0000 -0.8660
vn 1.0000 0.0000 0.0000
vn 0.5000 0.0000 0.8660
vn -0.5000 0.0000 0.8660
vn -1.0000 0.0000 0.0000
vn -0.5000 0.0000 -0.8660
vn 0.0000 -1.0000 -0.0000
vn -0.9814 0.1922 0.0000
vn 0.0000 1.0000 0.0000
vn 0.4907 0.1922 -0.8499
vn 0.4907 0.1922 0.8499
vn -0.4907 0.1922 -0.8499
vn -0.4907 0.1922 0.8499
vn 0.9814 0.1922 0.0000
vn 0.5001 0.0000 -0.8660
vn 0.4999 0.0000 -0.8661
vn -0.5001 -0.0000 0.8660
vn -1.0000 0.0000 -0.0047
vn 0.5684 -0.0000 0.8228
vn -0.4999 0.0000 -0.8661
vn 0.5001 -0.0000 0.8660
vn 0.5001 0.0000 -0.8659
vn -0.5684 -0.0000 0.8228
vn -0.5001 0.0000 -0.8659
usemtl Gold
s off
f 1/1/1 2/2/1 4/3/1 3/4/1
f 3/4/2 4/3/2 6/5/2 5/6/2
f 5/6/3 6/5/3 8/7/3 7/8/3
f 7/8/4 8/7/4 10/9/4 9/10/4
f 9/10/5 10/9/5 12/11/5 11/12/5
f 11/12/6 12/11/6 2/13/6 1/14/6
f 1/15/7 3/16/7 5/17/7 7/18/7 9/19/7 11/20/7
f 19/21/1 20/22/1 22/23/1 21/24/1
f 21/24/2 22/23/2 24/25/2 23/26/2
f 23/26/3 24/25/3 26/27/3 25/28/3
f 25/28/4 26/27/4 28/29/4 27/30/4
f 27/30/5 28/29/5 30/31/5 29/32/5
f 29/32/6 30/31/6 20/33/6 19/34/6
f 19/35/7 21/36/7 23/37/7 25/38/7 27/39/7 29/40/7
f 37/41/1 38/42/1 40/43/1 39/44/1
f 39/44/2 40/43/2 42/45/2 41/46/2
f 41/46/3 42/45/3 44/47/3 43/48/3
f 43/48/4 44/47/4 46/49/4 45/50/4
f 45/50/5 46/49/5 48/51/5 47/52/5
f 47/52/6 48/51/6 38/53/6 37/54/6
f 37/55/7 39/56/7 41/57/7 43/58/7 45/59/7 47/60/7
f 55/61/1 56/62/1 58/63/1 57/64/1
f 57/64/2 58/63/2 60/65/2 59/66/2
f 59/66/3 60/65/3 62/67/3 61/68/3
f 61/68/4 62/67/4 64/69/4 63/70/4
f 63/70/5 64/69/5 66/71/5 65/72/5
f 65/72/6 66/71/6 56/73/6 55/74/6
f 55/75/7 57/76/7 59/77/7 61/78/7 63/79/7 65/80/7
f 73/81/1 74/82/1 76/83/1 75/84/1
f 75/84/2 76/83/2 78/85/2 77/86/2
f 77/86/3 78/85/3 80/87/3 79/88/3
f 79/88/4 80/87/4 82/89/4 81/90/4
f 81/90/5 82/89/5 84/91/5 83/92/5
f 83/92/6 84/91/6 74/93/6 73/94/6
f 73/95/7 75/96/7 77/97/7 79/98/7 81/99/7 83/100/7
f 91/101/1 92/102/1 94/103/1 93/104/1
f 93/104/2 94/103/2 96/105/2 95/106/2
f 95/106/3 96/105/3 98/107/3 97/108/3
f 97/108/4 98/107/4 100/109/4 99/110/4
f 99/110/5 100/109/5 102/111/5 101/112/5
f 101/112/6 102/111/6 92/113/6 91/114/6
f 91/115/7 93/116/7 95/117/7 97/118/7 99/119/7 101/120/7
usemtl Bronze
f 12/11/8 10/9/8 17/121/8 18/122/8
f 14/123/9 13/124/9 18/125/9 17/126/9 16/127/9 15/128/9
f 4/3/10 2/2/10 13/129/10 14/130/10
f 8/7/11 6/5/11 15/131/11 16/132/11
f 2/13/12 12/11/12 18/122/12 13/133/12
f 10/9/13 8/7/13 16/132/13 17/121/13
f 6/5/14 4/3/14 14/130/14 15/131/14
f 30/31/8 28/29/8 35/134/8 36/135/8
f 32/136/9 31/137/9 36/138/9 35/139/9 34/140/9 33/141/9
f 22/23/10 20/22/10 31/142/10 32/143/10
f 26/27/11 24/25/11 33/144/11 34/145/11
f 20/33/12 30/31/12 36/135/12 31/146/12
f 28/29/13 26/27/13 34/145/13 35/134/13
f 24/25/14 22/23/14 32/143/14 33/144/14
f 48/51/8 46/49/8 53/147/8 54/148/8
f 50/149/9 49/150/9 54/151/9 53/152/9 52/153/9 51/154/9
f 40/43/10 38/42/10 49/155/10 50/156/10
f 44/47/11 42/45/11 51/157/11 52/158/11
f 38/53/12 48/51/12 54/148/12 49/159/12
f 46/49/13 44/47/13 52/158/13 53/147/13
f 42/45/14 40/43/14 50/156/14 51/157/14
f 66/71/8 64/69/8 71/160/8 72/161/8
f 68/162/9 67/163/9 72/164/9 71/165/9 70/166/9 69/167/9
f 58/63/10 56/62/10 67/168/10 68/169/10
f 62/67/11 60/65/11 69/170/11 70/171/11
f 56/73/12 66/71/12 72/161/12 67/172/12
f 64/69/13 62/67/13 70/171/13 71/160/13
f 60/65/14 58/63/14 68/169/14 69/170/14
f 84/91/8 82/89/8 89/173/8 90/174/8
f 86/175/9 85/176/9 90/177/9 89/178/9 88/179/9 87/180/9
f 76/83/10 74/82/10 85/181/10 86/182/10
f 80/87/11 78/85/11 87/183/11 88/184/11
f 74/93/12 84/91/12 90/174/12 85/185/12
f 82/89/13 80/87/13 88/184/13 89/173/13
f 78/85/14 76/83/14 86/182/14 87/183/14
f 102/111/8 100/109/8 107/186/8 108/187/8
f 104/188/9 103/189/9 108/190/9 107/191/9 106/192/9 105/193/9
f 94/103/10 92/102/10 103/194/10 104/195/10
f 98/107/11 96/105/11 105/196/11 106/197/11
f 92/113/12 102/111/12 108/187/12 103/198/12
f 100/109/13 98/107/13 106/197/13 107/186/13
f 96/105/14 94/103/14 104/195/14 105/196/14
usemtl Light_Gray
f 113/199/3 115/200/3 168/201/3 167/202/3
f 165/203/7 166/204/7 167/202/7 168/201/7 169/205/7 170/206/7
f 109/207/1 111/208/1 166/204/1 165/203/1
f 119/209/6 109/207/6 165/203/6 170/206/6
f 115/200/4 117/210/4 169/205/4 168/201/4
f 111/208/2 113/199/2 167/202/2 166/204/2
f 117/210/5 119/209/5 170/206/5 169/205/5
usemtl Dark_Gray
f 159/211/1 110/212/1 112/213/1 160/214/1
f 160/214/2 112/213/2 114/215/2 161/216/2
f 161/216/3 114/215/3 116/217/3 162/218/3
f 162/218/4 116/217/4 118/219/4 163/220/4
f 112/221/9 152/222/9 126/223/9 124/224/9 137/225/9 125/226/9 154/227/9 151/228/9 148/229/9 141/230/9 146/231/9 145/232/9 156/233/9 120/234/9 118/235/9 138/236/9 123/237/9 136/238/9 153/239/9 134/240/9 147/241/9 139/242/9 157/243/9 114/244/9
f 163/220/5 118/219/5 120/245/5 164/246/5
f 164/246/6 120/245/6 110/247/6 159/248/6
f 114/244/9 157/243/9 127/249/9 131/250/9 132/251/9 144/252/9 143/253/9 155/254/9 122/255/9 121/256/9 138/236/9 118/235/9 116/257/9
f 153/239/9 122/255/9 155/254/9 133/258/9 131/250/9 127/249/9 128/259/9 134/240/9
f 120/234/9 156/233/9 135/260/9 158/261/9 141/230/9 148/229/9 150/262/9 130/263/9 149/264/9 154/227/9 125/226/9 142/265/9 152/222/9 112/221/9 110/266/9
f 111/208/7 109/207/7 159/267/7 160/268/7
f 113/199/7 111/208/7 160/268/7 161/269/7
f 115/200/7 113/199/7 161/269/7 162/270/7
f 117/210/7 115/200/7 162/270/7 163/271/7
f 119/209/7 117/210/7 163/271/7 164/272/7
f 109/207/7 119/209/7 164/272/7 159/267/7
f 132/251/5 131/250/5 180/273/5 179/274/5
f 149/264/4 130/263/4 177/275/4 199/276/4
f 130/263/3 150/262/3 178/277/3 177/275/3
f 148/229/15 151/228/15 198/278/15 197/279/15
f 147/241/3 134/240/3 181/280/3 187/281/3
f 128/259/16 127/249/16 203/282/16 182/283/16
f 183/284/9 184/285/9 195/286/9 196/287/9 190/288/9 189/289/9
f 177/275/9 178/277/9 197/279/9 198/278/9 201/290/9 199/276/9
f 174/291/9 175/292/9 176/293/9 191/294/9 192/295/9 188/296/9
f 181/280/9 182/283/9 203/282/9 204/297/9 186/298/9 187/281/9
f 179/274/9 180/273/9 205/299/9 202/300/9 193/301/9 194/302/9
f 129/303/9 171/304/9 200/305/9 185/306/9 173/307/9 172/308/9
f 150/262/2 148/229/2 197/279/2 178/277/2
f 134/240/2 128/259/2 182/283/2 181/280/2
f 153/239/4 136/238/4 185/306/4 200/305/4
f 135/260/2 156/233/2 184/285/2 183/284/2
f 152/222/17 142/265/17 191/294/17 176/293/17
f 136/238/3 123/237/3 173/307/3 185/306/3
f 151/228/6 154/227/6 201/290/6 198/278/6
f 139/242/4 147/241/4 187/281/4 186/298/4
f 154/227/18 149/264/18 199/276/18 201/290/18
f 155/254/2 143/253/2 193/301/2 202/300/2
f 137/225/1 124/224/1 174/291/1 188/296/1
f 133/258/19 155/254/19 202/300/19 205/299/19
f 156/233/1 145/232/1 195/286/1 184/285/1
f 141/230/17 158/261/17 189/289/17 190/288/17
f 125/226/2 137/225/2 188/296/2 192/295/2
f 121/256/20 122/255/20 171/304/20 129/303/20
f 127/249/20 157/243/20 204/297/20 203/282/20
f 142/265/21 125/226/21 192/295/21 191/294/21
f 138/236/16 121/256/16 129/303/16 172/308/16
f 123/237/2 138/236/2 172/308/2 173/307/2
f 157/243/5 139/242/5 186/298/5 204/297/5
f 143/253/22 144/252/22 194/302/22 193/301/22
f 131/250/23 133/258/23 205/299/23 180/273/23
f 124/224/6 126/223/6 175/292/6 174/291/6
f 158/261/21 135/260/21 183/284/21 189/289/21
f 144/252/24 132/251/24 179/274/24 194/302/24
f 122/255/5 153/239/5 200/305/5 171/304/5
f 126/223/5 152/222/5 176/293/5 175/292/5
f 145/232/6 146/231/6 196/287/6 195/286/6
f 146/231/5 141/230/5 190/288/5 196/287/5
l 141 140
