# Blender v2.81 (sub 16) OBJ File: 'Low Poly assets.blend'
# www.blender.org
mtllib Silencer.mtl
o Silencer_Cylinder.009
v -0.000000 0.006990 -0.100736
v -0.000000 0.004785 0.106940
v 0.006302 0.003352 -0.100736
v 0.004393 0.002249 0.106940
v 0.006302 -0.003926 -0.100736
v 0.004393 -0.002823 0.106940
v -0.000000 -0.007564 -0.100736
v -0.000000 -0.005359 0.106940
v -0.006302 -0.003926 -0.100736
v -0.004393 -0.002823 0.106940
v -0.006302 0.003352 -0.100736
v -0.004393 0.002249 0.106940
v -0.000000 0.019397 -0.100736
v 0.017047 0.009555 -0.100736
v 0.017047 -0.010129 -0.100736
v -0.000000 -0.019971 -0.100736
v -0.017047 -0.010129 -0.100736
v -0.017047 0.009555 -0.100736
v -0.000000 0.006990 -0.122374
v 0.006302 0.003352 -0.122374
v 0.006302 -0.003926 -0.122374
v -0.000000 -0.007564 -0.122374
v -0.006302 -0.003926 -0.122374
v -0.006302 0.003352 -0.122374
v 0.017047 0.009555 0.106940
v -0.000000 0.019397 0.106940
v 0.017047 -0.010129 0.106940
v -0.000000 -0.019971 0.106940
v -0.017047 -0.010129 0.106940
v -0.017047 0.009555 0.106940
v -0.000000 0.004785 -0.018122
v 0.004393 0.002249 -0.018122
v 0.004393 -0.002823 -0.018122
v -0.000000 -0.005359 -0.018122
v -0.004393 -0.002823 -0.018122
v -0.004393 0.002249 -0.018122
v -0.001357 0.015055 -0.099912
v -0.001357 0.017769 -0.099912
v -0.001357 0.015055 -0.102625
v -0.001357 0.017769 -0.102625
v 0.001357 0.015055 -0.099912
v 0.001357 0.017769 -0.099912
v 0.001357 0.015055 -0.102625
v 0.001357 0.017769 -0.102625
vt 1.000000 0.500000
vt 1.000000 1.000000
vt 0.833333 1.000000
vt 0.833333 0.500000
vt 0.666667 1.000000
vt 0.666667 0.500000
vt 0.500000 1.000000
vt 0.500000 0.500000
vt 0.333333 1.000000
vt 0.333333 0.500000
vt 0.303559 0.280922
vt 0.250000 0.311845
vt 0.250000 0.311845
vt 0.303559 0.280922
vt 0.166667 1.000000
vt 0.166667 0.500000
vt -0.000000 1.000000
vt -0.000000 0.500000
vt 0.872193 0.179452
vt 0.750000 0.108903
vt 0.750000 0.108903
vt 0.872193 0.179452
vt 0.872193 0.320548
vt 0.750000 0.391097
vt 0.750000 0.490000
vt 0.957846 0.370000
vt 0.957846 0.130000
vt 0.750000 0.010000
vt 0.627807 0.179452
vt 0.542154 0.130000
vt 0.627807 0.320548
vt 0.542154 0.370000
vt 0.750000 0.391097
vt 0.872193 0.320548
vt 0.627807 0.179452
vt 0.627807 0.320548
vt 0.457846 0.370000
vt 0.250000 0.490000
vt 0.303559 0.219078
vt 0.457846 0.130000
vt 0.250000 0.188155
vt 0.250000 0.010000
vt 0.196441 0.219078
vt 0.042154 0.130000
vt 0.196441 0.280922
vt 0.042154 0.370000
vt 0.196441 0.280922
vt 0.196441 0.219078
vt 0.250000 0.188155
vt 0.303559 0.219078
vt 0.375000 0.000000
vt 0.625000 0.000000
vt 0.625000 0.250000
vt 0.375000 0.250000
vt 0.625000 0.500000
vt 0.375000 0.500000
vt 0.625000 0.750000
vt 0.375000 0.750000
vt 0.125000 0.500000
vt 0.125000 0.750000
vt 0.875000 0.500000
vt 0.875000 0.750000
vn 0.5000 0.8660 -0.0000
vn 1.0000 0.0000 0.0000
vn 0.5000 -0.8660 0.0000
vn -0.5000 -0.8660 0.0000
vn -1.0000 0.0000 0.0000
vn -0.5000 0.8660 -0.0000
vn 0.0000 0.0000 -1.0000
vn -0.0000 0.0000 1.0000
vn 0.0000 -1.0000 0.0000
vn 0.0000 1.0000 0.0000
usemtl Dark_Gray
s off
f 13/1/1 26/2/1 25/3/1 14/4/1
f 14/4/2 25/3/2 27/5/2 15/6/2
f 15/6/3 27/5/3 28/7/3 16/8/3
f 16/8/4 28/7/4 29/9/4 17/10/4
f 4/11/4 2/12/4 31/13/4 32/14/4
f 17/10/5 29/9/5 30/15/5 18/16/5
f 18/16/6 30/15/6 26/17/6 13/18/6
f 5/19/3 7/20/3 22/21/3 21/22/3
f 3/23/7 1/24/7 13/25/7 14/26/7
f 5/19/7 3/23/7 14/26/7 15/27/7
f 7/20/7 5/19/7 15/27/7 16/28/7
f 9/29/7 7/20/7 16/28/7 17/30/7
f 11/31/7 9/29/7 17/30/7 18/32/7
f 1/24/7 11/31/7 18/32/7 13/25/7
f 19/33/7 20/34/7 21/22/7 22/21/7 23/35/7 24/36/7
f 1/24/1 3/23/1 20/34/1 19/33/1
f 11/31/6 1/24/6 19/33/6 24/36/6
f 7/20/4 9/29/4 23/35/4 22/21/4
f 3/23/2 5/19/2 21/22/2 20/34/2
f 9/29/5 11/31/5 24/36/5 23/35/5
f 2/12/8 4/11/8 25/37/8 26/38/8
f 4/11/8 6/39/8 27/40/8 25/37/8
f 6/39/8 8/41/8 28/42/8 27/40/8
f 8/41/8 10/43/8 29/44/8 28/42/8
f 10/43/8 12/45/8 30/46/8 29/44/8
f 12/45/8 2/12/8 26/38/8 30/46/8
f 32/14/8 31/13/8 36/47/8 35/48/8 34/49/8 33/50/8
f 2/12/3 12/45/3 36/47/3 31/13/3
f 10/43/1 8/41/1 34/49/1 35/48/1
f 6/39/5 4/11/5 32/14/5 33/50/5
f 12/45/2 10/43/2 35/48/2 36/47/2
f 8/41/6 6/39/6 33/50/6 34/49/6
f 37/51/5 38/52/5 40/53/5 39/54/5
f 39/54/7 40/53/7 44/55/7 43/56/7
f 43/56/2 44/55/2 42/57/2 41/58/2
f 39/59/9 43/56/9 41/58/9 37/60/9
f 44/55/10 40/61/10 38/62/10 42/57/10
