# Blender v2.81 (sub 16) OBJ File: 'Low Poly assets.blend'
# www.blender.org
mtllib Vertical_Grip.mtl
o Vertical_Grip_Cube.041
v -0.017473 -0.046387 0.017473
v -0.017473 0.051501 0.017473
v -0.017473 -0.046387 -0.017473
v -0.017473 0.051501 -0.017473
v 0.017473 -0.046387 0.017473
v 0.017473 0.051501 0.017473
v 0.017473 -0.046387 -0.017473
v 0.017473 0.051501 -0.017473
v -0.012814 0.025885 0.012814
v -0.012814 0.025885 -0.012814
v 0.012814 0.025885 -0.012814
v 0.012814 0.025885 0.012814
vt 0.559579 0.000000
vt 0.625000 0.000000
vt 0.625000 0.250000
vt 0.559579 0.250000
vt 0.625000 0.500000
vt 0.559579 0.500000
vt 0.625000 0.750000
vt 0.559579 0.750000
vt 0.625000 1.000000
vt 0.559579 1.000000
vt 0.125000 0.500000
vt 0.375000 0.500000
vt 0.375000 0.750000
vt 0.125000 0.750000
vt 0.875000 0.500000
vt 0.875000 0.750000
vt 0.375000 1.000000
vt 0.375000 0.250000
vt 0.375000 0.000000
vn -0.9839 -0.1789 -0.0000
vn 0.0000 -0.1789 -0.9839
vn 0.9839 -0.1789 0.0000
vn 0.0000 -0.1789 0.9839
vn 0.0000 -1.0000 0.0000
vn 0.0000 1.0000 0.0000
vn -0.0000 0.0643 0.9979
vn 0.9979 0.0643 0.0000
vn 0.0000 0.0643 -0.9979
vn -0.9979 0.0643 0.0000
usemtl Dark_Gray
s off
f 9/1/1 2/2/1 4/3/1 10/4/1
f 10/4/2 4/3/2 8/5/2 11/6/2
f 11/6/3 8/5/3 6/7/3 12/8/3
f 12/8/4 6/7/4 2/9/4 9/10/4
f 3/11/5 7/12/5 5/13/5 1/14/5
f 8/5/6 4/15/6 2/16/6 6/7/6
f 5/13/7 12/8/7 9/10/7 1/17/7
f 7/12/8 11/6/8 12/8/8 5/13/8
f 3/18/9 10/4/9 11/6/9 7/12/9
f 1/19/10 9/1/10 10/4/10 3/18/10
