# Blender v2.81 (sub 16) OBJ File: 'Low Poly assets.blend'
# www.blender.org
mtllib Dynamite_Big.mtl
o Dynamite_Big_Cylinder.001
v -0.002144 -0.097654 -0.014869
v -0.013612 0.103563 -0.012631
v -0.007042 -0.097654 -0.001313
v -0.014384 0.103563 -0.010494
v -0.021230 -0.097654 0.001224
v -0.016620 0.103563 -0.010094
v -0.030521 -0.097654 -0.009796
v -0.018085 0.103563 -0.011831
v -0.025623 -0.097654 -0.023352
v -0.017313 0.103563 -0.013968
v -0.011435 -0.097654 -0.025888
v -0.015076 0.103563 -0.014368
v -0.007042 0.103563 -0.001313
v -0.002144 0.103563 -0.014869
v -0.021230 0.103563 0.001224
v -0.030521 0.103563 -0.009796
v -0.025623 0.103563 -0.023352
v -0.011435 0.103563 -0.025888
v -0.006477 0.132984 -0.007209
v -0.002217 0.133296 -0.005576
v -0.005913 0.134863 -0.003569
v -0.006975 0.139433 -0.005470
v -0.006373 0.139046 -0.008067
v -0.002606 0.133648 -0.009285
v 0.002135 0.138945 -0.007303
v 0.003776 0.138559 -0.005240
v -0.000137 0.139380 0.000054
v -0.002174 0.139766 0.000490
v 0.006069 -0.097654 -0.002777
v 0.002462 0.103563 0.009313
v 0.015472 -0.097654 0.008147
v 0.003536 0.103563 0.010560
v 0.010713 -0.097654 0.021752
v 0.002992 0.103563 0.012113
v -0.003449 -0.097654 0.024433
v 0.001376 0.103563 0.012419
v -0.012852 -0.097654 0.013509
v 0.000302 0.103563 0.011172
v -0.008093 -0.097654 -0.000096
v 0.000846 0.103563 0.009619
v 0.015472 0.103563 0.008147
v 0.006069 0.103563 -0.002777
v 0.010713 0.103563 0.021752
v -0.003449 0.103563 0.024433
v -0.012852 0.103563 0.013509
v -0.008093 0.103563 -0.000096
v 0.002245 0.133473 -0.002565
v 0.026176 -0.097654 -0.016404
v 0.014405 0.103563 -0.014454
v 0.021393 -0.097654 -0.002807
v 0.013675 0.103563 -0.012378
v 0.007226 -0.097654 -0.000152
v 0.011512 0.103563 -0.011973
v -0.002157 -0.097654 -0.011093
v 0.010080 0.103563 -0.013643
v 0.002626 -0.097654 -0.024689
v 0.010810 0.103563 -0.015719
v 0.016793 -0.097654 -0.027345
v 0.012972 0.103563 -0.016124
v 0.021393 0.103563 -0.002807
v 0.026176 0.103563 -0.016404
v 0.007226 0.103563 -0.000152
v -0.002157 0.103563 -0.011093
v 0.002626 0.103563 -0.024689
v 0.016793 0.103563 -0.027345
v 0.017435 0.171834 0.007243
v 0.018492 0.170071 0.007011
v 0.016881 0.171862 0.004633
v 0.016630 0.172729 0.006054
v 0.018743 0.169204 0.005591
v 0.017938 0.170099 0.004402
v 0.049188 0.229549 -0.009983
v -0.011435 0.052256 -0.025888
v -0.011435 0.082604 -0.025888
v -0.025623 0.052256 -0.023352
v -0.025623 0.082604 -0.023352
v -0.030521 0.052256 -0.009796
v -0.030521 0.082604 -0.009796
v -0.021230 0.052256 0.001224
v -0.021230 0.082604 0.001224
v -0.007042 0.047338 -0.001313
v -0.007042 0.087522 -0.001313
v -0.002144 0.087522 -0.014869
v -0.002144 0.047338 -0.014869
v 0.006069 0.047338 -0.002777
v 0.006069 0.087522 -0.002777
v 0.015472 0.082604 0.008147
v 0.015472 0.052256 0.008147
v 0.010713 0.082604 0.021752
v 0.010713 0.052256 0.021752
v -0.003449 0.082604 0.024433
v -0.003449 0.052256 0.024433
v -0.012852 0.082604 0.013509
v -0.012852 0.052256 0.013509
v -0.008093 0.087522 -0.000096
v -0.008093 0.047338 -0.000096
v 0.026176 0.052256 -0.016404
v 0.026176 0.082604 -0.016404
v 0.021393 0.082604 -0.002807
v 0.021393 0.052256 -0.002807
v 0.007226 0.087522 -0.000152
v 0.007226 0.047338 -0.000152
v -0.002157 0.087522 -0.011093
v -0.002157 0.047338 -0.011093
v 0.002626 0.082604 -0.024689
v 0.002626 0.052256 -0.024689
v 0.016793 0.082604 -0.027345
v 0.016793 0.052256 -0.027345
v -0.031492 0.082604 -0.009950
v -0.026434 0.082604 -0.023952
v -0.026434 0.052256 -0.023952
v -0.011778 0.052256 -0.026572
v -0.031492 0.052256 -0.009950
v -0.011778 0.082604 -0.026572
v -0.021896 0.082604 0.001432
v -0.021896 0.052256 0.001432
v 0.016014 0.082604 0.008583
v 0.016014 0.052256 0.008583
v 0.011098 0.082604 0.022636
v 0.011098 0.052256 0.022636
v -0.003530 0.082604 0.025405
v -0.003530 0.052256 0.025405
v -0.013242 0.082604 0.014122
v -0.013242 0.052256 0.014122
v 0.027070 0.052256 -0.016776
v 0.027070 0.082604 -0.016776
v 0.022129 0.082604 -0.002732
v 0.022129 0.052256 -0.002732
v 0.002745 0.082604 -0.025334
v 0.002745 0.052256 -0.025334
v 0.017378 0.082604 -0.028077
v 0.017378 0.052256 -0.028077
v -0.011435 -0.075111 -0.025888
v -0.011435 -0.047762 -0.025888
v -0.025623 -0.075111 -0.023352
v -0.025623 -0.047762 -0.023352
v -0.030521 -0.075111 -0.009796
v -0.030521 -0.047762 -0.009796
v -0.021230 -0.075111 0.001224
v -0.021230 -0.047762 0.001224
v 0.015472 -0.047762 0.008147
v 0.015472 -0.075111 0.008147
v 0.010713 -0.047762 0.021752
v 0.010713 -0.075111 0.021752
v -0.003449 -0.047762 0.024433
v -0.003449 -0.075111 0.024433
v -0.012852 -0.047762 0.013509
v -0.012852 -0.075111 0.013509
v 0.026176 -0.075111 -0.016404
v 0.026176 -0.047762 -0.016404
v 0.021393 -0.047762 -0.002807
v 0.021393 -0.075111 -0.002807
v 0.002626 -0.047762 -0.024689
v 0.002626 -0.075111 -0.024689
v 0.016793 -0.047762 -0.027345
v 0.016793 -0.075111 -0.027345
v -0.031492 -0.047762 -0.009950
v -0.026434 -0.047762 -0.023952
v -0.026434 -0.075111 -0.023952
v -0.011778 -0.075111 -0.026572
v -0.031492 -0.075111 -0.009950
v -0.011778 -0.047762 -0.026572
v -0.021896 -0.047762 0.001432
v -0.021896 -0.075111 0.001432
v 0.016014 -0.047762 0.008583
v 0.016014 -0.075111 0.008583
v 0.011098 -0.047762 0.022636
v 0.011098 -0.075111 0.022636
v -0.003530 -0.047762 0.025405
v -0.003530 -0.075111 0.025405
v -0.013242 -0.047762 0.014122
v -0.013242 -0.075111 0.014122
v 0.027070 -0.075111 -0.016776
v 0.027070 -0.047762 -0.016776
v 0.022129 -0.047762 -0.002732
v 0.022129 -0.075111 -0.002732
v 0.002745 -0.047762 -0.025334
v 0.002745 -0.075111 -0.025334
v 0.017378 -0.047762 -0.028077
v 0.017378 -0.075111 -0.028077
vt 1.000000 0.833333
vt 1.000000 1.000000
vt 0.833333 1.000000
vt 0.833333 0.833333
vt 0.666667 1.000000
vt 0.666667 0.833333
vt 0.500000 1.000000
vt 0.500000 0.833333
vt 0.333333 1.000000
vt 0.333333 0.833333
vt 0.166667 1.000000
vt 0.166667 0.833333
vt -0.000000 1.000000
vt -0.000000 0.833333
vt 0.750000 0.490000
vt 0.957846 0.370000
vt 0.957846 0.130000
vt 0.750000 0.010000
vt 0.542154 0.130000
vt 0.542154 0.370000
vt 0.250000 0.332681
vt 0.321604 0.291341
vt 0.457846 0.370000
vt 0.250000 0.490000
vt 0.321604 0.208660
vt 0.457846 0.130000
vt 0.250000 0.167319
vt 0.250000 0.010000
vt 0.178396 0.208659
vt 0.042154 0.130000
vt 0.178396 0.291341
vt 0.042154 0.370000
vt 1.000000 0.833333
vt 1.000000 1.000000
vt 0.833333 1.000000
vt 0.833333 0.833333
vt 0.666667 1.000000
vt 0.666667 0.833333
vt 0.500000 1.000000
vt 0.500000 0.833333
vt 0.333333 1.000000
vt 0.333333 0.833333
vt 0.166667 1.000000
vt 0.166667 0.833333
vt -0.000000 1.000000
vt -0.000000 0.833333
vt 0.750000 0.490000
vt 0.957846 0.370000
vt 0.957846 0.130000
vt 0.750000 0.010000
vt 0.542154 0.130000
vt 0.542154 0.370000
vt 0.250000 0.332681
vt 0.321604 0.291341
vt 0.457846 0.370000
vt 0.250000 0.490000
vt 0.321604 0.208660
vt 0.457846 0.130000
vt 0.250000 0.167319
vt 0.250000 0.010000
vt 0.178396 0.208659
vt 0.042154 0.130000
vt 0.178396 0.291341
vt 0.042154 0.370000
vt 1.000000 0.833333
vt 1.000000 1.000000
vt 0.833333 1.000000
vt 0.833333 0.833333
vt 0.666667 1.000000
vt 0.666667 0.833333
vt 0.500000 1.000000
vt 0.500000 0.833333
vt 0.333333 1.000000
vt 0.333333 0.833333
vt 0.166667 1.000000
vt 0.166667 0.833333
vt -0.000000 1.000000
vt -0.000000 0.833333
vt 0.750000 0.490000
vt 0.957846 0.370000
vt 0.957846 0.130000
vt 0.750000 0.010000
vt 0.542154 0.130000
vt 0.542154 0.370000
vt 0.250000 0.332681
vt 0.321604 0.291341
vt 0.457846 0.370000
vt 0.250000 0.490000
vt 0.321604 0.208660
vt 0.457846 0.130000
vt 0.250000 0.167319
vt 0.250000 0.010000
vt 0.178396 0.208659
vt 0.042154 0.130000
vt 0.178396 0.291341
vt 0.042154 0.370000
vt 0.666667 0.500000
vt 0.666667 0.666667
vt 0.500000 0.666667
vt 0.500000 0.500000
vt 0.333333 0.500000
vt 0.333333 0.666667
vt 0.166667 0.666667
vt 0.166667 0.500000
vt -0.000000 0.666667
vt -0.000000 0.500000
vt 0.833333 0.500000
vt 0.833333 0.666667
vt 1.000000 0.500000
vt 1.000000 0.666667
vt 0.166667 0.500000
vt 0.166667 0.666667
vt -0.000000 0.666667
vt -0.000000 0.500000
vt 0.333333 0.500000
vt 0.333333 0.666667
vt 0.500000 0.500000
vt 0.500000 0.666667
vt 0.666667 0.500000
vt 0.666667 0.666667
vt 0.833333 0.500000
vt 0.833333 0.666667
vt 1.000000 0.500000
vt 1.000000 0.666667
vt 0.166667 0.500000
vt 0.166667 0.666667
vt -0.000000 0.666667
vt -0.000000 0.500000
vt 0.333333 0.500000
vt 0.333333 0.666667
vt 0.500000 0.500000
vt 0.500000 0.666667
vt 0.666667 0.500000
vt 0.666667 0.666667
vt 0.833333 0.500000
vt 0.833333 0.666667
vt 1.000000 0.500000
vt 1.000000 0.666667
vt 0.178396 0.208659
vt 0.178396 0.291341
vt 0.321604 0.208660
vt 0.250000 0.167319
vt 0.250000 0.332681
vt 0.321604 0.291341
vt 0.178396 0.208659
vt 0.178396 0.291341
vt 0.321604 0.208660
vt 0.250000 0.167319
vt 0.321604 0.291341
vt 0.178396 0.208659
vt 0.178396 0.291341
vt 0.321604 0.291341
vt 0.250000 0.332681
vt 0.250000 0.332681
vt 0.321604 0.291341
vt 0.321604 0.208660
vt 0.250000 0.167319
vt 0.321604 0.208660
vt 0.321604 0.208660
vt 0.250000 0.167319
vt 0.178396 0.208659
vt 0.178396 0.291341
vt 0.321604 0.208660
vt 0.250000 0.332681
vt 0.321604 0.291341
vt 0.250000 0.167319
vt 0.178396 0.291341
vt 0.178396 0.208659
vt 0.833333 0.833333
vt 1.000000 0.833333
vt 0.500000 0.833333
vt 0.666667 0.833333
vt 0.333333 0.833333
vt 0.500000 0.833333
vt 0.166667 0.833333
vt 0.333333 0.833333
vt 0.166667 0.833333
vt 0.333333 0.833333
vt 0.333333 0.666667
vt 0.166667 0.666667
vt 1.000000 0.666667
vt 0.833333 0.666667
vt 0.666667 0.666667
vt 0.500000 0.666667
vt 0.500000 0.666667
vt 0.333333 0.666667
vt 0.000000 0.000000
vt 0.000000 0.000000
vt 0.000000 0.000000
vt 0.000000 0.000000
vt 0.333333 0.666667
vt 0.166667 0.666667
vt 0.666667 0.666667
vt 0.666667 0.833333
vt 0.833333 0.666667
vt 0.833333 0.833333
vt -0.000000 0.833333
vt -0.000000 0.666667
vt 0.000000 0.000000
vt 0.000000 0.000000
vt 0.000000 0.000000
vt 0.000000 0.000000
vt 0.000000 0.000000
vt 0.000000 0.000000
vt 0.000000 0.000000
vt 0.000000 0.000000
vt 0.000000 0.000000
vt 0.000000 0.000000
vt 0.000000 0.000000
vt 0.000000 0.000000
vt 0.000000 0.000000
vt 0.000000 0.000000
vt 0.000000 0.000000
vt 0.000000 0.000000
vt 0.000000 0.000000
vt 0.000000 0.000000
vt 0.000000 0.000000
vt 0.000000 0.000000
vt 1.000000 0.833333
vt 0.833333 0.833333
vt 0.833333 0.833333
vt 1.000000 0.833333
vt 0.666667 0.833333
vt 0.500000 0.833333
vt 0.500000 0.833333
vt 0.666667 0.833333
vt 0.500000 0.833333
vt 0.333333 0.833333
vt 0.333333 0.833333
vt 0.500000 0.833333
vt 0.333333 0.833333
vt 0.166667 0.833333
vt 0.166667 0.833333
vt 0.333333 0.833333
vt 0.333333 0.833333
vt 0.166667 0.833333
vt 0.166667 0.833333
vt 0.333333 0.833333
vt 0.166667 0.666667
vt 0.333333 0.666667
vt 0.333333 0.666667
vt 0.166667 0.666667
vt 0.833333 0.666667
vt 1.000000 0.666667
vt 1.000000 0.666667
vt 0.833333 0.666667
vt 0.500000 0.666667
vt 0.666667 0.666667
vt 0.666667 0.666667
vt 0.500000 0.666667
vt 0.333333 0.666667
vt 0.500000 0.666667
vt 0.500000 0.666667
vt 0.333333 0.666667
vt 0.000000 0.000000
vt 0.000000 0.000000
vt 0.000000 0.000000
vt 0.000000 0.000000
vt 0.166667 0.666667
vt 0.333333 0.666667
vt 0.333333 0.666667
vt 0.166667 0.666667
vt 0.666667 0.666667
vt 0.666667 0.833333
vt 0.833333 0.666667
vt 0.833333 0.833333
vt -0.000000 0.833333
vt -0.000000 0.666667
vt 0.666667 0.666667
vt 0.000000 0.000000
vt 0.000000 0.000000
vt 0.000000 0.000000
vt 0.000000 0.000000
vt 0.666667 0.833333
vt 0.000000 0.000000
vt 0.000000 0.000000
vt 0.000000 0.000000
vt 0.000000 0.000000
vt 0.833333 0.666667
vt 0.000000 0.000000
vt 0.000000 0.000000
vt 0.000000 0.000000
vt 0.000000 0.000000
vt 0.833333 0.833333
vt -0.000000 0.666667
vt 0.000000 0.000000
vt 0.000000 0.000000
vt 0.000000 0.000000
vt 0.000000 0.000000
vt -0.000000 0.833333
vt 0.000000 0.000000
vt 0.000000 0.000000
vt 0.000000 0.000000
vt 0.000000 0.000000
vn 0.9405 0.0000 0.3398
vn 0.1760 0.0000 0.9844
vn -0.7645 0.0000 0.6446
vn -0.9405 0.0000 -0.3398
vn -0.1760 0.0000 -0.9844
vn 0.7645 0.0000 -0.6446
vn 0.0000 -1.0000 -0.0000
vn 0.0000 1.0000 0.0000
vn 0.7579 0.0000 -0.6524
vn 0.9439 0.0000 0.3302
vn 0.1860 0.0000 0.9825
vn -0.7579 0.0000 0.6524
vn -0.9439 0.0000 -0.3302
vn -0.1860 0.0000 -0.9825
vn 0.9433 -0.0000 0.3319
vn 0.1843 -0.0000 0.9829
vn -0.7591 0.0000 0.6510
vn -0.9433 0.0000 -0.3319
vn -0.1843 0.0000 -0.9829
vn 0.7591 0.0000 -0.6510
vn -0.0879 0.1950 -0.9768
vn -0.7427 0.1147 0.6598
vn 0.1101 -0.2059 0.9724
vn 0.8993 -0.2928 -0.3249
vn -0.8998 0.3276 -0.2880
vn 0.8097 -0.3269 0.4874
vn -0.6710 -0.4062 -0.6203
vn 0.2212 0.3266 0.9189
vn 0.7347 -0.2458 -0.6324
vn 0.3876 -0.3633 -0.8472
vn -0.7892 0.1235 0.6016
vn 0.9122 0.1986 0.3583
vn 0.0375 0.2399 -0.9701
vn 0.6616 -0.5193 0.5409
vn -0.5588 -0.4128 0.7193
vn 0.9252 0.1953 0.3255
vn 0.7357 0.3698 -0.5675
vn -0.9226 -0.3778 -0.0774
vn 0.6443 -0.0047 0.7648
vn 0.0436 -0.2385 0.9702
vn -0.7020 0.6236 -0.3439
vn 0.7611 -0.1487 -0.6313
vn -0.7340 0.3174 0.6005
vn 0.1103 0.2948 -0.9492
vn -0.1160 -0.8751 0.4698
vn 0.3487 0.0867 0.9332
vn 0.5397 -0.4551 -0.7083
vn 0.8663 -0.3434 0.3629
vn -0.5048 0.4898 0.7108
vn -0.3141 -0.0641 -0.9472
vn -0.8449 0.3770 -0.3796
vn -0.8262 0.0000 0.5634
vn 0.0850 0.0000 -0.9964
vn 0.8797 0.0000 0.4755
vn 0.8262 0.0000 -0.5634
vn -0.0850 0.0000 0.9964
vn -0.8797 0.0000 -0.4755
vn 0.0892 0.2781 -0.9564
vn -0.7785 0.0782 0.6227
vn 0.8073 0.0654 0.5865
usemtl Red
s off
f 83/1/1 14/2/1 13/3/1 82/4/1
f 82/4/2 13/3/2 15/5/2 80/6/2
f 80/6/3 15/5/3 16/7/3 78/8/3
f 78/8/4 16/7/4 17/9/4 76/10/4
f 76/10/5 17/9/5 18/11/5 74/12/5
f 74/12/6 18/11/6 14/13/6 83/14/6
f 1/15/7 3/16/7 5/17/7 7/18/7 9/19/7 11/20/7
f 2/21/8 4/22/8 13/23/8 14/24/8
f 4/22/8 6/25/8 15/26/8 13/23/8
f 6/25/8 8/27/8 16/28/8 15/26/8
f 8/27/8 10/29/8 17/30/8 16/28/8
f 10/29/8 12/31/8 18/32/8 17/30/8
f 12/31/8 2/21/8 14/24/8 18/32/8
f 86/33/9 42/34/9 41/35/9 87/36/9
f 87/36/10 41/35/10 43/37/10 89/38/10
f 89/38/11 43/37/11 44/39/11 91/40/11
f 91/40/12 44/39/12 45/41/12 93/42/12
f 93/42/13 45/41/13 46/43/13 95/44/13
f 95/44/14 46/43/14 42/45/14 86/46/14
f 29/47/7 31/48/7 33/49/7 35/50/7 37/51/7 39/52/7
f 30/53/8 32/54/8 41/55/8 42/56/8
f 32/54/8 34/57/8 43/58/8 41/55/8
f 34/57/8 36/59/8 44/60/8 43/58/8
f 36/59/8 38/61/8 45/62/8 44/60/8
f 38/61/8 40/63/8 46/64/8 45/62/8
f 40/63/8 30/53/8 42/56/8 46/64/8
f 98/65/15 61/66/15 60/67/15 99/68/15
f 99/68/16 60/67/16 62/69/16 101/70/16
f 101/70/17 62/69/17 63/71/17 103/72/17
f 103/72/18 63/71/18 64/73/18 105/74/18
f 105/74/19 64/73/19 65/75/19 107/76/19
f 107/76/20 65/75/20 61/77/20 98/78/20
f 48/79/7 50/80/7 52/81/7 54/82/7 56/83/7 58/84/7
f 49/85/8 51/86/8 60/87/8 61/88/8
f 51/86/8 53/89/8 62/90/8 60/87/8
f 53/89/8 55/91/8 63/92/8 62/90/8
f 55/91/8 57/93/8 64/94/8 63/92/8
f 57/93/8 59/95/8 65/96/8 64/94/8
f 59/95/8 49/85/8 61/88/8 65/96/8
f 5/97/3 79/98/3 77/99/3 7/100/3
f 9/101/5 75/102/5 73/103/5 11/104/5
f 73/103/6 74/12/6 83/14/6 84/105/6
f 7/100/4 77/99/4 75/102/4 9/101/4
f 11/104/6 73/103/6 84/105/6 1/106/6
f 3/107/2 81/108/2 79/98/2 5/97/2
f 81/108/2 82/4/2 80/6/2 79/98/2
f 1/109/1 84/110/1 81/108/1 3/107/1
f 39/111/14 96/112/14 85/113/14 29/114/14
f 37/115/13 94/116/13 96/112/13 39/111/13
f 94/116/13 93/42/13 95/44/13 96/112/13
f 35/117/12 92/118/12 94/116/12 37/115/12
f 33/119/11 90/120/11 92/118/11 35/117/11
f 31/121/10 88/122/10 90/120/10 33/119/10
f 29/123/9 85/124/9 88/122/9 31/121/9
f 85/124/9 86/33/9 87/36/9 88/122/9
f 58/125/20 108/126/20 97/127/20 48/128/20
f 56/129/19 106/130/19 108/126/19 58/125/19
f 54/131/18 104/132/18 106/130/18 56/129/18
f 104/132/18 103/72/18 105/74/18 106/130/18
f 52/133/17 102/134/17 104/132/17 54/131/17
f 50/135/16 100/136/16 102/134/16 52/133/16
f 100/136/16 99/68/16 101/70/16 102/134/16
f 48/137/15 97/138/15 100/136/15 50/135/15
usemtl Black
f 12/31/21 10/29/21 23/139/21 24/140/21
f 8/27/22 6/25/22 21/141/22 22/142/22
f 4/22/23 2/21/23 20/143/23 19/144/23
f 2/21/24 12/31/24 24/140/24 20/143/24
f 10/29/25 8/27/25 22/142/25 23/139/25
f 6/25/26 4/22/26 19/144/26 21/141/26
f 40/63/27 38/61/27 21/145/27 20/146/27
f 36/59/28 34/57/28 27/147/28 28/148/28
f 32/54/29 30/53/29 47/149/29
f 30/53/30 40/63/30 20/146/30 47/149/30
f 38/61/31 36/59/31 28/148/31 21/145/31
f 34/57/32 32/54/32 47/149/32 27/147/32
f 59/95/33 57/93/33 24/150/33 25/151/33
f 27/152/34 26/153/34 70/154/34 67/155/34
f 55/91/35 53/89/35 47/156/35 20/157/35
f 51/86/36 49/85/36 26/153/36
f 49/85/37 59/95/37 25/151/37 26/153/37
f 57/93/38 55/91/38 20/157/38 24/150/38
f 53/89/39 51/86/39 26/153/39 47/156/39
f 28/158/40 27/152/40 67/155/40 66/159/40
f 23/139/41 22/142/41 69/160/41 68/161/41
f 26/153/42 25/151/42 71/162/42 70/154/42
f 22/142/43 28/158/43 66/159/43 69/160/43
f 25/151/44 23/139/44 68/161/44 71/162/44
f 19/144/45 20/146/45 21/141/45
f 66/159/46 67/155/46 72/163/46
f 70/154/47 71/162/47 72/164/47
f 67/155/48 70/154/48 72/165/48
f 69/160/49 66/159/49 72/166/49
f 71/162/50 68/161/50 72/167/50
f 68/161/51 69/160/51 72/168/51
f 98/65/8 99/68/8 127/169/8 126/170/8
f 80/6/8 78/8/8 109/171/8 115/172/8
f 91/40/8 93/42/8 123/173/8 121/174/8
f 84/110/1 83/1/1 82/4/1 81/108/1
f 96/112/14 95/44/14 86/46/14 85/113/14
f 105/74/8 107/76/8 131/175/8 129/176/8
f 76/10/8 74/12/8 114/177/8 110/178/8
f 73/103/7 75/102/7 111/179/7 112/180/7
f 100/136/7 97/138/7 125/181/7 128/182/7
f 77/99/7 79/98/7 116/183/7 113/184/7
f 102/134/17 101/70/17 103/72/17 104/132/17
f 94/116/7 92/118/7 122/185/7 124/186/7
f 88/187/7 100/188/7 128/189/7 118/190/7
f 108/126/7 106/130/7 130/191/7 132/192/7
f 78/8/8 76/10/8 110/178/8 109/171/8
f 111/179/5 110/178/5 114/177/5 112/180/5
f 113/184/4 109/171/4 110/178/4 111/179/4
f 116/183/3 115/172/3 109/171/3 113/184/3
f 122/185/12 121/174/12 123/173/12 124/186/12
f 120/193/11 119/194/11 121/174/11 122/185/11
f 118/195/10 117/196/10 119/194/10 120/193/10
f 132/192/20 131/175/20 126/197/20 125/198/20
f 130/191/19 129/176/19 131/175/19 132/192/19
f 125/181/15 126/170/15 127/169/15 128/182/15
f 124/186/52 123/173/52 115/172/52 116/183/52
f 114/177/53 129/176/53 130/191/53 112/180/53
f 118/195/54 128/182/54 127/169/54 117/196/54
f 75/102/7 77/99/7 113/184/7 111/179/7
f 92/118/7 90/120/7 120/193/7 122/185/7
f 93/199/8 80/200/8 115/201/8 123/202/8
f 89/38/8 91/40/8 121/174/8 119/194/8
f 79/203/7 94/204/7 124/205/7 116/206/7
f 90/120/7 88/122/7 118/195/7 120/193/7
f 74/207/8 105/208/8 129/209/8 114/210/8
f 87/36/8 89/38/8 119/194/8 117/196/8
f 97/127/7 108/126/7 132/192/7 125/198/7
f 106/211/7 73/212/7 112/213/7 130/214/7
f 107/76/8 98/78/8 126/197/8 131/175/8
f 99/215/8 87/216/8 117/217/8 127/218/8
f 79/203/55 80/200/55 93/42/55 94/204/55
f 73/212/56 106/211/56 105/74/56 74/207/56
f 88/187/57 87/216/57 99/68/57 100/188/57
f 150/219/8 151/220/8 175/221/8 174/222/8
f 140/223/8 138/224/8 157/225/8 163/226/8
f 145/227/8 147/228/8 171/229/8 169/230/8
f 153/231/8 155/232/8 179/233/8 177/234/8
f 136/235/8 134/236/8 162/237/8 158/238/8
f 133/239/7 135/240/7 159/241/7 160/242/7
f 152/243/7 149/244/7 173/245/7 176/246/7
f 137/247/7 139/248/7 164/249/7 161/250/7
f 148/251/7 146/252/7 170/253/7 172/254/7
f 142/255/7 152/256/7 176/257/7 166/258/7
f 156/259/7 154/260/7 178/261/7 180/262/7
f 138/224/8 136/235/8 158/238/8 157/225/8
f 159/241/5 158/238/5 162/237/5 160/242/5
f 161/250/4 157/225/4 158/238/4 159/241/4
f 164/249/3 163/226/3 157/225/3 161/250/3
f 170/253/12 169/230/12 171/229/12 172/254/12
f 168/263/11 167/264/11 169/230/11 170/253/11
f 166/265/10 165/266/10 167/264/10 168/263/10
f 180/262/20 179/233/20 174/267/20 173/268/20
f 178/261/19 177/234/19 179/233/19 180/262/19
f 173/245/15 174/222/15 175/221/15 176/246/15
f 172/254/52 171/229/52 163/226/52 164/249/52
f 162/237/53 177/234/53 178/261/53 160/242/53
f 166/265/54 176/246/54 175/221/54 165/266/54
f 135/240/7 137/247/7 161/250/7 159/241/7
f 146/252/7 144/269/7 168/263/7 170/253/7
f 147/270/8 140/271/8 163/272/8 171/273/8
f 143/274/8 145/227/8 169/230/8 167/264/8
f 139/275/7 148/276/7 172/277/7 164/278/7
f 144/269/7 142/279/7 166/265/7 168/263/7
f 134/280/8 153/281/8 177/282/8 162/283/8
f 141/284/8 143/274/8 167/264/8 165/266/8
f 149/285/7 156/259/7 180/262/7 173/268/7
f 154/286/7 133/287/7 160/288/7 178/289/7
f 155/232/8 150/290/8 174/267/8 179/233/8
f 151/291/8 141/292/8 165/293/8 175/294/8
f 153/281/56 134/280/56 133/287/56 154/286/56
f 147/270/55 148/276/55 139/275/55 140/271/55
f 151/291/57 152/256/57 142/255/57 141/292/57
f 24/150/58 23/139/58 25/151/58
f 22/142/59 21/145/59 28/158/59
f 26/153/60 27/147/60 47/156/60
