# Blender v2.81 (sub 16) OBJ File: 'Low Poly assets.blend'
# www.blender.org
mtllib M18_Claymore.mtl
o M18_Claymore_Cube.018
v -0.124932 -0.040231 0.014418
v -0.124932 0.074745 0.014418
v -0.124932 -0.040231 -0.031466
v -0.124932 0.074745 -0.031466
v 0.124932 -0.040231 0.014418
v 0.124932 0.074745 0.014418
v 0.124932 -0.040231 -0.031466
v 0.124932 0.074745 -0.031466
v 0.061288 -0.040231 -0.017431
v -0.061288 -0.040231 -0.017431
v -0.054589 0.074745 -0.010732
v 0.054589 0.074745 -0.010732
v -0.061288 -0.040231 0.028453
v 0.061288 -0.040231 0.028453
v 0.054589 0.074745 0.021754
v -0.054589 0.074745 0.021754
v -0.061288 0.074745 -0.017431
v 0.061288 0.074745 -0.017431
v 0.061288 0.074745 0.028453
v -0.061288 0.074745 0.028453
v -0.054589 0.097134 -0.010732
v 0.054589 0.097134 -0.010732
v 0.054589 0.097134 0.021754
v -0.054589 0.097134 0.021754
v -0.095101 -0.057489 0.012371
v -0.095101 -0.033223 0.012371
v -0.095101 -0.057489 -0.011895
v -0.095101 -0.033223 -0.011895
v -0.070835 -0.057489 0.012371
v -0.070835 -0.033223 0.012371
v -0.070835 -0.057489 -0.011895
v -0.070835 -0.033223 -0.011895
v -0.087620 -0.136818 0.071168
v -0.087620 -0.046669 0.008045
v -0.087620 -0.142155 0.063546
v -0.087620 -0.052006 0.000423
v -0.078316 -0.136818 0.071168
v -0.078316 -0.046669 0.008045
v -0.078316 -0.142155 0.063546
v -0.078316 -0.052006 0.000423
v -0.087620 -0.142155 -0.063214
v -0.087620 -0.052006 -0.000091
v -0.087620 -0.136818 -0.070836
v -0.087620 -0.046669 -0.007713
v -0.078316 -0.142155 -0.063214
v -0.078316 -0.052006 -0.000091
v -0.078316 -0.136818 -0.070836
v -0.078316 -0.046669 -0.007713
v 0.070045 -0.057489 0.012371
v 0.070045 -0.033223 0.012371
v 0.070045 -0.057489 -0.011895
v 0.070045 -0.033223 -0.011895
v 0.094311 -0.057489 0.012371
v 0.094311 -0.033223 0.012371
v 0.094311 -0.057489 -0.011895
v 0.094311 -0.033223 -0.011895
v 0.077526 -0.136818 0.071168
v 0.077526 -0.046669 0.008045
v 0.077526 -0.142155 0.063546
v 0.077526 -0.052006 0.000423
v 0.086830 -0.136818 0.071168
v 0.086830 -0.046669 0.008045
v 0.086830 -0.142155 0.063546
v 0.086830 -0.052006 0.000423
v 0.077526 -0.142155 -0.063214
v 0.077526 -0.052006 -0.000091
v 0.077526 -0.136818 -0.070836
v 0.077526 -0.046669 -0.007713
v 0.086830 -0.142155 -0.063214
v 0.086830 -0.052006 -0.000091
v 0.086830 -0.136818 -0.070836
v 0.086830 -0.046669 -0.007713
vt 0.375000 0.000000
vt 0.625000 0.000000
vt 0.625000 0.250000
vt 0.375000 0.250000
vt 0.375000 0.416667
vt 0.625000 0.416667
vt 0.625000 0.500000
vt 0.375000 0.500000
vt 0.625000 0.750000
vt 0.375000 0.750000
vt 0.375000 0.916667
vt 0.625000 0.916667
vt 0.625000 1.000000
vt 0.375000 1.000000
vt 0.291667 0.500000
vt 0.291667 0.750000
vt 0.791667 0.500000
vt 0.875000 0.500000
vt 0.875000 0.750000
vt 0.791667 0.750000
vt 0.708333 0.500000
vt 0.708333 0.750000
vt 0.125000 0.500000
vt 0.208333 0.500000
vt 0.208333 0.750000
vt 0.125000 0.750000
vt 0.625000 0.833333
vt 0.375000 0.833333
vt 0.625000 0.333333
vt 0.375000 0.333333
vt 0.783883 0.716728
vt 0.644951 0.781436
vt 0.644951 0.781436
vt 0.783883 0.716728
vt 0.785787 0.537827
vt 0.702046 0.547343
vt 0.785787 0.537827
vt 0.702046 0.547343
vt 0.375000 0.000000
vt 0.625000 0.000000
vt 0.625000 0.250000
vt 0.375000 0.250000
vt 0.625000 0.500000
vt 0.375000 0.500000
vt 0.625000 0.750000
vt 0.375000 0.750000
vt 0.625000 1.000000
vt 0.375000 1.000000
vt 0.125000 0.500000
vt 0.125000 0.750000
vt 0.375000 0.000000
vt 0.625000 0.000000
vt 0.625000 0.250000
vt 0.375000 0.250000
vt 0.625000 0.500000
vt 0.375000 0.500000
vt 0.625000 0.750000
vt 0.375000 0.750000
vt 0.625000 1.000000
vt 0.375000 1.000000
vt 0.125000 0.500000
vt 0.125000 0.750000
vt 0.375000 0.000000
vt 0.625000 0.000000
vt 0.625000 0.250000
vt 0.375000 0.250000
vt 0.625000 0.500000
vt 0.375000 0.500000
vt 0.625000 0.750000
vt 0.375000 0.750000
vt 0.625000 1.000000
vt 0.375000 1.000000
vt 0.125000 0.500000
vt 0.125000 0.750000
vt 0.375000 0.000000
vt 0.625000 0.000000
vt 0.625000 0.250000
vt 0.375000 0.250000
vt 0.625000 0.500000
vt 0.375000 0.500000
vt 0.625000 0.750000
vt 0.375000 0.750000
vt 0.625000 1.000000
vt 0.375000 1.000000
vt 0.125000 0.500000
vt 0.125000 0.750000
vt 0.375000 0.000000
vt 0.625000 0.000000
vt 0.625000 0.250000
vt 0.375000 0.250000
vt 0.625000 0.500000
vt 0.375000 0.500000
vt 0.625000 0.750000
vt 0.375000 0.750000
vt 0.625000 1.000000
vt 0.375000 1.000000
vt 0.125000 0.500000
vt 0.125000 0.750000
vt 0.375000 0.000000
vt 0.625000 0.000000
vt 0.625000 0.250000
vt 0.375000 0.250000
vt 0.625000 0.500000
vt 0.375000 0.500000
vt 0.625000 0.750000
vt 0.375000 0.750000
vt 0.625000 1.000000
vt 0.375000 1.000000
vt 0.125000 0.500000
vt 0.125000 0.750000
vn -1.0000 0.0000 0.0000
vn -0.2153 0.0000 -0.9765
vn 1.0000 0.0000 0.0000
vn -0.2153 -0.0000 0.9765
vn 0.0000 -1.0000 0.0000
vn 0.0000 1.0000 0.0000
vn 0.2153 0.0000 0.9765
vn 0.0000 0.0000 1.0000
vn 0.2153 -0.0000 -0.9765
vn 0.0000 0.0000 -1.0000
vn 0.0000 -0.5736 -0.8192
vn 0.0000 0.5736 0.8192
vn 0.0000 -0.8192 0.5736
vn 0.0000 0.5736 -0.8192
vn 0.0000 -0.5736 0.8192
vn 0.0000 -0.8192 -0.5736
usemtl Green_Military
s off
f 1/1/1 2/2/1 4/3/1 3/4/1
f 9/5/2 18/6/2 8/7/2 7/8/2
f 7/8/3 8/7/3 6/9/3 5/10/3
f 13/11/4 20/12/4 2/13/4 1/14/4
f 9/15/5 7/8/5 5/10/5 14/16/5
f 17/17/6 4/18/6 2/19/6 20/20/6
f 8/7/6 18/21/6 19/22/6 6/9/6
f 3/23/5 10/24/5 13/25/5 1/26/5
f 10/24/5 9/15/5 14/16/5 13/25/5
f 5/10/7 6/9/7 19/27/7 14/28/7
f 14/28/8 19/27/8 20/12/8 13/11/8
f 3/4/9 4/3/9 17/29/9 10/30/9
f 10/30/10 17/29/10 18/6/10 9/5/10
f 16/31/8 15/32/8 23/33/8 24/34/8
f 11/35/6 12/36/6 18/21/6 17/17/6
f 15/32/6 16/31/6 20/20/6 19/27/6
f 12/36/6 15/32/6 19/27/6 18/21/6
f 16/31/6 11/35/6 17/17/6 20/20/6
f 21/37/6 24/34/6 23/33/6 22/38/6
f 15/32/3 12/36/3 22/38/3 23/33/3
f 12/36/10 11/35/10 21/37/10 22/38/10
f 11/35/1 16/31/1 24/34/1 21/37/1
usemtl Gray
f 25/39/1 26/40/1 28/41/1 27/42/1
f 27/42/10 28/41/10 32/43/10 31/44/10
f 31/44/3 32/43/3 30/45/3 29/46/3
f 29/46/8 30/45/8 26/47/8 25/48/8
f 27/49/5 31/44/5 29/46/5 25/50/5
f 33/51/1 34/52/1 36/53/1 35/54/1
f 35/54/11 36/53/11 40/55/11 39/56/11
f 39/56/3 40/55/3 38/57/3 37/58/3
f 37/58/12 38/57/12 34/59/12 33/60/12
f 35/61/13 39/56/13 37/58/13 33/62/13
f 41/63/1 42/64/1 44/65/1 43/66/1
f 43/66/14 44/65/14 48/67/14 47/68/14
f 47/68/3 48/67/3 46/69/3 45/70/3
f 45/70/15 46/69/15 42/71/15 41/72/15
f 43/73/16 47/68/16 45/70/16 41/74/16
f 49/75/1 50/76/1 52/77/1 51/78/1
f 51/78/10 52/77/10 56/79/10 55/80/10
f 55/80/3 56/79/3 54/81/3 53/82/3
f 53/82/8 54/81/8 50/83/8 49/84/8
f 51/85/5 55/80/5 53/82/5 49/86/5
f 57/87/1 58/88/1 60/89/1 59/90/1
f 59/90/11 60/89/11 64/91/11 63/92/11
f 63/92/3 64/91/3 62/93/3 61/94/3
f 61/94/12 62/93/12 58/95/12 57/96/12
f 59/97/13 63/92/13 61/94/13 57/98/13
f 65/99/1 66/100/1 68/101/1 67/102/1
f 67/102/14 68/101/14 72/103/14 71/104/14
f 71/104/3 72/103/3 70/105/3 69/106/3
f 69/106/15 70/105/15 66/107/15 65/108/15
f 67/109/16 71/104/16 69/106/16 65/110/16
