# Blender v2.81 (sub 16) OBJ File: 'Low Poly assets.blend'
# www.blender.org
mtllib Molotov_Cocktail.mtl
o Molotov_Cocktail_Cylinder.002
v -0.000000 -0.061518 -0.024387
v -0.000000 0.043502 -0.024387
v 0.021120 -0.061518 -0.012194
v 0.021120 0.043502 -0.012194
v 0.021120 -0.061518 0.012194
v 0.021120 0.043502 0.012194
v -0.000000 -0.061518 0.024387
v -0.000000 0.043502 0.024387
v -0.021120 -0.061518 0.012194
v -0.021120 0.043502 0.012194
v -0.021120 -0.061518 -0.012194
v -0.021120 0.043502 -0.012194
v -0.000000 0.058592 -0.014010
v 0.012133 0.058592 -0.007005
v 0.012133 0.058592 0.007005
v -0.000000 0.058592 0.014010
v -0.012133 0.058592 0.007005
v -0.012133 0.058592 -0.007005
v -0.000000 0.097460 -0.008829
v 0.007647 0.097460 -0.004415
v 0.007647 0.097460 0.004415
v -0.000000 0.097460 0.008829
v -0.007647 0.097460 0.004415
v -0.007647 0.097460 -0.004415
v -0.000000 0.097460 -0.010252
v 0.008878 0.097460 -0.005126
v 0.008878 0.097460 0.005126
v -0.000000 0.097460 0.010252
v -0.008878 0.097460 0.005126
v -0.008878 0.097460 -0.005126
v -0.000000 0.112093 -0.006162
v 0.005337 0.112093 -0.003081
v 0.005337 0.112093 0.003081
v -0.000000 0.112093 0.006162
v -0.005337 0.112093 0.003081
v -0.005337 0.112093 -0.003081
v 0.007330 0.112093 -0.004232
v -0.000000 0.112093 -0.008464
v 0.007330 0.112093 0.004232
v -0.000000 0.112093 0.008464
v -0.007330 0.112093 0.004232
v -0.007330 0.112093 -0.004232
v -0.000000 0.071410 -0.006162
v 0.005337 0.071410 -0.003081
v -0.000000 0.071410 0.006162
v 0.005337 0.071410 0.003081
v -0.005337 0.071410 0.003081
v -0.005337 0.071410 -0.003081
v -0.000000 0.114466 -0.001669
v 0.004503 0.116257 0.000628
v 0.001009 0.120500 0.004156
v -0.002942 0.118969 0.004198
v -0.004965 0.116153 -0.001653
v -0.000000 0.115683 -0.009918
v 0.020897 0.115666 -0.002171
v 0.016343 0.120284 -0.012302
v -0.000000 0.121818 -0.013096
v -0.002992 0.120284 -0.012302
v -0.010134 0.117524 -0.010021
v -0.004038 0.099217 -0.019393
v 0.022702 0.097528 -0.017758
v 0.018148 0.099616 -0.029712
v 0.007484 0.095828 -0.034653
v -0.001736 0.100701 -0.027731
v -0.013069 0.099079 -0.026300
v -0.000089 0.072975 -0.019816
v 0.021869 0.073392 -0.011830
v 0.015504 0.079013 -0.029730
v 0.003903 0.074131 -0.030437
v -0.001038 0.075391 -0.027962
v -0.005042 0.068777 -0.025874
v 0.004914 0.060870 -0.028057
v 0.022850 0.059316 -0.024240
v 0.016654 0.054041 -0.037431
v 0.006761 0.069198 -0.036905
v -0.001755 0.064356 -0.035008
v -0.001038 0.054637 -0.032782
vt 1.000000 0.500000
vt 1.000000 1.000000
vt 0.833333 1.000000
vt 0.833333 0.500000
vt 0.666667 1.000000
vt 0.666667 0.500000
vt 0.500000 1.000000
vt 0.500000 0.500000
vt 0.333333 1.000000
vt 0.333333 0.500000
vt 0.833333 1.000000
vt 0.666667 1.000000
vt 0.166667 1.000000
vt 0.166667 0.500000
vt -0.000000 1.000000
vt -0.000000 0.500000
vt 0.750000 0.490000
vt 0.957846 0.370000
vt 0.957846 0.130000
vt 0.750000 0.010000
vt 0.542154 0.130000
vt 0.542154 0.370000
vt 0.333333 1.000000
vt 0.166667 1.000000
vt 1.000000 1.000000
vt 0.500000 1.000000
vt -0.000000 1.000000
vt 0.166667 1.000000
vt 0.333333 1.000000
vt 0.333333 1.000000
vt 0.166667 1.000000
vt -0.000000 1.000000
vt 0.166667 1.000000
vt -0.000000 1.000000
vt 0.500000 1.000000
vt 0.666667 1.000000
vt 0.666667 1.000000
vt 0.500000 1.000000
vt 0.833333 1.000000
vt 1.000000 1.000000
vt 1.000000 1.000000
vt 0.833333 1.000000
vt -0.000000 1.000000
vt 0.098673 0.337369
vt 0.098673 0.162631
vt 0.098673 0.162631
vt 0.098673 0.337369
vt 0.500000 1.000000
vt 0.333333 1.000000
vt 0.833333 1.000000
vt 0.666667 1.000000
vt 1.000000 1.000000
vt 0.250000 0.424738
vt 0.401327 0.337369
vt 0.457846 0.370000
vt 0.250000 0.490000
vt 0.401327 0.162631
vt 0.457846 0.130000
vt 0.250000 0.075262
vt 0.250000 0.010000
vt 0.042154 0.130000
vt 0.042154 0.370000
vt 0.401327 0.162631
vt 0.250000 0.075262
vt 0.250000 0.424738
vt 0.401327 0.337369
vt 0.248741 0.097910
vt 0.382712 0.172133
vt 0.250000 0.152042
vt 0.258529 0.120044
vt 0.334834 0.298979
vt 0.334834 0.298979
vt 0.334834 0.201021
vt 0.378616 0.340509
vt 0.250631 0.400017
vt 0.250000 0.347958
vt 0.121276 0.335796
vt 0.165166 0.298979
vt 0.118812 0.167657
vt 0.165166 0.201021
vt 0.250000 0.347958
vt 0.250000 0.347958
vt 0.334834 0.298979
vt 0.165166 0.201021
vt 0.165166 0.298979
vt 0.250000 0.152042
vt 0.165166 0.298979
vt 0.165166 0.201021
vt 0.165166 0.201021
vt 0.165166 0.298979
vt 0.250000 0.152042
vt 0.334834 0.201021
vt 0.250000 0.347958
vt 0.165166 0.298979
vt 0.250000 0.347958
vt 0.334834 0.201021
vt 0.250000 0.152042
vt 0.334834 0.298979
vt 0.334834 0.298979
vt 0.165166 0.201021
vt 0.250000 0.152042
vt 0.334834 0.201021
vn 0.5000 0.0000 -0.8660
vn 1.0000 0.0000 0.0000
vn 0.5000 0.0000 0.8660
vn -0.5000 0.0000 0.8660
vn 0.8592 0.5117 0.0000
vn -1.0000 0.0000 0.0000
vn -0.5000 0.0000 -0.8660
vn 0.0000 -1.0000 0.0000
vn -0.8592 0.5117 0.0000
vn 0.4296 0.5117 -0.7441
vn 0.4296 0.5117 0.7441
vn -0.4296 0.5117 -0.7441
vn -0.4296 0.5117 0.7441
vn -0.4972 0.1052 -0.8612
vn -0.4972 0.1052 0.8612
vn 0.9944 0.1052 0.0000
vn -0.9944 0.1052 0.0000
vn 0.4972 0.1052 0.8612
vn 0.4972 0.1052 -0.8612
vn 0.0000 1.0000 -0.0000
vn 0.4998 0.0251 0.8658
vn 0.3598 0.7452 0.5615
vn 0.4656 0.0866 -0.8808
vn -0.2774 0.0658 -0.9585
vn -0.3138 0.0198 0.9493
vn 0.9450 0.0354 0.3252
vn -0.9868 0.0252 0.1602
vn -0.1784 -0.5696 0.8023
vn -0.5657 0.7987 0.2050
vn 0.0898 0.9935 0.0706
vn 0.0580 -0.9979 0.0295
vn -0.2264 -0.9707 -0.0807
vn -0.3939 0.9153 0.0838
vn -0.2053 -0.0356 -0.9781
vn -0.3344 -0.5153 0.7891
vn -0.3301 0.5559 -0.7629
vn 0.9062 0.3196 -0.2767
vn -0.2933 0.6198 -0.7279
vn 0.1056 0.6497 -0.7528
vn -0.2613 -0.5482 0.7945
vn 0.2934 -0.1371 -0.9461
vn -0.1905 0.0950 0.9771
vn -0.6501 -0.1377 0.7473
vn -0.5632 -0.0355 -0.8256
vn 0.9219 -0.1203 -0.3683
vn -0.2232 -0.9223 -0.3156
vn -0.3871 0.5649 -0.7287
vn 0.9020 0.2356 -0.3618
vn -0.9232 0.0869 -0.3743
vn 0.2184 0.4416 -0.8702
vn -0.2358 -0.6345 0.7361
vn -0.4967 0.1147 -0.8603
vn -0.4967 0.1147 0.8603
vn 0.9934 0.1147 0.0000
vn -0.9934 0.1147 0.0000
vn 0.4967 0.1147 0.8603
vn 0.4967 0.1147 -0.8603
usemtl Dark_Green
s off
f 1/1/1 2/2/1 4/3/1 3/4/1
f 3/4/2 4/3/2 6/5/2 5/6/2
f 5/6/3 6/5/3 8/7/3 7/8/3
f 7/8/4 8/7/4 10/9/4 9/10/4
f 6/5/5 4/3/5 14/11/5 15/12/5
f 9/10/6 10/9/6 12/13/6 11/14/6
f 11/14/7 12/13/7 2/15/7 1/16/7
f 1/17/8 3/18/8 5/19/8 7/20/8 9/21/8 11/22/8
f 12/13/9 10/9/9 17/23/9 18/24/9
f 4/3/10 2/2/10 13/25/10 14/11/10
f 8/7/11 6/5/11 15/12/11 16/26/11
f 2/15/12 12/13/12 18/24/12 13/27/12
f 10/9/13 8/7/13 16/26/13 17/23/13
f 24/28/8 23/29/8 29/30/8 30/31/8
f 25/32/14 30/31/14 42/33/14 38/34/14
f 22/35/8 21/36/8 27/37/8 28/38/8
f 20/39/8 19/40/8 25/41/8 26/42/8
f 19/43/8 24/28/8 30/31/8 25/32/8
f 23/29/8 22/35/8 28/38/8 29/30/8
f 21/36/8 20/39/8 26/42/8 27/37/8
f 36/44/2 35/45/2 47/46/2 48/47/2
f 29/30/15 28/38/15 40/48/15 41/49/15
f 27/37/16 26/42/16 37/50/16 39/51/16
f 30/31/17 29/30/17 41/49/17 42/33/17
f 28/38/18 27/37/18 39/51/18 40/48/18
f 26/42/19 25/41/19 38/52/19 37/50/19
f 31/53/20 32/54/20 37/55/20 38/56/20
f 32/54/20 33/57/20 39/58/20 37/55/20
f 33/57/20 34/59/20 40/60/20 39/58/20
f 34/59/20 35/45/20 41/61/20 40/60/20
f 35/45/20 36/44/20 42/62/20 41/61/20
f 36/44/20 31/53/20 38/56/20 42/62/20
f 34/59/7 33/57/7 46/63/7 45/64/7
f 32/54/4 31/53/4 43/65/4 44/66/4
f 31/53/3 36/44/3 48/47/3 43/65/3
f 35/45/1 34/59/1 45/64/1 47/46/1
f 33/57/6 32/54/6 44/66/6 46/63/6
usemtl Cream
f 45/67/21 46/68/21 51/69/21
f 51/70/22 50/71/22 55/72/22 56/73/22
f 44/74/23 43/75/23 49/76/23 50/71/23
f 43/75/24 48/77/24 53/78/24 49/76/24
f 47/79/25 45/67/25 51/69/25 52/80/25
f 46/68/26 44/74/26 50/71/26 51/70/26
f 48/77/27 47/79/27 52/80/27 53/78/27
f 55/72/28 54/81/28 60/82/28 61/83/28
f 53/78/29 52/80/29 58/84/29 59/85/29
f 51/70/30 56/73/30 57/86/30
f 50/71/31 49/76/31 54/81/31 55/72/31
f 49/76/32 53/78/32 59/85/32 54/81/32
f 52/80/33 51/69/33 57/86/33 58/84/33
f 65/87/34 64/88/34 70/89/34 71/90/34
f 54/81/35 59/85/35 65/87/35 60/82/35
f 58/84/36 57/86/36 63/91/36 64/88/36
f 56/73/37 55/72/37 61/83/37 62/92/37
f 59/85/38 58/84/38 64/88/38 65/87/38
f 57/86/39 56/73/39 62/92/39 63/91/39
f 66/93/40 71/90/40 77/94/40 72/95/40
f 63/91/41 62/92/41 68/96/41 69/97/41
f 61/83/42 60/82/42 66/93/42 67/98/42
f 60/82/43 65/87/43 71/90/43 66/93/43
f 64/88/44 63/91/44 69/97/44 70/89/44
f 62/92/45 61/83/45 67/98/45 68/96/45
f 73/99/46 72/95/46 77/94/46 76/100/46 75/101/46 74/102/46
f 70/89/47 69/97/47 75/101/47 76/100/47
f 68/96/48 67/98/48 73/99/48 74/102/48
f 71/90/49 70/89/49 76/100/49 77/94/49
f 69/97/50 68/96/50 74/102/50 75/101/50
f 67/98/51 66/93/51 72/95/51 73/99/51
usemtl Bronze
f 13/27/52 18/24/52 24/28/52 19/43/52
f 17/23/53 16/26/53 22/35/53 23/29/53
f 15/12/54 14/11/54 20/39/54 21/36/54
f 18/24/55 17/23/55 23/29/55 24/28/55
f 16/26/56 15/12/56 21/36/56 22/35/56
f 14/11/57 13/25/57 19/40/57 20/39/57
