# Blender v2.81 (sub 16) OBJ File: 'Low Poly assets.blend'
# www.blender.org
mtllib Glock_G48.mtl
o Glock_G48_Cube.009
v -0.011556 0.047378 -0.032474
v -0.011556 0.070075 -0.032474
v 0.011554 0.047378 -0.032474
v 0.011554 0.070075 -0.032474
v -0.005704 0.053231 0.155924
v -0.005704 0.064222 0.155924
v 0.005701 0.053231 0.155924
v 0.005701 0.064222 0.155924
v -0.009979 0.047378 -0.032474
v 0.009977 0.047378 -0.032474
v -0.009979 0.047378 0.155924
v 0.009977 0.047378 0.155924
v -0.009979 0.039153 -0.036676
v 0.009977 0.039153 -0.036676
v -0.006102 0.034391 0.155924
v 0.006100 0.034391 0.155924
v 0.011554 0.047378 0.134056
v 0.011554 0.070075 0.134056
v -0.011556 0.047378 0.134056
v -0.011556 0.070075 0.134056
v 0.009977 0.047378 0.134056
v -0.009979 0.047378 0.134056
v 0.006100 0.034391 0.134056
v -0.006102 0.034391 0.134056
v 0.011554 0.047378 0.131813
v -0.011556 0.070075 0.131813
v 0.009977 0.047378 0.131813
v 0.009977 0.030749 0.131813
v 0.011554 0.070075 0.131813
v -0.011556 0.047378 0.131813
v -0.009979 0.047378 0.131813
v -0.009979 0.030749 0.131813
v 0.011554 0.047378 -0.018737
v -0.011556 0.070075 -0.018737
v 0.009977 0.047378 -0.018737
v 0.009977 0.030749 -0.018737
v 0.011554 0.070075 -0.018737
v -0.011556 0.047378 -0.018737
v -0.009979 0.047378 -0.018737
v -0.009979 0.030749 -0.018737
v 0.011554 0.070075 0.032913
v -0.011556 0.047378 0.032913
v -0.009979 0.047378 0.032913
v -0.009979 0.030749 0.032913
v 0.011554 0.047378 0.032913
v -0.011556 0.070075 0.032913
v 0.009977 0.047378 0.032913
v 0.009977 0.030749 0.032913
v 0.007888 -0.048565 -0.034616
v -0.007890 -0.048565 -0.034616
v 0.007888 -0.055475 0.008722
v -0.007890 -0.055475 0.008722
v 0.009977 0.013051 -0.011214
v -0.009979 0.013051 -0.011214
v -0.009979 -0.001979 0.024591
v 0.009977 -0.001979 0.024591
v -0.006343 0.003140 0.036363
v -0.006343 0.028431 0.036363
v 0.006343 0.003140 0.036363
v 0.006343 0.028431 0.036363
v -0.006343 0.003140 0.082664
v -0.006343 0.028431 0.082664
v 0.006343 0.003140 0.082664
v 0.006343 0.028431 0.082664
v -0.006343 -0.000657 0.025284
v -0.006343 0.034188 0.025284
v 0.006343 0.034188 0.025284
v 0.006343 -0.000657 0.025284
v 0.006343 -0.000657 0.089262
v 0.006343 0.034188 0.089262
v -0.006343 0.034188 0.089262
v -0.006343 -0.000657 0.089262
v -0.002109 0.018941 0.055171
v -0.002109 0.031455 0.055910
v -0.002109 0.015378 0.046730
v -0.002109 0.031455 0.028094
v 0.002109 0.018941 0.055171
v 0.002109 0.031455 0.055910
v 0.002109 0.015378 0.046730
v 0.002109 0.031455 0.028094
v -0.000915 0.007610 0.063779
v -0.000915 0.004997 0.061426
v 0.000915 0.007610 0.063779
v 0.000915 0.004997 0.061426
v -0.002705 0.067520 0.153285
v -0.002705 0.075542 0.148357
v -0.002705 0.067520 0.136107
v -0.002705 0.075542 0.139168
v 0.002705 0.067520 0.153285
v 0.002705 0.075542 0.148357
v 0.002705 0.067520 0.136107
v 0.002705 0.075542 0.139168
v 0.002966 0.067520 -0.016426
v 0.002966 0.075542 -0.018786
v 0.002966 0.067520 -0.029636
v 0.002966 0.075542 -0.026575
v 0.007162 0.067520 -0.016426
v 0.007162 0.075542 -0.018786
v 0.007162 0.067520 -0.029636
v 0.007162 0.075542 -0.026575
v -0.007162 0.067520 -0.016426
v -0.007162 0.075542 -0.018786
v -0.007162 0.067520 -0.029636
v -0.007162 0.075542 -0.026575
v -0.002966 0.067520 -0.016426
v -0.002966 0.075542 -0.018786
v -0.002966 0.067520 -0.029636
v -0.002966 0.075542 -0.026575
v -0.002966 0.071530 -0.017606
v -0.002966 0.071530 -0.028105
v -0.007162 0.071530 -0.028105
v -0.007162 0.071530 -0.017606
v 0.007162 0.071530 -0.017606
v 0.007162 0.071530 -0.028105
v 0.002966 0.071530 -0.028105
v 0.002966 0.071530 -0.017606
v 0.011554 0.070075 0.155924
v 0.011554 0.047378 0.155924
v -0.011556 0.047378 0.155924
v -0.011556 0.070075 0.155924
v 0.005701 0.064222 -0.009896
v 0.005701 0.053231 -0.009896
v -0.005704 0.053231 -0.009896
v -0.005704 0.064222 -0.009896
v 0.009977 -0.049460 0.007079
v 0.009977 -0.042683 -0.034538
v -0.009979 -0.042683 -0.034538
v -0.009979 -0.049460 0.007079
v 0.009977 -0.055811 0.010783
v 0.005836 -0.040464 -0.039760
v -0.005838 -0.040464 -0.039760
v -0.009979 -0.055811 0.010783
v 0.005836 0.013860 -0.017025
v -0.009979 0.001151 0.031793
v -0.005838 0.013860 -0.017025
v 0.009977 0.001151 0.031793
v 0.009977 -0.047127 -0.042548
v -0.009979 -0.047127 -0.042548
v 0.009977 0.020480 -0.014255
v -0.009979 0.020480 -0.014255
v -0.011556 0.070075 0.076048
v -0.011556 0.070075 0.045176
v -0.011556 0.059066 0.045580
v -0.011556 0.059066 0.076048
v 0.007737 0.070075 0.045176
v 0.007737 0.070075 0.076048
v 0.007888 0.015605 -0.011352
v -0.007890 0.015605 -0.011352
v 0.007888 0.007592 0.028544
v -0.007890 0.007592 0.028544
vt 0.343350 0.962153
vt 0.345593 0.962153
vt 0.345593 0.964396
vt 0.343350 0.964396
vt 0.343350 0.966378
vt 0.345593 0.966378
vt 0.345593 0.966639
vt 0.343350 0.966639
vt 0.343350 0.970961
vt 0.345593 0.970961
vt 0.345593 0.971125
vt 0.343350 0.971125
vt 0.346098 0.965072
vt 0.346261 0.965072
vt 0.346261 0.967315
vt 0.346098 0.967315
vt 0.343350 0.966639
vt 0.343350 0.968882
vt 0.343350 0.968882
vt 0.343350 0.966639
vt 0.343350 0.966378
vt 0.343350 0.968882
vt 0.343350 0.968729
vt 0.343090 0.966639
vt 0.343090 0.968882
vt 0.343350 0.966378
vt 0.343350 0.969142
vt 0.343350 0.969142
vt 0.348743 0.965072
vt 0.349003 0.965072
vt 0.349003 0.967315
vt 0.348743 0.967315
vt 0.343350 0.969142
vt 0.345593 0.968882
vt 0.345593 0.969142
vt 0.343350 0.966352
vt 0.345593 0.966352
vt 0.343350 0.965174
vt 0.345593 0.965174
vt 0.349030 0.965072
vt 0.349030 0.967315
vt 0.345593 0.969169
vt 0.343350 0.969169
vt 0.345593 0.964559
vt 0.343350 0.964559
vt 0.347058 0.966639
vt 0.347673 0.966639
vt 0.347673 0.968882
vt 0.347058 0.968882
vt 0.343350 0.970346
vt 0.345593 0.970346
vt 0.345593 0.969833
vt 0.344505 0.969833
vt 0.344505 0.970195
vt 0.345593 0.970200
vt 0.350208 0.965072
vt 0.350208 0.967315
vt 0.350062 0.967315
vt 0.350088 0.965661
vt 0.349662 0.965614
vt 0.349694 0.967315
vt 0.345015 0.967207
vt 0.343929 0.967207
vt 0.343929 0.968314
vt 0.348165 0.966747
vt 0.348165 0.965640
vt 0.345015 0.968314
vt 0.154771 0.962714
vt 0.155857 0.962714
vt 0.155857 0.962714
vt 0.154771 0.962714
vt 0.147893 0.969603
vt 0.147893 0.969766
vt 0.147893 0.969766
vt 0.147893 0.969603
vt 0.147893 0.960794
vt 0.147893 0.963037
vt 0.147893 0.963037
vt 0.147893 0.960794
vt 0.147893 0.963037
vt 0.147893 0.960794
vt 0.147893 0.969766
vt 0.147893 0.969603
vt 0.147893 0.964993
vt 0.147893 0.965020
vt 0.147893 0.965020
vt 0.147893 0.964993
vt 0.147606 0.965280
vt 0.147632 0.965280
vt 0.147632 0.967523
vt 0.147606 0.967523
vt 0.147893 0.964993
vt 0.147893 0.965020
vt 0.147893 0.963816
vt 0.147893 0.963816
vt 0.146428 0.965280
vt 0.146428 0.967523
vt 0.147893 0.963816
vt 0.147893 0.967784
vt 0.147893 0.967810
vt 0.147893 0.967810
vt 0.147893 0.967784
vt 0.147893 0.967784
vt 0.147893 0.967810
vt 0.147893 0.963201
vt 0.147893 0.963201
vt 0.145650 0.965280
vt 0.145813 0.965280
vt 0.145813 0.967523
vt 0.145650 0.967523
vt 0.147893 0.963201
vt 0.147893 0.968988
vt 0.147893 0.968988
vt 0.147893 0.968988
vt 0.146428 0.965280
vt 0.146428 0.967523
vt 0.146428 0.967523
vt 0.146428 0.965280
vt 0.147893 0.969603
vt 0.147893 0.968988
vt 0.147893 0.963816
vt 0.147893 0.963201
vt 0.145813 0.965280
vt 0.145813 0.967523
vt 0.148462 0.964970
vt 0.148462 0.963347
vt 0.148462 0.969456
vt 0.148462 0.967833
vt 0.147893 0.965280
vt 0.150136 0.965280
vt 0.150136 0.967523
vt 0.147893 0.967523
vt 0.149567 0.967833
vt 0.149567 0.964970
vt 0.145650 0.965280
vt 0.145650 0.967523
vt 0.149567 0.969456
vt 0.150136 0.969766
vt 0.147893 0.969766
vt 0.149567 0.963347
vt 0.147893 0.963037
vt 0.150136 0.963037
vt 0.147893 0.960794
vt 0.150136 0.960794
vt 0.150136 0.963037
vt 0.147893 0.963037
vt 0.150136 0.965280
vt 0.147893 0.965280
vt 0.150136 0.967523
vt 0.147893 0.967523
vt 0.150136 0.969766
vt 0.147893 0.969766
vt 0.147893 0.967523
vt 0.147893 0.965280
vt 0.145650 0.965280
vt 0.145650 0.967523
vt 0.147893 0.969766
vt 0.147893 0.963037
vt 0.147893 0.960794
vt 0.147893 0.960794
vt 0.150136 0.960794
vt 0.150136 0.963037
vt 0.147893 0.963037
vt 0.150136 0.965280
vt 0.147893 0.965280
vt 0.150136 0.967523
vt 0.147893 0.967523
vt 0.150136 0.969766
vt 0.147893 0.969766
vt 0.152379 0.965280
vt 0.152379 0.967523
vt 0.149014 0.960794
vt 0.150136 0.960794
vt 0.150136 0.963037
vt 0.149014 0.963037
vt 0.150136 0.965280
vt 0.149014 0.965280
vt 0.150136 0.967523
vt 0.149014 0.967523
vt 0.150136 0.969766
vt 0.149014 0.969766
vt 0.152379 0.965280
vt 0.152379 0.967523
vt 0.149014 0.960794
vt 0.150136 0.960794
vt 0.150136 0.963037
vt 0.149014 0.963037
vt 0.150136 0.965280
vt 0.149014 0.965280
vt 0.150136 0.967523
vt 0.149014 0.967523
vt 0.150136 0.969766
vt 0.149014 0.969766
vt 0.152379 0.965280
vt 0.152379 0.967523
vt 0.147893 0.967523
vt 0.147893 0.969766
vt 0.147893 0.965280
vt 0.147893 0.967523
vt 0.147893 0.969766
vt 0.147893 0.963037
vt 0.147893 0.965280
vt 0.147893 0.963037
vt 0.147893 0.960794
vt 0.153196 0.965848
vt 0.154282 0.965848
vt 0.154282 0.966955
vt 0.153196 0.966955
vt 0.155857 0.963821
vt 0.154771 0.963821
vt 0.154771 0.963821
vt 0.155857 0.963821
vt 0.148471 0.966955
vt 0.148471 0.965848
vt 0.148471 0.965848
vt 0.148471 0.966955
vt 0.146404 0.965515
vt 0.145837 0.965515
vt 0.145813 0.965280
vt 0.145837 0.967288
vt 0.145813 0.967523
vt 0.146404 0.967289
vt 0.147893 0.963268
vt 0.147893 0.963749
vt 0.147893 0.963816
vt 0.147893 0.963201
vt 0.147893 0.969055
vt 0.147893 0.969536
vt 0.147893 0.969603
vt 0.147893 0.968988
vt 0.147893 0.963270
vt 0.147893 0.969057
vt 0.147893 0.969534
vt 0.147893 0.963747
vt 0.145813 0.967058
vt 0.145813 0.965746
vt 0.145813 0.965746
vt 0.145813 0.967058
vt 0.154860 0.961007
vt 0.153772 0.961002
vt 0.153772 0.960639
vt 0.154860 0.960639
vt 0.158961 0.958121
vt 0.158929 0.956420
vt 0.159355 0.956468
vt 0.159329 0.958121
vt 0.146404 0.967289
vt 0.146404 0.965515
vt 0.145837 0.965515
vt 0.145837 0.967288
vt 0.092846 0.963036
vt 0.092846 0.961724
vt 0.092846 0.961724
vt 0.092846 0.963036
vt 0.094925 0.959248
vt 0.094925 0.959725
vt 0.094925 0.959727
vt 0.094925 0.959246
vt 0.094925 0.965035
vt 0.094925 0.965512
vt 0.094925 0.965514
vt 0.094925 0.965033
vn 0.0000 0.0000 -1.0000
vn 1.0000 0.0000 -0.0000
vn -1.0000 0.0000 0.0000
vn 0.0000 1.0000 0.0000
vn 0.0000 0.0000 1.0000
vn 0.0000 -1.0000 -0.0000
vn 0.9582 -0.2860 -0.0000
vn -0.9582 -0.2860 0.0000
vn 0.0000 0.4549 -0.8905
vn 0.7145 -0.0935 0.6934
vn 0.0000 -0.5244 0.8515
vn -0.7145 -0.0935 0.6934
vn 0.0000 -0.9056 -0.4242
vn 0.0000 -0.3461 0.9382
vn 0.0000 -0.0378 0.9993
vn 0.0000 -0.4000 -0.9165
vn 0.0000 -0.7572 -0.6532
vn 0.0000 -0.0590 0.9983
vn 0.9969 -0.0679 0.0389
vn 0.0000 -0.6692 0.7431
vn 0.0000 0.6049 0.7963
vn 0.0000 -0.8168 -0.5770
vn -0.9969 -0.0679 0.0389
vn 0.0000 0.3565 -0.9343
vn 0.0000 0.5234 0.8521
vn 0.0000 0.3564 -0.9343
vn 0.0000 0.2822 0.9593
vn 0.0000 0.2823 0.9593
vn 0.0368 -0.9866 -0.1592
vn 0.0000 -0.9839 -0.1785
vn -0.0368 -0.9866 -0.1592
vn 0.0000 -0.9870 -0.1608
vn 0.0000 0.3861 -0.9225
vn 0.0000 0.2998 -0.9540
vn 0.0000 -0.3408 0.9401
vn 0.0000 -0.9804 -0.1969
vn 0.0000 0.3860 -0.9225
usemtl Gray
s off
f 1/1/1 2/2/1 4/3/1 3/4/1
f 17/5/2 18/6/2 117/7/2 118/8/2
f 38/9/3 34/10/3 2/11/3 1/12/3
f 37/13/4 4/14/4 2/15/4 34/16/4
f 12/17/5 11/18/5 15/19/5 16/20/5
f 17/5/6 118/8/6 12/17/6 21/21/6
f 118/8/5 119/22/5 11/23/5 12/17/5
f 23/24/6 16/20/6 15/19/6 24/25/6
f 21/21/7 12/17/7 16/20/7 23/26/7
f 11/18/8 22/27/8 24/28/8 15/19/8
f 117/29/4 18/30/4 20/31/4 120/32/4
f 119/22/6 19/33/6 22/27/6 11/18/6
f 119/22/3 120/34/3 20/35/3 19/33/3
f 25/36/2 29/37/2 18/6/2 17/5/2
f 45/38/2 41/39/2 29/37/2 25/36/2
f 18/30/4 29/40/4 26/41/4 20/31/4
f 19/33/3 20/35/3 26/42/3 30/43/3
f 3/4/2 4/3/2 37/44/2 33/45/2
f 41/46/4 37/47/4 34/48/4 46/49/4
f 42/50/3 46/51/3 34/10/3 38/9/3
f 30/43/3 26/42/3 141/52/3 144/53/3 143/54/3 142/55/3 46/51/3 42/50/3
f 29/40/4 41/56/4 46/57/4 142/58/4 145/59/4 146/60/4 141/61/4 26/41/4
f 33/45/2 37/44/2 41/39/2 45/38/2
f 8/62/5 7/63/5 118/8/5 117/7/5
f 7/63/5 5/64/5 119/22/5 118/8/5
f 6/65/5 8/66/5 117/29/5 120/32/5
f 5/64/5 6/67/5 120/34/5 119/22/5
usemtl Dark_Gray
f 7/68/3 8/69/3 121/70/3 122/71/3
f 38/72/6 1/73/6 9/74/6 39/75/6
f 1/76/5 3/77/5 10/78/5 9/79/5
f 9/79/9 10/78/9 14/80/9 13/81/9
f 39/75/3 9/74/3 13/82/3 40/83/3
f 27/84/10 21/85/10 23/86/10 28/87/10
f 28/88/11 23/89/11 24/90/11 32/91/11
f 25/92/6 17/93/6 21/85/6 27/84/6
f 45/94/6 25/92/6 27/84/6 47/95/6
f 48/96/6 28/88/6 32/91/6 44/97/6
f 47/95/2 27/84/2 28/87/2 48/98/2
f 22/99/12 31/100/12 32/101/12 24/102/12
f 19/103/6 30/104/6 31/100/6 22/99/6
f 10/78/2 35/105/2 36/106/2 14/80/2
f 14/107/13 36/108/13 40/109/13 13/110/13
f 3/77/6 33/111/6 35/105/6 10/78/6
f 43/112/3 39/75/3 40/83/3 44/113/3
f 42/114/6 38/72/6 39/75/6 43/112/6
f 30/104/6 42/114/6 43/112/6 31/100/6
f 31/100/3 43/112/3 44/113/3 32/101/3
f 33/111/6 45/94/6 47/95/6 35/105/6
f 35/105/2 47/95/2 48/98/2 36/106/2
f 136/115/14 134/116/14 132/117/14 129/118/14
f 44/113/3 40/83/3 140/119/3 134/120/3
f 36/106/2 48/98/2 136/121/2 139/122/2
f 48/96/15 44/97/15 134/116/15 136/115/15
f 40/109/16 36/108/16 139/123/16 140/124/16
f 63/125/4 59/126/4 57/127/4 61/128/4
f 69/129/5 70/130/5 71/131/5 72/132/5
f 63/125/1 61/128/1 62/133/1 64/134/1
f 68/135/6 69/129/6 72/132/6 65/136/6
f 57/127/3 58/137/3 66/138/3 65/139/3
f 60/140/2 59/126/2 68/141/2 67/142/2
f 59/126/2 63/125/2 69/129/2 68/141/2
f 64/134/2 60/140/2 67/142/2 70/130/2
f 63/125/2 64/134/2 70/130/2 69/129/2
f 62/133/3 61/128/3 72/132/3 71/131/3
f 61/128/3 57/127/3 65/139/3 72/132/3
f 58/137/3 62/133/3 71/131/3 66/138/3
f 57/127/5 59/126/5 60/140/5 58/137/5
f 60/140/6 64/134/6 62/133/6 58/137/6
f 73/143/3 74/144/3 76/145/3 75/146/3
f 75/146/17 76/145/17 80/147/17 79/148/17
f 79/148/2 80/147/2 78/149/2 77/150/2
f 77/150/18 78/149/18 74/151/18 73/152/18
f 79/148/19 77/150/19 83/153/19 84/154/19
f 82/155/20 84/154/20 83/153/20 81/156/20
f 77/150/21 73/152/21 81/157/21 83/153/21
f 75/146/22 79/148/22 84/154/22 82/158/22
f 73/143/23 75/146/23 82/158/23 81/159/23
f 85/160/3 86/161/3 88/162/3 87/163/3
f 87/163/24 88/162/24 92/164/24 91/165/24
f 91/165/2 92/164/2 90/166/2 89/167/2
f 89/167/25 90/166/25 86/168/25 85/169/25
f 92/164/4 88/170/4 86/171/4 90/166/4
f 116/172/3 94/173/3 96/174/3 115/175/3
f 115/175/26 96/174/26 100/176/26 114/177/26
f 114/177/2 100/176/2 98/178/2 113/179/2
f 113/179/27 98/178/27 94/180/27 116/181/27
f 100/176/4 96/182/4 94/183/4 98/178/4
f 112/184/3 102/185/3 104/186/3 111/187/3
f 111/187/26 104/186/26 108/188/26 110/189/26
f 110/189/2 108/188/2 106/190/2 109/191/2
f 109/191/27 106/190/27 102/192/27 112/193/27
f 108/188/4 104/194/4 102/195/4 106/190/4
f 105/196/28 109/191/28 112/193/28 101/197/28
f 99/198/2 114/177/2 113/179/2 97/199/2
f 97/199/28 113/179/28 116/181/28 93/200/28
f 95/201/24 107/202/24 110/189/24 115/175/24
f 116/172/4 115/175/4 110/189/4 109/191/4
f 95/201/24 115/175/24 114/177/24 99/198/24
f 103/203/24 111/187/24 110/189/24 107/202/24
f 101/204/3 112/184/3 111/187/3 103/203/3
f 109/191/28 105/196/28 93/200/28 116/172/28
f 122/205/5 121/206/5 124/207/5 123/208/5
f 6/209/2 5/210/2 123/211/2 124/212/2
f 5/213/4 7/214/4 122/215/4 123/216/4
f 8/69/6 6/209/6 124/212/6 121/70/6
f 51/217/29 49/218/29 137/219/29 129/118/29
f 49/218/30 50/220/30 138/221/30 137/219/30
f 50/220/31 52/222/31 132/117/31 138/221/31
f 52/222/32 51/217/32 129/118/32 132/117/32
f 126/223/2 125/224/2 129/225/2 137/226/2
f 128/227/3 127/228/3 138/229/3 132/230/3
f 53/231/2 126/223/2 137/226/2 139/122/2
f 55/232/3 128/227/3 132/230/3 134/120/3
f 127/228/3 54/233/3 140/119/3 138/229/3
f 125/224/2 56/234/2 136/121/2 129/225/2
f 54/233/3 55/232/3 134/120/3 140/119/3
f 56/234/2 53/231/2 139/122/2 136/121/2
f 131/235/33 130/236/33 137/219/33 138/221/33
f 130/236/33 133/237/33 139/123/33 137/219/33
f 135/238/33 131/235/33 138/221/33 140/124/33
f 133/237/33 135/238/33 140/124/33 139/123/33
f 142/239/3 143/240/3 144/241/3 141/242/3
f 141/243/4 146/244/4 145/245/4 142/246/4
f 51/217/34 52/222/34 150/247/34 149/248/34
f 50/220/35 49/218/35 147/249/35 148/250/35
f 52/222/2 50/220/2 148/250/2 150/247/2
f 49/218/3 51/217/3 149/248/3 147/249/3
f 149/248/36 150/247/36 148/250/36 147/249/36
usemtl Black
f 135/251/37 133/252/37 130/253/37 131/254/37
f 53/255/2 56/256/2 125/257/2 126/258/2
f 55/259/3 54/260/3 127/261/3 128/262/3
o Glock_G48_Magazine_Cube.022
v 0.008036 0.047250 -0.000896
v -0.007742 0.047250 -0.000896
v 0.008036 0.047078 0.037573
v -0.007742 0.047078 0.037573
v 0.008036 -0.056017 0.005434
v 0.008036 -0.049989 -0.032307
v -0.007742 -0.049989 -0.032307
v -0.007742 -0.056017 0.005434
v 0.009251 -0.056635 0.009221
v 0.009251 -0.049373 -0.036094
v -0.008956 -0.049373 -0.036094
v -0.008956 -0.056635 0.009221
v 0.009251 -0.061689 0.007114
v 0.009251 -0.054428 -0.038200
v -0.008956 -0.054428 -0.038200
v -0.008956 -0.061689 0.007114
v 0.006765 0.047219 0.000767
v -0.006470 0.047219 0.000767
v 0.006765 0.047109 0.035910
v -0.006470 0.047109 0.035910
v 0.006765 -0.048211 -0.030366
v -0.006470 -0.048211 -0.030366
v 0.006765 -0.053801 0.004335
v -0.006470 -0.053801 0.004335
vt 0.146404 0.967289
vt 0.145837 0.967288
vt 0.145837 0.967288
vt 0.146404 0.967289
vt 0.146404 0.965515
vt 0.146404 0.967289
vt 0.146404 0.965515
vt 0.145837 0.965515
vt 0.146404 0.965515
vt 0.145837 0.965515
vt 0.145837 0.967288
vt 0.145837 0.967288
vt 0.146404 0.967289
vt 0.145837 0.965515
vt 0.145837 0.965515
vt 0.146404 0.965515
vt 0.145837 0.967288
vt 0.145837 0.965515
vt 0.146404 0.967289
vt 0.146404 0.965515
vt 0.146404 0.967289
vt 0.145837 0.967288
vt 0.145837 0.965515
vt 0.146404 0.965515
vn -1.0000 -0.0000 0.0000
vn 0.0000 0.9870 0.1609
vn 1.0000 0.0000 -0.0000
vn 0.0000 -0.2976 0.9547
vn 0.0000 0.3074 -0.9516
vn 0.0000 0.9870 0.1606
vn -0.0004 0.9874 0.1580
vn 0.0004 0.9874 0.1580
vn 0.0000 -0.9874 -0.1582
vn 0.0000 -0.3847 0.9231
vn 0.0000 0.3846 -0.9231
vn 0.0000 0.9998 0.0186
vn 0.0000 1.0000 0.0038
vn 0.0000 0.2986 -0.9544
vn 0.0000 -0.3102 0.9507
vn 0.0000 0.9873 0.1590
usemtl Dark_Gray
s off
f 154/263/38 152/264/38 157/265/38 158/266/38
f 155/267/39 158/266/39 162/268/39 159/269/39
f 151/270/40 153/271/40 155/267/40 156/272/40
f 153/271/41 154/263/41 158/266/41 155/267/41
f 152/264/42 151/270/42 156/272/42 157/265/42
f 162/268/38 161/273/38 165/274/38 166/275/38
f 157/265/43 156/272/43 160/276/43 161/273/43
f 158/266/44 157/265/44 161/273/44 162/268/44
f 156/272/45 155/267/45 159/269/45 160/276/45
f 164/277/46 163/278/46 166/275/46 165/274/46
f 160/276/40 159/269/40 163/278/40 164/277/40
f 159/269/47 162/268/47 166/275/47 163/278/47
f 161/273/48 160/276/48 164/277/48 165/274/48
f 151/270/49 152/264/49 168/279/49 167/280/49
f 152/264/50 154/263/50 170/281/50 168/279/50
f 153/271/50 151/270/50 167/280/50 169/282/50
f 154/263/49 153/271/49 169/282/49 170/281/49
f 168/279/40 170/281/40 174/283/40 172/284/40
f 169/282/38 167/280/38 171/285/38 173/286/38
f 170/281/51 169/282/51 173/286/51 174/283/51
f 167/280/52 168/279/52 172/284/52 171/285/52
f 173/286/53 171/285/53 172/284/53 174/283/53
