# Blender v2.81 (sub 16) OBJ File: 'Weapons Pack Low Poly.blend'
# www.blender.org
mtllib HK_416_Assault_Rifle.mtl
o HK_416_Assault_Rifle_Cube.020
v -0.014070 0.072419 -0.028921
v -0.014070 0.153717 -0.028921
v 0.014070 0.072419 -0.028921
v 0.014070 0.153717 -0.028921
v -0.014070 0.094465 -0.028921
v -0.014070 0.131671 -0.028921
v 0.014070 0.094465 -0.028921
v 0.014070 0.131671 -0.028921
v -0.014070 0.094465 -0.067248
v -0.014070 0.131671 -0.067248
v 0.014070 0.094465 -0.067248
v 0.014070 0.131671 -0.067248
v -0.016311 0.078607 -0.067248
v -0.016311 0.134634 -0.067248
v 0.016311 0.078607 -0.067248
v 0.016311 0.134634 -0.067248
v -0.028607 0.078607 -0.101117
v -0.016311 0.134634 -0.101117
v 0.028607 0.078607 -0.101117
v 0.016311 0.134634 -0.101117
v -0.028607 0.078607 -0.168817
v -0.016311 0.134634 -0.168817
v 0.028607 0.078607 -0.168817
v 0.016311 0.134634 -0.168817
v -0.016311 0.052458 -0.112939
v 0.016311 0.052458 -0.112939
v -0.016311 0.052458 -0.168817
v 0.016311 0.052458 -0.168817
v -0.028607 0.078607 -0.308602
v -0.016311 0.134634 -0.294985
v 0.028607 0.078607 -0.308602
v 0.016311 0.134634 -0.294985
v -0.016311 0.052458 -0.308602
v 0.016311 0.052458 -0.308602
v -0.016311 -0.008201 -0.239999
v 0.016311 -0.008201 -0.239999
v -0.016311 -0.008201 -0.301793
v 0.016311 -0.008201 -0.301793
v -0.006102 0.101714 0.730794
v -0.006102 0.115396 0.730794
v 0.006102 0.101714 0.730794
v 0.006102 0.115396 0.730794
v -0.014070 0.072419 0.192195
v -0.014070 0.153717 0.192195
v 0.014070 0.072419 0.192195
v 0.014070 0.153717 0.192195
v -0.014070 0.052612 -0.002306
v -0.014070 0.052612 0.192195
v 0.014070 0.052612 0.192195
v 0.014070 0.052612 -0.002306
v -0.010431 0.026647 0.189762
v 0.010431 0.026647 0.189762
v 0.010491 0.023333 0.048004
v -0.014070 0.051094 0.048004
v 0.014070 0.051094 0.048004
v -0.010491 0.023333 0.048004
v 0.010431 0.019760 0.115099
v -0.014070 0.051094 0.106125
v 0.014070 0.051094 0.106125
v -0.010431 0.019760 0.115099
v -0.014070 -0.065523 -0.059018
v 0.014070 -0.065523 -0.059018
v 0.014070 -0.065523 0.006768
v -0.014070 -0.065523 0.006768
v -0.014070 -0.014677 0.023369
v 0.014070 -0.014677 0.023369
v 0.014070 0.002019 -0.034091
v -0.014070 0.002019 -0.034091
v -0.010491 0.023333 0.106125
v -0.014070 0.026647 0.192195
v 0.014070 0.026647 0.192195
v 0.010491 0.023333 0.106125
v -0.009961 0.074785 0.117724
v 0.009961 0.074785 0.117724
v 0.009961 0.074785 0.187138
v -0.009961 0.074785 0.187138
v 0.014070 0.019760 0.112666
v 0.010491 0.019760 0.034613
v 0.014070 0.052612 0.112666
v 0.014070 0.052612 0.034613
v -0.014070 0.052612 0.034613
v -0.010491 0.019760 0.034613
v -0.014070 0.052612 0.112666
v -0.014070 0.019760 0.112666
v -0.000506 0.028962 0.067584
v -0.003419 0.060881 0.078183
v -0.000506 0.028962 0.064852
v -0.003419 0.060881 0.059732
v 0.000506 0.028962 0.067584
v 0.003419 0.060881 0.078183
v 0.000506 0.028962 0.064852
v 0.003419 0.060881 0.059732
v -0.001962 0.044921 0.062609
v -0.001962 0.044921 0.059210
v 0.001962 0.044921 0.059210
v 0.001962 0.044921 0.062609
v -0.033357 0.072419 0.192195
v -0.033357 0.072419 0.477547
v -0.033357 0.153717 0.477547
v 0.033357 0.153717 0.192195
v 0.033357 0.153717 0.477547
v 0.033357 0.072419 0.477547
v -0.019072 0.092406 0.477547
v -0.019072 0.132011 0.477547
v 0.019072 0.132011 0.477547
v 0.019072 0.092406 0.477547
v -0.019072 0.092406 0.556279
v -0.019072 0.132011 0.556279
v 0.019072 0.132011 0.556279
v 0.019072 0.092406 0.556279
v -0.013193 0.095440 0.556279
v -0.013193 0.121670 0.556279
v 0.013193 0.121670 0.556279
v 0.013193 0.095440 0.556279
v -0.006918 0.101714 0.730794
v -0.006918 0.115396 0.730794
v 0.006918 0.115396 0.730794
v 0.006918 0.101714 0.730794
v -0.033357 0.153717 0.192195
v 0.033357 0.072419 0.192195
v 0.006102 0.121670 0.730794
v 0.013193 0.121670 0.730794
v -0.006102 0.095440 0.730794
v 0.006102 0.095440 0.730794
v -0.006102 0.121670 0.730794
v -0.013193 0.121670 0.730794
v 0.013193 0.095440 0.730794
v -0.013193 0.095440 0.730794
v 0.006102 0.115396 0.231289
v 0.006918 0.115396 0.231289
v -0.006102 0.101714 0.231289
v 0.006102 0.101714 0.231289
v -0.006102 0.115396 0.231289
v -0.006918 0.115396 0.231289
v 0.006918 0.101714 0.231289
v -0.006918 0.101714 0.231289
vt 0.098068 0.956836
vt 0.099602 0.956836
vt 0.099602 0.957506
vt 0.098068 0.957506
vt 0.099602 0.959040
vt 0.098068 0.959040
vt 0.098068 0.959040
vt 0.099602 0.959040
vt 0.098068 0.959040
vt 0.099602 0.959040
vt 0.096533 0.959040
vt 0.096533 0.959040
vt 0.101137 0.959040
vt 0.101137 0.959040
vt 0.099602 0.957506
vt 0.098068 0.957506
vt 0.096533 0.959040
vt 0.096533 0.959040
vt 0.098068 0.959040
vt 0.101137 0.959040
vt 0.099602 0.957506
vt 0.098068 0.957506
vt 0.101137 0.959040
vt 0.099602 0.959040
vt 0.099602 0.959040
vt 0.101137 0.959040
vt 0.099602 0.957506
vt 0.098068 0.957506
vt 0.098068 0.959040
vt 0.098068 0.959040
vt 0.099602 0.959040
vt 0.099602 0.957506
vt 0.098068 0.957506
vt 0.096533 0.959040
vt 0.101137 0.959040
vt 0.099602 0.959040
vt 0.101137 0.959040
vt 0.098068 0.957506
vt 0.098068 0.957506
vt 0.098068 0.957506
vt 0.099602 0.957506
vt 0.098068 0.959040
vt 0.096533 0.959040
vt 0.096533 0.959040
vt 0.098068 0.959040
vt 0.098068 0.959040
vt 0.098068 0.959040
vt 0.098068 0.957506
vt 0.099602 0.957506
vt 0.098068 0.957506
vt 0.096533 0.959040
vt 0.098068 0.959040
vt 0.096533 0.959040
vt 0.098068 0.959040
vt 0.098068 0.957506
vt 0.098068 0.957506
vt 0.099602 0.959710
vt 0.101137 0.959710
vt 0.101137 0.959710
vt 0.099602 0.959710
vt 0.099602 0.962110
vt 0.099602 0.960575
vt 0.099602 0.960575
vt 0.099602 0.962110
vt 0.098068 0.959710
vt 0.098068 0.959710
vt 0.098068 0.960575
vt 0.098068 0.962110
vt 0.098068 0.962110
vt 0.098068 0.960575
vt 0.096533 0.959710
vt 0.096533 0.959710
vt 0.098068 0.959040
vt 0.096533 0.959040
vt 0.098068 0.956836
vt 0.099602 0.956836
vt 0.098068 0.957506
vt 0.098068 0.957391
vt 0.098068 0.957110
vt 0.098068 0.956836
vt 0.098068 0.959710
vt 0.098068 0.959436
vt 0.098068 0.959155
vt 0.096533 0.959710
vt 0.098068 0.959202
vt 0.096533 0.959202
vt 0.096533 0.959202
vt 0.098068 0.959202
vt 0.096533 0.959710
vt 0.098068 0.959710
vt 0.098068 0.959202
vt 0.098068 0.957086
vt 0.098068 0.956836
vt 0.098068 0.959433
vt 0.098068 0.959215
vt 0.098068 0.957331
vt 0.098068 0.957113
vt 0.098068 0.957344
vt 0.097154 0.958420
vt 0.096533 0.959202
vt 0.098068 0.959460
vt 0.096533 0.959460
vt 0.098068 0.959187
vt 0.098068 0.957359
vt 0.096533 0.959040
vt 0.098068 0.959040
vt 0.098068 0.959040
vt 0.097139 0.958435
vt 0.098068 0.957344
vt 0.098068 0.957506
vt 0.098068 0.957344
vt 0.096682 0.959476
vt 0.096682 0.959694
vt 0.097919 0.959694
vt 0.097919 0.959476
vt 0.096682 0.959476
vt 0.097919 0.959476
vt 0.097919 0.959694
vt 0.096682 0.959694
vt 0.098068 0.959418
vt 0.098068 0.957128
vt 0.098835 0.955971
vt 0.099602 0.955971
vt 0.099602 0.957506
vt 0.098835 0.957506
vt 0.099602 0.959040
vt 0.098835 0.959040
vt 0.099602 0.960575
vt 0.098835 0.960575
vt 0.099602 0.962110
vt 0.098835 0.962110
vt 0.096533 0.959040
vt 0.098068 0.959040
vt 0.098068 0.960575
vt 0.096533 0.960575
vt 0.101137 0.959040
vt 0.101137 0.960575
vt 0.098068 0.962110
vt 0.098068 0.957506
vt 0.098068 0.955971
vt 0.099602 0.960575
vt 0.098068 0.960575
vt 0.096533 0.960575
vt 0.098068 0.960575
vt 0.096533 0.960575
vt 0.101137 0.960575
vt 0.099602 0.960575
vt 0.101137 0.960575
vt 0.101137 0.960575
vt 0.099602 0.960575
vt 0.099602 0.955971
vt 0.098068 0.955971
vt 0.098068 0.955971
vt 0.099602 0.955971
vt 0.096533 0.960575
vt 0.098068 0.960575
vt 0.098068 0.960575
vt 0.096533 0.960575
vt 0.098068 0.955971
vt 0.099602 0.955971
vt 0.096533 0.960575
vt 0.098068 0.955971
vt 0.099602 0.955971
vt 0.101137 0.960575
vt 0.099602 0.960575
vt 0.098068 0.955971
vt 0.099602 0.955971
vt 0.101137 0.960575
vt 0.099235 0.960857
vt 0.099235 0.960902
vt 0.099235 0.960902
vt 0.099235 0.960857
vt 0.098435 0.960902
vt 0.098435 0.961783
vt 0.099235 0.961783
vt 0.099235 0.961828
vt 0.098435 0.960857
vt 0.098435 0.961828
vt 0.098435 0.960902
vt 0.098435 0.960857
vt 0.099235 0.961783
vt 0.099235 0.961828
vt 0.098435 0.961828
vt 0.098435 0.961783
vn -1.0000 0.0000 0.0000
vn 1.0000 0.0000 0.0000
vn 0.0000 0.0000 -1.0000
vn 0.0000 0.0000 1.0000
vn 0.0000 -1.0000 0.0000
vn 0.0000 1.0000 0.0000
vn 0.9768 0.2144 0.0000
vn -0.9782 0.1073 0.1776
vn 0.9782 0.1073 0.1776
vn -0.9049 -0.4255 0.0000
vn -0.9768 0.2144 0.0000
vn 0.0000 -0.4119 0.9112
vn 0.9049 -0.4255 0.0000
vn 0.0000 0.2362 -0.9717
vn 0.0000 -0.7611 0.6486
vn 0.0000 -0.1115 -0.9938
vn 0.0000 -0.8022 -0.5970
vn 0.0000 -0.3104 0.9506
vn 0.9941 -0.1083 0.0000
vn -0.9941 -0.1083 0.0000
vn 0.0000 0.3462 -0.9381
vn -0.9987 0.0181 0.0474
vn 0.0000 0.5320 -0.8468
vn 0.9987 0.0181 0.0474
vn -0.0000 -0.9960 0.0890
vn 0.0000 -0.0544 -0.9985
vn 0.0000 -0.0476 0.9989
vn 1.0000 -0.0091 0.0004
vn -1.0000 -0.0091 0.0004
vn 0.8848 0.4655 -0.0233
vn 0.9931 -0.1173 0.0090
vn -0.9931 -0.1173 0.0090
vn -0.8848 0.4655 -0.0233
vn 0.9607 -0.0567 -0.2718
vn -0.9607 -0.0567 -0.2718
vn -0.9959 -0.0909 0.0000
vn 0.0000 0.0327 -0.9995
vn 0.9959 -0.0909 0.0000
vn 0.0000 -0.6984 0.7157
vn 0.0000 0.2976 0.9547
vn 0.0000 -0.3333 -0.9428
usemtl Dark_Gray
s off
f 43/1/1 44/2/1 2/3/1 1/4/1
f 4/5/2 3/6/2 7/7/2 8/8/2
f 8/8/2 7/7/2 11/9/2 12/10/2
f 3/6/3 1/11/3 5/12/3 7/7/3
f 2/13/3 4/5/3 8/8/3 6/14/3
f 1/4/1 2/3/1 6/15/1 5/16/1
f 11/9/4 9/17/4 13/18/4 15/19/4
f 7/7/5 5/12/5 9/17/5 11/9/5
f 6/14/6 8/8/6 12/10/6 10/20/6
f 5/16/1 6/15/1 10/21/1 9/22/1
f 14/23/6 16/24/6 20/25/6 18/26/6
f 10/20/4 12/10/4 16/24/4 14/23/4
f 9/22/4 10/21/4 14/27/4 13/28/4
f 12/10/4 11/9/4 15/19/4 16/24/4
f 20/25/7 19/29/7 23/30/7 24/31/7
f 13/28/8 14/27/8 18/32/8 17/33/8
f 16/24/9 15/19/9 19/29/9 20/25/9
f 15/19/5 13/18/5 17/34/5 19/29/5
f 22/35/6 24/31/6 32/36/6 30/37/6
f 17/33/10 21/38/10 27/39/10 25/40/10
f 18/26/6 20/25/6 24/31/6 22/35/6
f 17/33/11 18/32/11 22/41/11 21/38/11
f 26/42/5 25/43/5 27/44/5 28/45/5
f 19/29/12 17/34/12 25/43/12 26/42/12
f 23/30/13 19/29/13 26/42/13 28/45/13
f 23/30/13 28/45/13 34/46/13 31/47/13
f 29/48/14 30/49/14 32/36/14 31/47/14
f 29/48/3 31/47/3 34/46/3 33/50/3
f 21/38/11 22/41/11 30/49/11 29/48/11
f 28/45/15 27/44/15 35/51/15 36/52/15
f 24/31/7 23/30/7 31/47/7 32/36/7
f 27/39/10 21/38/10 29/48/10 33/50/10
f 36/52/5 35/51/5 37/53/5 38/54/5
f 33/50/16 34/46/16 38/54/16 37/55/16
f 27/39/1 33/50/1 37/55/1 35/56/1
f 34/46/2 28/45/2 36/52/2 38/54/2
f 46/57/4 44/58/4 119/59/4 100/60/4
f 125/61/4 121/62/4 122/63/4 126/64/4
f 45/65/3 46/57/3 100/60/3 120/66/3
f 124/67/4 123/68/4 128/69/4 127/70/4
f 43/71/4 45/65/4 120/66/4 97/72/4
f 4/5/6 2/13/6 44/58/6 46/57/6
f 1/11/17 3/6/17 50/73/17 47/74/17
f 3/6/2 4/5/2 46/57/2 45/65/2
f 44/2/3 43/1/3 97/75/3 119/76/3
f 43/1/1 1/4/1 47/77/1 81/78/1 83/79/1 48/80/1
f 3/6/2 45/65/2 49/81/2 79/82/2 80/83/2 50/73/2
f 45/65/4 43/71/4 48/84/4 49/81/4
f 66/85/18 65/86/18 64/87/18 63/88/18
f 49/81/4 48/84/4 70/89/4 71/90/4
f 50/73/19 80/83/19 78/91/19
f 48/80/1 83/79/1 84/92/1 70/93/1
f 72/94/6 53/95/6 56/96/6 69/97/6
f 82/98/20 81/78/20 47/99/20
f 82/100/5 78/91/5 77/101/5 84/102/5
f 77/101/2 79/82/2 49/81/2 71/90/2
f 53/95/4 55/103/4 54/104/4 56/96/4
f 61/105/5 62/106/5 63/88/5 64/87/5
f 67/107/2 66/85/2 63/88/2 62/106/2
f 68/108/21 67/107/21 62/106/21 61/105/21
f 65/109/1 68/108/1 61/110/1 64/111/1
f 82/98/22 47/99/22 68/108/22 65/109/22
f 47/99/23 50/73/23 67/107/23 68/108/23
f 50/73/24 78/91/24 66/85/24 67/107/24
f 78/91/18 82/100/18 65/86/18 66/85/18
f 60/112/25 51/113/25 70/89/25 84/102/25
f 51/113/5 52/114/5 71/90/5 70/89/5
f 52/114/25 57/115/25 77/101/25 71/90/25
f 57/115/5 60/112/5 84/102/5 77/101/5
f 73/116/5 74/117/5 75/118/5 76/119/5
f 52/114/26 51/113/26 76/119/26 75/118/26
f 60/112/27 57/115/27 74/117/27 73/116/27
f 51/113/28 60/112/28 73/116/28 76/119/28
f 57/115/29 52/114/29 75/118/29 74/117/29
f 53/95/30 72/94/30 77/101/30 78/91/30
f 59/120/2 55/103/2 80/83/2 79/82/2
f 55/103/31 53/95/31 78/91/31 80/83/31
f 56/96/32 54/104/32 81/78/32 82/98/32
f 54/104/1 58/121/1 83/79/1 81/78/1
f 69/97/33 56/96/33 82/98/33 84/92/33
f 72/94/34 59/120/34 79/82/34 77/101/34
f 58/121/35 69/97/35 84/92/35 83/79/35
f 72/94/3 69/97/3 58/121/3 59/120/3
f 59/120/5 58/121/5 54/104/5 55/103/5
f 93/122/36 86/123/36 88/124/36 94/125/36
f 94/125/37 88/124/37 92/126/37 95/127/37
f 95/127/38 92/126/38 90/128/38 96/129/38
f 96/129/39 90/128/39 86/130/39 93/131/39
f 87/132/5 91/133/5 89/134/5 85/135/5
f 92/126/6 88/136/6 86/137/6 90/128/6
f 89/134/40 96/129/40 93/131/40 85/138/40
f 91/133/38 95/127/38 96/129/38 89/134/38
f 87/139/41 94/125/41 95/127/41 91/133/41
f 85/140/36 93/122/36 94/125/36 87/139/36
f 120/66/2 100/60/2 101/141/2 102/142/2
f 98/143/4 102/142/4 106/144/4 103/145/4
f 97/72/5 120/66/5 102/142/5 98/143/5
f 100/60/6 119/59/6 99/146/6 101/141/6
f 105/147/6 104/148/6 108/149/6 109/150/6
f 101/141/4 99/146/4 104/148/4 105/147/4
f 102/142/4 101/141/4 105/147/4 106/144/4
f 99/151/4 98/152/4 103/153/4 104/154/4
f 107/155/4 110/156/4 114/157/4 111/158/4
f 106/144/2 105/147/2 109/150/2 110/156/2
f 103/145/5 106/144/5 110/156/5 107/155/5
f 104/154/1 103/153/1 107/159/1 108/160/1
f 111/158/5 114/157/5 127/70/5 128/161/5
f 108/160/4 107/159/4 111/162/4 112/163/4
f 109/150/4 108/149/4 112/164/4 113/165/4
f 110/156/4 109/150/4 113/165/4 114/157/4
f 112/163/1 111/162/1 128/166/1 126/167/1
f 113/165/6 112/164/6 126/168/6 122/63/6
f 114/157/2 113/165/2 122/63/2 127/70/2
f 98/152/1 99/151/1 119/76/1 97/75/1
f 117/169/5 42/170/5 129/171/5 130/172/5
f 42/170/4 117/169/4 122/63/4 121/62/4
f 41/173/4 39/174/4 123/68/4 124/67/4
f 40/175/4 42/170/4 121/62/4 125/61/4
f 116/176/4 40/175/4 125/61/4 126/64/4
f 118/177/4 41/173/4 124/67/4 127/70/4
f 39/174/4 115/178/4 128/69/4 123/68/4
f 115/178/4 116/176/4 126/64/4 128/69/4
f 117/169/4 118/177/4 127/70/4 122/63/4
f 132/179/4 135/180/4 130/172/4 129/171/4 133/181/4 134/182/4 136/183/4 131/184/4
f 118/177/1 117/169/1 130/172/1 135/180/1
f 115/178/6 39/174/6 131/184/6 136/183/6
f 40/175/5 116/176/5 134/182/5 133/181/5
f 39/174/6 41/173/6 132/179/6 131/184/6
f 116/176/2 115/178/2 136/183/2 134/182/2
f 41/173/6 118/177/6 135/180/6 132/179/6
f 42/170/5 40/175/5 133/181/5 129/171/5
o HK_416_Magazine_Cube.027
v -0.009961 0.020778 0.189406
v 0.009961 0.020778 0.189406
v 0.009961 0.020778 0.115456
v -0.009961 0.020778 0.115456
v -0.009961 -0.093989 0.217820
v 0.009961 -0.093989 0.217820
v 0.009961 -0.126860 0.147521
v -0.009961 -0.126860 0.147521
v 0.009961 -0.037330 0.117724
v -0.009961 -0.037330 0.117724
v -0.009961 -0.037330 0.195016
v 0.009961 -0.037330 0.195015
v -0.009961 0.071057 0.189406
v 0.009961 0.071057 0.189406
v 0.009961 0.071057 0.115456
v -0.009961 0.071057 0.115456
v -0.007987 0.071057 0.187184
v 0.007987 0.071057 0.187184
v 0.007987 0.071057 0.117678
v -0.007987 0.071057 0.117678
v -0.007987 0.021347 0.187184
v 0.007987 0.021347 0.187184
v 0.007987 0.021347 0.117678
v -0.007987 0.021347 0.117678
v -0.007987 -0.031494 0.190181
v 0.007987 -0.031494 0.190181
v 0.007987 -0.042417 0.121539
v -0.007987 -0.042417 0.121539
v -0.007987 -0.121961 0.149827
v -0.007987 -0.093319 0.213157
v 0.007987 -0.093319 0.213157
v 0.007987 -0.121961 0.149827
vt 0.096682 0.959476
vt 0.097919 0.959476
vt 0.097919 0.959476
vt 0.096682 0.959476
vt 0.097919 0.959694
vt 0.096682 0.959694
vt 0.097919 0.959694
vt 0.096682 0.959694
vt 0.096682 0.959694
vt 0.096682 0.959476
vt 0.097919 0.959476
vt 0.097919 0.959694
vt 0.096682 0.959476
vt 0.097919 0.959476
vt 0.097919 0.959694
vt 0.096682 0.959694
vt 0.096682 0.959476
vt 0.097919 0.959476
vt 0.097919 0.959694
vt 0.096682 0.959694
vt 0.097919 0.959694
vt 0.096682 0.959694
vt 0.097919 0.959476
vt 0.096682 0.959476
vt 0.097919 0.959476
vt 0.097919 0.959694
vt 0.096682 0.959694
vt 0.096682 0.959476
vt 0.096682 0.959476
vt 0.097919 0.959476
vt 0.097919 0.959694
vt 0.096682 0.959694
vn 0.0000 -0.3158 -0.9488
vn 0.0000 -0.9059 0.4236
vn 0.0000 0.3734 0.9277
vn 1.0000 0.0000 0.0000
vn -1.0000 0.0000 0.0000
vn 0.0000 0.0961 0.9954
vn 0.0000 -0.0390 -0.9992
vn 0.0000 0.0000 -1.0000
vn 0.0000 0.0000 1.0000
vn 0.0000 1.0000 0.0000
vn 0.0000 0.0604 0.9982
vn 0.0000 -0.0566 -0.9984
vn 0.0000 0.3351 0.9422
vn 0.0000 -0.3483 -0.9374
vn 0.0000 0.9111 -0.4121
usemtl Dark_Gray
s off
f 146/185/42 145/186/42 143/187/42 144/188/42
f 144/188/43 143/187/43 142/189/43 141/190/43
f 148/191/44 147/192/44 141/190/44 142/189/44
f 145/186/45 148/191/45 142/189/45 143/187/45
f 147/192/46 146/185/46 144/188/46 141/190/46
f 137/193/46 140/194/46 146/185/46 147/192/46
f 139/195/45 138/196/45 148/191/45 145/186/45
f 138/196/47 137/193/47 147/192/47 148/191/47
f 140/194/48 139/195/48 145/186/48 146/185/48
f 139/195/49 140/194/49 152/197/49 151/198/49
f 137/193/50 138/196/50 150/199/50 149/200/50
f 138/196/45 139/195/45 151/198/45 150/199/45
f 140/194/46 137/193/46 149/200/46 152/197/46
f 151/198/51 152/197/51 156/201/51 155/202/51
f 149/200/51 150/199/51 154/203/51 153/204/51
f 150/199/51 151/198/51 155/202/51 154/203/51
f 152/197/51 149/200/51 153/204/51 156/201/51
f 153/204/49 154/203/49 158/205/49 157/206/49
f 154/203/46 155/202/46 159/207/46 158/205/46
f 156/201/45 153/204/45 157/206/45 160/208/45
f 155/202/50 156/201/50 160/208/50 159/207/50
f 158/205/46 159/207/46 163/209/46 162/210/46
f 160/208/45 157/206/45 161/211/45 164/212/45
f 159/207/52 160/208/52 164/212/52 163/209/52
f 157/206/53 158/205/53 162/210/53 161/211/53
f 163/209/54 164/212/54 165/213/54 168/214/54
f 161/211/55 162/210/55 167/215/55 166/216/55
f 162/210/46 163/209/46 168/214/46 167/215/46
f 164/212/45 161/211/45 166/216/45 165/213/45
f 165/213/56 166/216/56 167/215/56 168/214/56
