# Blender v2.81 (sub 16) OBJ File: 'Low Poly assets.blend'
# www.blender.org
mtllib SPAS-12_Shotgun.mtl
o SPAS-12_Cube.030
v -0.017888 0.046462 0.206809
v -0.017888 0.107392 0.206809
v -0.017888 0.046462 -0.034361
v -0.017888 0.090272 -0.034361
v 0.017891 0.046462 0.206809
v 0.017891 0.107392 0.206809
v 0.017891 0.046462 -0.034361
v 0.017891 0.090272 -0.034361
v -0.022074 0.035469 0.206809
v -0.022074 0.114519 0.206809
v 0.022076 0.035469 0.206809
v 0.022076 0.114519 0.206809
v -0.022074 0.035469 0.567965
v -0.022074 0.107340 0.552503
v 0.022076 0.035469 0.567965
v 0.022076 0.107340 0.552503
v 0.022076 0.035469 0.339895
v -0.022074 0.035469 0.339895
v -0.022074 0.107340 0.339895
v 0.022076 0.107340 0.339895
v -0.022074 0.035469 0.319931
v -0.022074 0.114519 0.319931
v 0.022076 0.114519 0.319931
v 0.022076 0.035469 0.319931
v -0.017888 0.046462 0.025656
v -0.017888 0.107392 0.025656
v 0.017891 0.046462 0.025656
v 0.017891 0.107392 0.025656
v -0.017888 -0.066744 -0.038227
v 0.017891 -0.066744 -0.038227
v -0.017888 -0.066744 0.013507
v 0.017891 -0.066744 0.013507
v -0.017888 -0.046563 -0.049792
v -0.017888 -0.046563 0.005560
v 0.017891 -0.046563 0.005560
v 0.017891 -0.046563 -0.049792
v -0.017888 0.014312 0.036402
v 0.017891 0.024805 -0.012422
v -0.017888 0.024805 -0.012422
v 0.017891 0.014312 0.036402
v -0.017888 0.076927 0.025656
v -0.017888 0.061188 -0.041542
v 0.017891 0.061188 -0.041542
v 0.017891 0.076927 0.025656
v -0.028235 0.028266 0.419171
v -0.028235 0.092870 0.419171
v -0.028235 0.028266 0.310389
v -0.028235 0.092870 0.310389
v 0.028238 0.028266 0.419171
v 0.028238 0.092870 0.419171
v 0.028238 0.028266 0.310389
v 0.028238 0.092870 0.310389
v -0.028235 0.019522 0.285999
v -0.028235 0.092870 0.285999
v 0.028238 0.019522 0.285999
v 0.028238 0.092870 0.285999
v -0.028235 0.018602 0.450005
v -0.028235 0.092870 0.450005
v 0.028238 0.018602 0.450005
v 0.028238 0.092870 0.450005
v -0.028235 0.018602 0.507527
v -0.028235 0.092870 0.527316
v 0.028238 0.018602 0.507527
v 0.028238 0.092870 0.527316
v -0.028235 0.025044 0.542964
v -0.028235 0.075843 0.550327
v 0.028238 0.025044 0.542964
v 0.028238 0.075843 0.550327
v -0.028235 0.023663 0.565511
v -0.028235 0.031665 0.567353
v 0.028238 0.023663 0.565511
v 0.028238 0.031665 0.567353
v -0.002159 0.045244 0.054414
v -0.002159 0.017502 0.053773
v -0.007434 0.004135 0.067657
v 0.007436 0.004135 0.067657
v -0.007434 0.020434 0.089068
v 0.007436 0.020434 0.089068
v -0.007434 0.030213 0.120771
v 0.007436 0.030213 0.120771
v -0.007434 0.051177 0.127034
v 0.007436 0.051177 0.127034
v -0.007434 0.050921 0.013746
v 0.007436 0.050921 0.013746
v 0.007436 0.014312 0.036402
v -0.007434 0.014312 0.036402
v -0.005330 0.034251 0.037081
v 0.005169 0.034251 0.037081
v -0.005248 0.009020 0.066964
v 0.005251 0.009020 0.066964
v -0.005248 0.019354 0.079983
v 0.005251 0.019354 0.079983
v -0.005248 0.036387 0.082154
v 0.005251 0.036387 0.082154
v -0.005248 0.042346 0.074461
v 0.005251 0.042346 0.074461
v -0.005248 0.043515 0.040316
v 0.005251 0.043515 0.040316
v 0.005210 0.018184 0.042436
v -0.005289 0.018184 0.042436
v -0.002159 0.017502 0.047940
v -0.002159 0.045244 0.037713
v 0.002161 0.017502 0.053773
v 0.002161 0.045244 0.054414
v 0.002161 0.017502 0.047940
v 0.002161 0.045244 0.037713
v 0.002161 0.029263 0.043603
v -0.002159 0.029263 0.043603
v -0.002159 0.029529 0.049249
v 0.002161 0.029529 0.049249
v -0.011009 0.074227 0.718259
v -0.011009 0.096248 0.718259
v -0.011009 0.074227 0.544836
v -0.011009 0.096248 0.544836
v 0.011011 0.074227 0.718259
v 0.011011 0.096248 0.718259
v 0.011011 0.074227 0.544836
v 0.011011 0.096248 0.544836
v -0.013800 0.071437 0.722863
v -0.013800 0.099039 0.722863
v 0.013802 0.071437 0.722863
v 0.013802 0.099039 0.722863
v -0.009122 0.076115 0.768881
v -0.009122 0.094361 0.768881
v 0.009124 0.076115 0.768881
v 0.009124 0.094361 0.768881
v -0.011009 0.037768 0.759217
v -0.011009 0.062759 0.759217
v -0.011009 0.037768 0.551279
v -0.011009 0.062759 0.551279
v 0.011011 0.037768 0.759217
v 0.011011 0.062759 0.759217
v 0.011011 0.037768 0.551279
v 0.011011 0.062759 0.551279
v -0.013800 0.071437 0.768881
v -0.013800 0.099039 0.768881
v 0.013802 0.099039 0.768881
v 0.013802 0.071437 0.768881
v -0.009122 0.076115 0.566286
v -0.009122 0.094361 0.566286
v 0.009124 0.094361 0.566286
v 0.009124 0.076115 0.566286
v -0.006970 0.103829 0.244097
v -0.006970 0.121042 0.244097
v -0.006970 0.103829 0.238832
v -0.006970 0.121042 0.238832
v 0.006973 0.103829 0.244097
v 0.006973 0.121042 0.244097
v 0.006973 0.103829 0.238832
v 0.006973 0.121042 0.238832
v -0.006970 0.103829 0.261210
v -0.006970 0.116156 0.261210
v 0.006973 0.103829 0.261210
v 0.006973 0.116156 0.261210
v 0.004588 0.103829 0.238832
v -0.004586 0.103829 0.238832
v -0.004586 0.121133 0.238832
v 0.004588 0.121133 0.238832
v -0.004586 0.103829 0.244097
v 0.004588 0.103829 0.244097
v 0.004588 0.121133 0.244097
v -0.004586 0.121133 0.244097
v -0.004586 0.103829 0.261210
v 0.004588 0.103829 0.261210
v 0.004588 0.116156 0.261210
v -0.004586 0.116156 0.261210
v -0.006970 0.128819 0.244097
v -0.006970 0.128819 0.238832
v 0.004588 0.130555 0.238832
v 0.006973 0.128819 0.238832
v 0.006973 0.128819 0.244097
v -0.004586 0.130555 0.244097
v -0.004586 0.130555 0.238832
v 0.004588 0.130555 0.244097
v -0.006970 0.132655 0.244097
v -0.006970 0.132655 0.238832
v 0.004588 0.132655 0.238832
v 0.006973 0.132655 0.238832
v 0.006973 0.132655 0.244097
v -0.004586 0.132655 0.244097
v -0.004586 0.132655 0.238832
v 0.004588 0.132655 0.244097
v -0.003598 0.091750 0.715950
v -0.001474 0.116608 0.710838
v -0.003598 0.091750 0.697895
v -0.001474 0.116608 0.697895
v 0.003601 0.091750 0.715950
v 0.001477 0.116608 0.710838
v 0.003601 0.091750 0.697895
v 0.001477 0.116608 0.697895
vt 0.089103 0.958882
vt 0.091037 0.958882
vt 0.091037 0.959845
vt 0.089103 0.959845
vt 0.091037 0.963713
vt 0.089103 0.963713
vt 0.089103 0.964676
vt 0.091037 0.964676
vt 0.092971 0.964676
vt 0.092971 0.967582
vt 0.089103 0.967582
vt 0.085234 0.964676
vt 0.085234 0.967582
vt 0.096840 0.964676
vt 0.096840 0.967582
vt 0.092971 0.963713
vt 0.096840 0.963713
vt 0.089103 0.958882
vt 0.089103 0.959845
vt 0.089103 0.959845
vt 0.089103 0.958882
vt 0.089103 0.955976
vt 0.092971 0.955976
vt 0.092971 0.958882
vt 0.085234 0.963713
vt 0.089103 0.963713
vt 0.089103 0.964676
vt 0.085234 0.964676
vt 0.089103 0.963713
vt 0.089103 0.964676
vt 0.085234 0.964676
vt 0.089103 0.959845
vt 0.089103 0.963713
vt 0.089103 0.964676
vt 0.087813 0.964676
vt 0.086524 0.964676
vt 0.085234 0.964676
vt 0.089103 0.958882
vt 0.092971 0.959845
vt 0.089103 0.955976
vt 0.092971 0.955976
vt 0.092971 0.959845
vt 0.089103 0.959845
vt 0.096840 0.963713
vt 0.092971 0.963713
vt 0.092971 0.963713
vt 0.096840 0.963713
vt 0.089103 0.963713
vt 0.092971 0.967582
vt 0.089103 0.967582
vt 0.089103 0.955976
vt 0.092971 0.955976
vt 0.085234 0.963713
vt 0.085234 0.967582
vt 0.096840 0.967582
vt 0.089103 0.959845
vt 0.092971 0.959845
vt 0.089103 0.963713
vt 0.085234 0.963713
vt 0.092971 0.967582
vt 0.096840 0.967582
vt 0.096840 0.967582
vt 0.092971 0.967582
vt 0.089103 0.967582
vt 0.085234 0.967582
vt 0.085234 0.967582
vt 0.089103 0.967582
vt 0.089103 0.967582
vt 0.085234 0.967582
vt 0.089103 0.955976
vt 0.092971 0.955976
vt 0.089103 0.967582
vt 0.085234 0.967582
vt 0.089103 0.955976
vt 0.092971 0.955976
vt 0.096840 0.967582
vt 0.092971 0.967582
vt 0.092971 0.967582
vt 0.092971 0.971450
vt 0.089103 0.971450
vt 0.089103 0.955976
vt 0.092971 0.955976
vt 0.096840 0.967582
vt 0.083300 0.955976
vt 0.083300 0.955976
vt 0.083300 0.955976
vt 0.083300 0.955976
vt 0.083300 0.955976
vt 0.083300 0.955976
vt 0.083300 0.955976
vt 0.083300 0.955976
vt 0.083300 0.955976
vt 0.083300 0.955976
vt 0.083300 0.955976
vt 0.083300 0.955976
vt 0.083300 0.955976
vt 0.083300 0.955976
vt 0.083300 0.955976
vt 0.083300 0.955976
vt 0.083300 0.955976
vt 0.083300 0.955976
vt 0.083300 0.955976
vt 0.083300 0.955976
vt 0.083300 0.955976
vt 0.087813 0.964676
vt 0.086524 0.964676
vt 0.086524 0.964676
vt 0.087813 0.964676
vt 0.086524 0.964676
vt 0.087813 0.964676
vt 0.086524 0.964676
vt 0.087813 0.964676
vt 0.086524 0.964676
vt 0.087813 0.964676
vt 0.086524 0.964676
vt 0.087813 0.964676
vt 0.086524 0.964676
vt 0.087813 0.964676
vt 0.083300 0.955976
vt 0.083300 0.955976
vt 0.090743 0.955976
vt 0.092971 0.955976
vt 0.092971 0.959845
vt 0.090743 0.959845
vt 0.083300 0.955976
vt 0.083300 0.955976
vt 0.083300 0.955976
vt 0.092971 0.963713
vt 0.090743 0.963713
vt 0.092971 0.967582
vt 0.090743 0.967582
vt 0.092971 0.971450
vt 0.090743 0.971450
vt 0.085234 0.963713
vt 0.089103 0.963713
vt 0.089103 0.967582
vt 0.085234 0.967582
vt 0.089103 0.971450
vt 0.089103 0.959845
vt 0.089103 0.955976
vt 0.089945 0.968424
vt 0.092129 0.968424
vt 0.092129 0.970608
vt 0.089945 0.970608
vt 0.089103 0.955976
vt 0.092971 0.955976
vt 0.092971 0.959845
vt 0.089103 0.959845
vt 0.089103 0.962424
vt 0.092971 0.962424
vt 0.092971 0.963713
vt 0.089103 0.963713
vt 0.092971 0.967582
vt 0.089103 0.967582
vt 0.095550 0.967582
vt 0.096840 0.967582
vt 0.096840 0.967582
vt 0.095550 0.967582
vt 0.087813 0.963713
vt 0.087813 0.967582
vt 0.095550 0.967582
vt 0.096840 0.967582
vt 0.089103 0.970161
vt 0.092971 0.970161
vt 0.092971 0.971450
vt 0.089103 0.971450
vt 0.092971 0.967582
vt 0.089103 0.967582
vt 0.089103 0.955976
vt 0.092971 0.955976
vt 0.087813 0.967582
vt 0.085234 0.967582
vt 0.086524 0.967582
vt 0.086524 0.967582
vt 0.085234 0.967582
vt 0.092971 0.968871
vt 0.089103 0.968871
vt 0.092971 0.961134
vt 0.092971 0.959845
vt 0.092971 0.961134
vt 0.094261 0.963713
vt 0.095550 0.963713
vt 0.094261 0.967582
vt 0.085234 0.963713
vt 0.086524 0.963713
vt 0.094261 0.967582
vt 0.089103 0.961134
vt 0.095550 0.963713
vt 0.095550 0.967582
vt 0.094261 0.967582
vt 0.094261 0.963713
vt 0.092971 0.955976
vt 0.092971 0.955976
vt 0.092971 0.959845
vt 0.092971 0.962424
vt 0.092971 0.963713
vt 0.094261 0.967582
vt 0.094261 0.963713
vt 0.092971 0.967582
vt 0.095550 0.963713
vt 0.096840 0.963713
vt 0.096840 0.967582
vt 0.092971 0.963713
vt 0.092971 0.967582
vt 0.092971 0.962424
vt 0.092971 0.961134
vt 0.156963 0.966666
vt 0.160832 0.966666
vt 0.160832 0.966666
vt 0.156963 0.966666
vt 0.149226 0.966666
vt 0.153095 0.966666
vt 0.153095 0.966666
vt 0.149226 0.966666
vt 0.153095 0.966666
vt 0.153095 0.966666
vt 0.156963 0.955060
vt 0.153095 0.955060
vt 0.153095 0.955060
vt 0.156963 0.955060
vt 0.149226 0.966666
vt 0.149226 0.966666
vt 0.156963 0.966666
vt 0.156963 0.970534
vt 0.153095 0.970534
vt 0.156963 0.955060
vt 0.153095 0.955060
vt 0.153095 0.955060
vt 0.156963 0.955060
vt 0.156963 0.966666
vt 0.160832 0.966666
vt 0.160832 0.966666
vt 0.153095 0.966666
vt 0.156963 0.966666
vt 0.160832 0.966666
vt 0.156963 0.955060
vt 0.153095 0.955060
vt 0.149226 0.966666
vt 0.155536 0.960649
vt 0.159405 0.960649
vt 0.159405 0.964518
vt 0.155536 0.964518
vt 0.159405 0.960649
vt 0.155536 0.960649
vt 0.155536 0.960649
vt 0.159405 0.960649
vt 0.155536 0.968386
vt 0.159405 0.968386
vt 0.159405 0.972255
vt 0.155536 0.972255
vt 0.151668 0.968386
vt 0.151668 0.972255
vt 0.163273 0.968386
vt 0.163273 0.972255
vt 0.155536 0.972255
vt 0.151668 0.972255
vt 0.163273 0.972255
vt 0.159405 0.972255
vt 0.158562 0.973097
vt 0.158562 0.975281
vt 0.158562 0.975281
vt 0.158562 0.973097
vt 0.163273 0.972255
vt 0.159405 0.972255
vt 0.155536 0.972255
vt 0.151668 0.972255
vt 0.155536 0.960649
vt 0.159405 0.960649
vt 0.159405 0.964518
vt 0.155536 0.964518
vt 0.155536 0.968386
vt 0.159405 0.968386
vt 0.159405 0.972255
vt 0.155536 0.972255
vt 0.151668 0.968386
vt 0.151668 0.972255
vt 0.163273 0.968386
vt 0.163273 0.972255
vt 0.156379 0.975281
vt 0.159405 0.976123
vt 0.155536 0.976123
vt 0.156379 0.973097
vt 0.156379 0.973097
vt 0.156379 0.975281
vt 0.155536 0.960649
vt 0.159405 0.960649
vt 0.159405 0.964518
vt 0.155536 0.964518
vt 0.159405 0.968386
vt 0.155536 0.968386
vt 0.159405 0.972255
vt 0.155536 0.972255
vt 0.159405 0.976123
vt 0.155536 0.976123
vt 0.163273 0.968386
vt 0.163273 0.972255
vn -1.0000 0.0000 0.0000
vn 0.0000 -0.4383 -0.8988
vn 1.0000 0.0000 0.0000
vn 0.0000 -1.0000 0.0000
vn 0.0000 1.0000 0.0000
vn 0.0000 0.9616 -0.2743
vn 0.0000 0.3664 0.9305
vn 0.0000 -0.4972 -0.8676
vn 0.0000 0.4639 -0.8859
vn 0.0000 -0.4519 0.8920
vn 0.0000 0.3170 0.9484
vn 0.0000 -0.7117 -0.7025
vn 0.0000 0.2397 -0.9709
vn 0.0000 0.0000 -1.0000
vn 0.0000 -0.9413 0.3375
vn 0.0000 -0.9542 -0.2991
vn 0.0000 -0.9839 0.1789
vn 0.0000 -0.9981 -0.0611
vn 0.0000 0.8039 0.5948
vn 0.0000 -0.2243 0.9745
vn 0.0000 0.3596 0.9331
vn 0.8994 0.3458 -0.2675
vn -0.8994 0.3458 -0.2675
vn 0.9989 -0.0025 -0.0478
vn -0.9989 -0.0025 -0.0478
vn 0.9891 0.0558 0.1360
vn 0.9525 0.0985 0.2882
vn 0.0000 0.9368 0.3500
vn 0.0000 0.7833 -0.6217
vn 0.0000 0.1264 -0.9920
vn 0.0000 -0.7905 -0.6124
vn 0.0000 -0.9994 -0.0342
vn 0.0000 -0.3297 0.9441
vn -0.9663 -0.2576 -0.0016
vn 0.0000 0.0340 -0.9994
vn 0.9663 -0.2576 -0.0016
vn -0.9916 0.1011 -0.0801
vn 0.9916 0.1011 -0.0801
vn -0.9181 0.3744 0.1305
vn -0.9899 0.0567 0.1297
vn 0.0000 -0.7957 0.6057
vn 0.0000 -0.9556 0.2947
vn 0.0000 -0.2862 0.9582
vn -0.9554 0.0912 0.2810
vn 0.0000 -0.9509 -0.3096
vn 0.0000 0.3162 0.9487
vn 0.9152 0.3809 0.1314
vn 0.0000 -0.3459 -0.9383
vn 0.0000 -0.3123 0.9500
vn 0.0000 0.3521 0.9360
vn 0.0000 0.0000 1.0000
vn -0.0183 0.9607 0.2768
vn 0.0183 0.9607 0.2768
vn 0.0000 0.9602 0.2792
vn 0.0000 0.2103 0.9776
vn 0.0000 0.9410 0.3384
vn -0.8551 0.0000 -0.5184
vn 0.0000 -0.8552 -0.5183
vn 0.0000 0.8551 -0.5185
vn 0.8551 0.0000 -0.5184
vn -0.9964 0.0851 0.0000
vn 0.9964 0.0851 0.0000
vn 0.0000 0.2014 0.9795
usemtl Black
s off
f 25/1/1 41/2/1 42/3/1 3/4/1
f 3/4/2 42/3/2 43/5/2 7/6/2
f 27/7/3 44/8/3 28/9/3 6/10/3 5/11/3
f 25/12/4 27/7/4 5/11/4 1/13/4
f 28/9/5 26/14/5 2/15/5 6/10/5
f 8/16/6 4/17/6 26/14/6 28/9/6
f 34/18/1 33/19/1 29/20/1 31/21/1
f 7/6/3 43/5/3 44/8/3 27/7/3
f 1/22/1 2/23/1 26/24/1 41/2/1 25/1/1
f 29/25/4 30/26/4 32/27/4 31/28/4
f 36/29/3 35/30/3 32/27/3 30/26/3
f 35/30/7 34/31/7 31/28/7 32/27/7
f 33/19/8 36/29/8 30/26/8 29/20/8
f 39/32/9 38/33/9 36/29/9 33/19/9
f 40/34/10 85/35/10 86/36/10 37/37/10 34/31/10 35/30/10
f 38/33/3 40/34/3 35/30/3 36/29/3
f 37/38/1 39/32/1 33/19/1 34/18/1
f 25/1/1 3/4/1 39/32/1 37/38/1
f 7/6/3 27/7/3 40/34/3 38/33/3
f 27/7/11 25/12/11 37/37/11 86/36/11 85/35/11 40/34/11
f 3/4/12 7/6/12 38/33/12 39/32/12
f 43/5/13 42/3/13 4/39/13 8/16/13
f 42/3/1 41/2/1 26/24/1 4/39/1
f 44/8/3 43/5/3 8/16/3 28/9/3
f 45/40/1 46/41/1 48/42/1 47/43/1
f 48/44/5 52/45/5 56/46/5 54/47/5
f 51/48/3 52/45/3 50/49/3 49/50/3
f 46/41/1 45/40/1 57/51/1 58/52/1
f 47/53/4 51/48/4 49/50/4 45/54/4
f 52/45/5 48/44/5 46/55/5 50/49/5
f 53/56/14 54/57/14 56/46/14 55/58/14
f 47/43/1 48/42/1 54/57/1 53/56/1
f 52/45/3 51/48/3 55/58/3 56/46/3
f 51/48/15 47/53/15 53/59/15 55/58/15
f 60/60/5 58/61/5 62/62/5 64/63/5
f 45/54/16 49/50/16 59/64/16 57/65/16
f 50/49/5 46/55/5 58/61/5 60/60/5
f 49/50/3 50/49/3 60/60/3 59/64/3
f 61/66/17 63/67/17 67/68/17 65/69/17
f 59/64/3 60/60/3 64/63/3 63/67/3
f 57/65/4 59/64/4 63/67/4 61/66/4
f 58/52/1 57/51/1 61/70/1 62/71/1
f 65/69/18 67/68/18 71/72/18 69/73/18
f 62/71/1 61/70/1 65/74/1 66/75/1
f 64/63/19 62/62/19 66/76/19 68/77/19
f 63/67/3 64/63/3 68/77/3 67/68/3
f 71/72/20 72/78/20 70/79/20 69/80/20
f 66/75/1 65/74/1 69/81/1 70/82/1
f 68/77/21 66/76/21 70/83/21 72/78/21
f 67/68/3 68/77/3 72/78/3 71/72/3
f 78/84/22 76/85/22 90/86/22 92/87/22
f 75/88/23 77/89/23 91/90/23 89/91/23
f 82/92/24 80/93/24 94/94/24 96/95/24
f 79/96/25 81/97/25 95/98/25 93/99/25
f 85/100/26 84/101/26 98/102/26 88/103/26
f 85/100/27 88/103/27 99/104/27
f 99/105/28 100/106/28 89/107/28 90/108/28
f 90/108/29 89/107/29 91/109/29 92/110/29
f 92/110/30 91/109/30 93/111/30 94/112/30
f 94/112/31 93/111/31 95/113/31 96/114/31
f 96/114/32 95/113/32 97/115/32 98/116/32
f 98/116/33 97/115/33 87/117/33 88/118/33
f 81/97/34 83/119/34 97/120/34 95/98/34
f 85/35/35 86/36/35 87/117/35 88/118/35
f 84/101/36 82/92/36 96/95/36 98/102/36
f 77/89/37 79/96/37 93/99/37 91/90/37
f 109/121/1 73/122/1 102/123/1 108/124/1
f 80/93/38 78/84/38 92/87/38 94/94/38
f 86/125/39 75/88/39 89/91/39 100/126/39
f 83/119/40 86/125/40 87/127/40 97/120/40
f 75/88/41 76/85/41 78/84/41 77/89/41
f 77/89/42 78/84/42 80/93/42 79/96/42
f 79/96/43 80/93/43 82/92/43 81/97/43
f 86/125/44 100/126/44 87/127/44
f 76/85/45 75/88/45 86/125/45 85/35/45
f 88/118/46 87/117/46 100/106/46 99/105/46
f 76/85/47 85/100/47 99/104/47 90/86/47
f 108/124/48 102/123/48 106/128/48 107/129/48
f 107/129/3 106/128/3 104/130/3 110/131/3
f 110/131/49 104/130/49 73/132/49 109/133/49
f 101/134/4 105/135/4 103/136/4 74/137/4
f 103/136/50 110/131/50 109/133/50 74/138/50
f 105/135/3 107/129/3 110/131/3 103/136/3
f 101/139/48 108/124/48 107/129/48 105/135/48
f 74/140/1 109/121/1 108/124/1 101/139/1
f 142/141/51 141/142/51 140/143/51 139/144/51
f 143/145/1 144/146/1 146/147/1 145/148/1
f 155/149/14 158/150/14 150/151/14 149/152/14
f 149/152/3 150/151/3 148/153/3 147/154/3
f 162/155/52 144/156/52 152/157/52 166/158/52
f 155/159/4 149/152/4 147/154/4 160/160/4
f 144/156/51 162/155/51 172/161/51 167/162/51
f 163/163/51 166/164/51 152/165/51 151/166/51
f 147/154/3 148/153/3 154/167/3 153/168/3
f 144/146/1 143/145/1 151/169/1 152/170/1
f 160/160/4 147/154/4 153/168/4 164/171/4
f 143/172/4 159/173/4 163/174/4 151/175/4
f 159/173/4 160/160/4 164/171/4 163/174/4
f 153/168/51 154/167/51 165/176/51 164/177/51
f 164/177/51 165/176/51 166/164/51 163/163/51
f 157/178/14 146/147/14 168/179/14 173/180/14
f 158/181/5 157/182/5 162/155/5 161/183/5
f 145/184/4 156/185/4 159/173/4 143/172/4
f 156/185/4 155/159/4 160/160/4 159/173/4
f 148/153/53 161/183/53 165/186/53 154/167/53
f 161/183/54 162/155/54 166/158/54 165/186/54
f 145/148/14 146/147/14 157/178/14 156/187/14
f 156/187/14 157/178/14 158/150/14 155/149/14
f 181/188/5 180/189/5 182/190/5 177/191/5
f 168/179/1 167/192/1 175/193/1 176/194/1
f 150/151/14 158/150/14 169/195/14 170/196/14
f 158/181/1 161/183/1 174/197/1 169/198/1
f 148/153/3 150/151/3 170/196/3 171/199/3
f 162/155/3 157/182/3 173/200/3 172/161/3
f 161/183/51 148/153/51 171/199/51 174/197/51
f 146/147/1 144/146/1 167/192/1 168/179/1
f 181/188/5 176/201/5 175/202/5 180/189/5
f 178/203/5 177/191/5 182/190/5 179/204/5
f 174/197/51 171/199/51 179/204/51 182/190/51
f 167/162/51 172/161/51 180/189/51 175/202/51
f 170/196/14 169/195/14 177/205/14 178/203/14
f 173/180/14 181/206/14 177/205/14 169/195/14
f 173/180/14 168/179/14 176/194/14 181/206/14
f 171/199/3 170/196/3 178/203/3 179/204/3
f 180/189/51 172/161/51 174/197/51 182/190/51
f 172/161/4 173/200/4 169/198/4 174/197/4
usemtl Dark_Gray
f 6/207/14 2/208/14 10/209/14 12/210/14
f 18/211/4 17/212/4 15/213/4 13/214/4
f 5/215/14 6/207/14 12/210/14 11/216/14
f 2/217/14 1/218/14 9/219/14 10/220/14
f 1/221/14 5/215/14 11/216/14 9/222/14
f 15/213/55 16/223/55 14/224/55 13/225/55
f 19/226/1 18/227/1 13/228/1 14/229/1
f 20/230/5 19/231/5 14/232/5 16/223/5
f 17/212/3 20/230/3 16/223/3 15/213/3
f 24/233/3 23/234/3 20/230/3 17/212/3
f 23/234/56 22/235/56 19/231/56 20/230/56
f 22/236/1 21/237/1 18/227/1 19/226/1
f 21/238/4 24/233/4 17/212/4 18/211/4
f 9/222/4 11/216/4 24/233/4 21/238/4
f 10/220/1 9/219/1 21/237/1 22/236/1
f 12/210/5 10/209/5 22/235/5 23/234/5
f 11/216/3 12/210/3 23/234/3 24/233/3
f 111/239/1 112/240/1 114/241/1 113/242/1
f 120/243/1 119/244/1 135/245/1 136/246/1
f 117/247/3 118/248/3 116/249/3 115/250/3
f 112/240/57 111/239/57 119/244/57 120/243/57
f 113/251/4 117/247/4 115/250/4 111/252/4
f 118/248/5 114/253/5 112/254/5 116/249/5
f 111/252/58 115/250/58 121/255/58 119/256/58
f 116/249/59 112/254/59 120/257/59 122/258/59
f 115/250/60 116/249/60 122/258/60 121/255/60
f 126/259/4 124/260/4 140/261/4 141/262/4
f 122/258/5 120/257/5 136/263/5 137/264/5
f 121/255/3 122/258/3 137/264/3 138/265/3
f 119/256/4 121/255/4 138/265/4 135/266/4
f 127/267/1 128/268/1 130/269/1 129/270/1
f 133/271/3 134/272/3 132/273/3 131/274/3
f 129/275/4 133/271/4 131/274/4 127/276/4
f 134/272/5 130/277/5 128/278/5 132/273/5
f 127/276/51 131/274/51 132/273/51 128/278/51
f 123/279/51 124/260/51 136/280/51 135/281/51
f 126/259/51 125/282/51 138/265/51 137/264/51
f 125/282/51 123/279/51 135/281/51 138/265/51
f 124/260/51 126/259/51 137/264/51 136/280/51
f 125/282/1 126/259/1 141/262/1 142/283/1
f 123/279/5 125/282/5 142/283/5 139/284/5
f 124/260/3 123/279/3 139/284/3 140/261/3
f 183/285/61 184/286/61 186/287/61 185/288/61
f 185/288/14 186/287/14 190/289/14 189/290/14
f 189/290/62 190/289/62 188/291/62 187/292/62
f 187/292/63 188/291/63 184/293/63 183/294/63
f 190/289/5 186/295/5 184/296/5 188/291/5
o SPAS-12_Stock_Cube.039
v -0.021395 0.067818 0.017498
v -0.021395 0.100755 0.017498
v -0.021395 0.016917 -0.292381
v -0.021395 0.053686 -0.292381
v 0.021395 0.067818 0.017498
v 0.021395 0.100755 0.017498
v 0.021395 0.016917 -0.292381
v 0.021395 0.053686 -0.292381
v -0.021395 0.016917 -0.134128
v -0.021395 0.053686 -0.134128
v 0.021395 0.016917 -0.134128
v 0.021395 0.053686 -0.134128
v -0.021395 0.053686 -0.257456
v 0.021395 0.016917 -0.257456
v -0.021395 0.016917 -0.257456
v 0.021395 0.053686 -0.257456
v -0.021395 -0.048760 -0.292381
v 0.021395 -0.048760 -0.292381
v 0.021395 -0.048760 -0.257456
v -0.021395 -0.048760 -0.257456
v 0.015041 0.053686 -0.134128
v 0.015041 0.100755 0.017498
v 0.015041 0.016917 -0.134128
v 0.015041 0.067818 0.017498
v -0.015697 0.053686 -0.134128
v -0.015697 0.067818 0.017498
v -0.015697 0.100755 0.017498
v -0.015697 0.016917 -0.134128
v -0.021395 0.025253 -0.109298
v 0.021395 0.061394 -0.109298
v -0.021395 0.061394 -0.109298
v 0.021395 0.025253 -0.109298
v 0.015041 0.025253 -0.109298
v 0.015041 0.061394 -0.109298
v -0.015697 0.025253 -0.109298
v -0.015697 0.061394 -0.109298
vt 0.375000 0.224026
vt 0.625000 0.224026
vt 0.625000 0.250000
vt 0.375000 0.250000
vt 0.625000 0.500000
vt 0.375000 0.500000
vt 0.375000 0.639362
vt 0.625000 0.639362
vt 0.625000 0.750000
vt 0.375000 0.750000
vt 0.625000 0.875000
vt 0.375000 0.875000
vt 0.124999 0.639361
vt 0.187500 0.639362
vt 0.187500 0.750000
vt 0.125000 0.750000
vt 0.750000 0.639362
vt 0.750000 0.750000
vt 0.625000 0.525974
vt 0.875000 0.525974
vt 0.875000 0.617695
vt 0.812500 0.617695
vt 0.750000 0.617695
vt 0.625000 0.617695
vt 0.125000 0.525974
vt 0.375000 0.525974
vt 0.375000 0.617695
vt 0.250000 0.617695
vt 0.187500 0.617695
vt 0.125000 0.617695
vt 0.375000 0.110638
vt 0.625000 0.110638
vt 0.625000 0.132305
vt 0.375000 0.132305
vt 0.125000 0.525974
vt 0.375000 0.525974
vt 0.875000 0.500000
vt 0.125000 0.500000
vt 0.375000 0.500000
vt 0.375000 0.250000
vt 0.375000 0.224026
vt 0.812500 0.750000
vt 0.812500 0.639362
vt 0.875002 0.639358
vt 0.875000 0.750000
vt 0.250000 0.639362
vt 0.375000 0.937500
vt 0.625000 0.937500
vt 0.625000 1.000000
vt 0.375000 1.000000
vt 0.250000 0.750000
vt 0.375000 0.000000
vt 0.625000 0.000000
vt 0.000000 0.000000
vt 0.000000 0.000000
vt 0.000000 0.000000
vt 0.000000 0.000000
vn -1.0000 0.0000 0.0000
vn 0.0000 0.0000 -1.0000
vn 1.0000 -0.0000 0.0000
vn 0.0000 0.0000 1.0000
vn 0.0000 -0.9480 0.3182
vn 0.0000 0.9550 -0.2965
vn 0.0000 1.0000 0.0000
vn 0.0000 -1.0000 0.0000
usemtl Dark_Gray
s off
f 205/297/64 203/298/64 194/299/64 193/300/64
f 193/300/65 194/299/65 198/301/65 197/302/65
f 222/303/66 220/304/66 196/305/66 195/306/66
f 195/306/67 196/305/67 212/307/67 214/308/67
f 219/309/68 225/310/68 216/311/68 191/312/68
f 220/304/69 224/313/69 212/314/69 196/305/69
f 206/315/70 203/316/70 200/317/70 215/318/70 211/319/70 202/320/70
f 205/321/71 204/322/71 201/323/71 213/324/71 218/325/71 199/326/71
f 204/322/66 206/315/66 202/320/66 201/323/66
f 219/327/64 221/328/64 200/329/64 199/330/64
f 197/302/66 198/301/66 206/315/66 204/322/66
f 204/322/67 205/321/67 210/331/67 209/332/67
f 198/301/70 194/333/70 203/316/70 206/315/70
f 199/330/64 200/329/64 203/298/64 205/297/64
f 207/334/71 208/335/71 209/332/71 210/331/71
f 193/300/65 197/302/65 208/335/65 207/336/65
f 205/297/64 193/300/64 207/336/64 210/337/64
f 197/302/66 204/322/66 209/332/66 208/335/66
f 217/338/69 226/339/69 221/340/69 192/341/69
f 223/342/68 213/324/68 201/323/68 222/303/68
f 224/313/69 211/319/69 215/318/69 226/339/69
f 216/343/67 217/344/67 192/345/67 191/346/67
f 225/310/68 218/325/68 213/324/68 223/342/68
f 226/339/69 215/318/69 200/317/69 221/340/69
f 225/310/67 223/342/67 224/313/67 226/339/67
f 224/313/64 223/342/64 214/347/64 212/307/64
f 214/347/68 223/342/68 222/303/68 195/306/68
f 191/348/64 192/349/64 221/328/64 219/327/64
f 202/320/69 211/319/69 224/313/69 220/304/69
f 199/326/68 218/325/68 225/310/68 219/309/68
f 201/323/66 202/320/66 220/304/66 222/303/66
f 226/350/66 217/351/66 216/352/66 225/353/66
