# Blender v2.81 (sub 16) OBJ File: 'Low Poly assets.blend'
# www.blender.org
mtllib Pistol_Bullet.mtl
o Pistol_Bullet_Cylinder.006
v 0.000164 -0.015107 -0.004566
v 0.000164 0.012676 -0.004566
v 0.004092 -0.015107 -0.002298
v 0.004092 0.012676 -0.002298
v 0.004092 -0.015107 0.002237
v 0.004092 0.012676 0.002237
v 0.000164 -0.015107 0.004505
v 0.000164 0.012676 0.004505
v -0.003764 -0.015107 0.002237
v -0.003764 0.012676 0.002237
v -0.003764 -0.015107 -0.002298
v -0.003764 0.012676 -0.002298
v 0.000164 0.019916 -0.002644
v 0.002427 0.019916 -0.001337
v 0.002427 0.019916 0.001276
v 0.000164 0.019916 0.002583
v -0.002099 0.019916 0.001276
v -0.002099 0.019916 -0.001337
vt 1.000000 0.500000
vt 1.000000 1.000000
vt 0.833333 1.000000
vt 0.833333 0.500000
vt 0.666667 1.000000
vt 0.666667 0.500000
vt 0.500000 1.000000
vt 0.500000 0.500000
vt 0.333333 1.000000
vt 0.333333 0.500000
vt 0.166667 1.000000
vt 0.166667 0.500000
vt -0.000000 1.000000
vt -0.000000 0.500000
vt 0.750000 0.490000
vt 0.957846 0.370000
vt 0.957846 0.130000
vt 0.750000 0.010000
vt 0.542154 0.130000
vt 0.542154 0.370000
vt 0.333333 1.000000
vt 0.166667 1.000000
vt 0.457846 0.370000
vt 0.250000 0.490000
vt 0.042154 0.370000
vt 0.042154 0.130000
vt 0.250000 0.010000
vt 0.457846 0.130000
vt 1.000000 1.000000
vt 0.833333 1.000000
vt 0.666667 1.000000
vt 0.500000 1.000000
vt -0.000000 1.000000
vn 0.5000 0.0000 -0.8660
vn 1.0000 0.0000 0.0000
vn 0.5000 0.0000 0.8660
vn -0.5000 0.0000 0.8660
vn -1.0000 0.0000 0.0000
vn -0.5000 0.0000 -0.8660
vn 0.0000 -1.0000 0.0000
vn -0.9746 0.2241 0.0000
vn 0.0000 1.0000 0.0000
vn 0.4873 0.2241 -0.8440
vn 0.4873 0.2241 0.8440
vn -0.4873 0.2241 -0.8440
vn -0.4873 0.2241 0.8440
vn 0.9746 0.2241 0.0000
usemtl Gold
s off
f 1/1/1 2/2/1 4/3/1 3/4/1
f 3/4/2 4/3/2 6/5/2 5/6/2
f 5/6/3 6/5/3 8/7/3 7/8/3
f 7/8/4 8/7/4 10/9/4 9/10/4
f 9/10/5 10/9/5 12/11/5 11/12/5
f 11/12/6 12/11/6 2/13/6 1/14/6
f 1/15/7 3/16/7 5/17/7 7/18/7 9/19/7 11/20/7
usemtl Bronze
f 12/11/8 10/9/8 17/21/8 18/22/8
f 14/23/9 13/24/9 18/25/9 17/26/9 16/27/9 15/28/9
f 4/3/10 2/2/10 13/29/10 14/30/10
f 8/7/11 6/5/11 15/31/11 16/32/11
f 2/13/12 12/11/12 18/22/12 13/33/12
f 10/9/13 8/7/13 16/32/13 17/21/13
f 6/5/14 4/3/14 14/30/14 15/31/14
