# Blender v2.81 (sub 16) OBJ File: 'Low Poly assets.blend'
# www.blender.org
mtllib Rifle_Bullet_5.56×45mm.mtl
o Rifle_Bullet_5.56×45mm_Cylinder.003
v -0.000000 -0.026919 -0.004749
v -0.000000 0.014552 -0.004749
v 0.004112 -0.026919 -0.002374
v 0.004112 0.014552 -0.002374
v 0.004112 -0.026919 0.002374
v 0.004112 0.014552 0.002374
v -0.000000 -0.026919 0.004749
v -0.000000 0.014552 0.004749
v -0.004112 -0.026919 0.002374
v -0.004112 0.014552 0.002374
v -0.004112 -0.026919 -0.002374
v -0.004112 0.014552 -0.002374
v 0.000000 0.022313 -0.003608
v 0.003125 0.022313 -0.001804
v 0.003125 0.022313 0.001804
v -0.000000 0.022313 0.003608
v -0.003125 0.022313 0.001804
v -0.003125 0.022313 -0.001804
v 0.000000 0.031315 -0.003130
v 0.002710 0.031315 -0.001565
v 0.002710 0.031315 0.001565
v -0.000000 0.031315 0.003130
v -0.002710 0.031315 0.001565
v -0.002710 0.031315 -0.001565
v -0.000000 0.040445 -0.000712
v 0.000617 0.040445 -0.000356
v 0.000617 0.040445 0.000356
v -0.000000 0.040445 0.000712
v -0.000617 0.040445 0.000356
v -0.000617 0.040445 -0.000356
vt 1.000000 0.500000
vt 1.000000 1.000000
vt 0.833333 1.000000
vt 0.833333 0.500000
vt 0.666667 1.000000
vt 0.666667 0.500000
vt 0.500000 1.000000
vt 0.500000 0.500000
vt 0.333333 1.000000
vt 0.333333 0.500000
vt 0.833333 1.000000
vt 0.666667 1.000000
vt 0.166667 1.000000
vt 0.166667 0.500000
vt -0.000000 1.000000
vt -0.000000 0.500000
vt 0.750000 0.490000
vt 0.957846 0.370000
vt 0.957846 0.130000
vt 0.750000 0.010000
vt 0.542154 0.130000
vt 0.542154 0.370000
vt 0.333333 1.000000
vt 0.166667 1.000000
vt 1.000000 1.000000
vt 0.500000 1.000000
vt -0.000000 1.000000
vt 0.666667 1.000000
vt 0.500000 1.000000
vt 0.833333 1.000000
vt 0.833333 1.000000
vt 0.666667 1.000000
vt 1.000000 1.000000
vt 0.166667 1.000000
vt -0.000000 1.000000
vt 0.333333 1.000000
vt 0.457846 0.370000
vt 0.250000 0.490000
vt 0.042154 0.370000
vt 0.042154 0.130000
vt 0.250000 0.010000
vt 0.457846 0.130000
vt 0.333333 1.000000
vt 0.166667 1.000000
vt 0.500000 1.000000
vt 1.000000 1.000000
vt -0.000000 1.000000
vn 0.5000 0.0000 -0.8660
vn 1.0000 0.0000 0.0000
vn 0.5000 -0.0000 0.8660
vn -0.5000 -0.0000 0.8660
vn 0.9920 0.1263 0.0000
vn -1.0000 0.0000 0.0000
vn -0.5000 0.0000 -0.8660
vn 0.0000 -1.0000 0.0000
vn -0.9920 0.1263 0.0000
vn 0.4960 0.1263 -0.8591
vn 0.4960 0.1263 0.8591
vn -0.4960 0.1263 -0.8591
vn -0.4960 0.1263 0.8591
vn 0.4995 0.0460 0.8651
vn 0.9747 0.2235 0.0000
vn 0.4995 0.0460 -0.8651
vn -0.4995 0.0460 -0.8651
vn -0.4995 0.0460 0.8651
vn 0.9989 0.0460 0.0000
vn -0.9989 0.0460 0.0000
vn 0.0000 1.0000 0.0000
vn -0.9747 0.2235 0.0000
vn 0.4874 0.2235 0.8441
vn 0.4874 0.2235 -0.8441
vn -0.4874 0.2235 -0.8441
vn -0.4874 0.2235 0.8441
usemtl Gold
s off
f 1/1/1 2/2/1 4/3/1 3/4/1
f 3/4/2 4/3/2 6/5/2 5/6/2
f 5/6/3 6/5/3 8/7/3 7/8/3
f 7/8/4 8/7/4 10/9/4 9/10/4
f 6/5/5 4/3/5 14/11/5 15/12/5
f 9/10/6 10/9/6 12/13/6 11/14/6
f 11/14/7 12/13/7 2/15/7 1/16/7
f 1/17/8 3/18/8 5/19/8 7/20/8 9/21/8 11/22/8
f 12/13/9 10/9/9 17/23/9 18/24/9
f 4/3/10 2/2/10 13/25/10 14/11/10
f 8/7/11 6/5/11 15/12/11 16/26/11
f 2/15/12 12/13/12 18/24/12 13/27/12
f 10/9/13 8/7/13 16/26/13 17/23/13
usemtl Bronze
f 16/26/14 15/12/14 21/28/14 22/29/14
f 21/28/15 20/30/15 26/31/15 27/32/15
f 14/11/16 13/25/16 19/33/16 20/30/16
f 13/27/17 18/24/17 24/34/17 19/35/17
f 17/23/18 16/26/18 22/29/18 23/36/18
f 15/12/19 14/11/19 20/30/19 21/28/19
f 18/24/20 17/23/20 23/36/20 24/34/20
f 26/37/21 25/38/21 30/39/21 29/40/21 28/41/21 27/42/21
f 24/34/22 23/36/22 29/43/22 30/44/22
f 22/29/23 21/28/23 27/32/23 28/45/23
f 20/30/24 19/33/24 25/46/24 26/31/24
f 19/35/25 24/34/25 30/44/25 25/47/25
f 23/36/26 22/29/26 28/45/26 29/43/26
