# Blender v2.81 (sub 16) OBJ File: 'Low Poly assets.blend'
# www.blender.org
mtllib RPG-7_Rocket.mtl
o RPG-7_Rocket_Cube.002
v -0.016262 -0.016262 -0.285966
v -0.016262 0.016262 -0.285966
v -0.016262 -0.016262 -0.537390
v -0.016262 0.016262 -0.537390
v 0.016262 -0.016262 -0.285966
v 0.016262 0.016262 -0.285966
v 0.016262 -0.016262 -0.537390
v 0.016262 0.016262 -0.537390
v -0.016262 -0.016262 -0.054152
v -0.016262 0.016262 -0.054152
v 0.016262 -0.016262 -0.054152
v 0.016262 0.016262 -0.054152
v -0.029268 -0.029268 -0.054152
v -0.029268 0.029268 -0.054152
v 0.029268 -0.029268 -0.054152
v 0.029268 0.029268 -0.054152
v -0.022071 -0.022071 -0.012826
v -0.022071 0.022071 -0.012826
v 0.022071 -0.022071 -0.012826
v 0.022071 0.022071 -0.012826
v -0.022071 -0.022071 0.027855
v -0.022071 0.022071 0.027855
v 0.022071 -0.022071 0.027855
v 0.022071 0.022071 0.027855
v -0.035261 -0.035261 0.051101
v -0.035261 0.035261 0.051101
v 0.035261 -0.035261 0.051101
v 0.035261 0.035261 0.051101
v -0.044400 -0.044400 0.182828
v -0.044400 0.044400 0.182828
v 0.044400 -0.044400 0.182828
v 0.044400 0.044400 0.182828
v -0.008869 -0.008869 0.330052
v -0.008869 0.008869 0.330052
v 0.008869 -0.008869 0.330052
v 0.008869 0.008869 0.330052
v -0.008869 -0.008869 0.352653
v -0.008869 0.008869 0.352653
v 0.008869 -0.008869 0.352653
v 0.008869 0.008869 0.352653
vt 0.650900 0.970414
vt 0.656361 0.970414
vt 0.656361 0.970414
vt 0.650900 0.970414
vt 0.661821 0.970414
vt 0.661821 0.975874
vt 0.656361 0.975874
vt 0.661821 0.954032
vt 0.656361 0.954032
vt 0.656361 0.954032
vt 0.661821 0.954032
vt 0.661821 0.970414
vt 0.667282 0.970414
vt 0.667282 0.970414
vt 0.341675 0.154993
vt 0.347136 0.154993
vt 0.347136 0.154993
vt 0.341675 0.154993
vt 0.336215 0.154993
vt 0.341675 0.154993
vt 0.336215 0.154993
vt 0.347136 0.138612
vt 0.341675 0.138612
vt 0.341675 0.138612
vt 0.347136 0.138612
vt 0.336215 0.154993
vt 0.352596 0.154993
vt 0.352596 0.154993
vt 0.347136 0.138612
vt 0.341675 0.138612
vt 0.341675 0.138612
vt 0.347136 0.138612
vt 0.352596 0.154993
vt 0.347136 0.154993
vt 0.347136 0.154993
vt 0.352596 0.154993
vt 0.352596 0.154993
vt 0.347136 0.154993
vt 0.341675 0.154993
vt 0.336215 0.154993
vt 0.336215 0.154993
vt 0.341675 0.154993
vt 0.341675 0.154993
vt 0.336215 0.154993
vt 0.341675 0.138612
vt 0.347136 0.138612
vt 0.347136 0.154993
vt 0.352596 0.154993
vt 0.352596 0.154993
vt 0.347136 0.154993
vt 0.341675 0.138612
vt 0.347136 0.138612
vt 0.341675 0.154993
vt 0.347136 0.154993
vt 0.341675 0.154993
vt 0.336215 0.154993
vt 0.341675 0.138612
vt 0.347136 0.138612
vt 0.336215 0.154993
vt 0.341675 0.138612
vt 0.347136 0.138612
vt 0.352596 0.154993
vt 0.091675 0.271789
vt 0.097136 0.271789
vt 0.097136 0.277250
vt 0.091675 0.277250
vt 0.097136 0.282710
vt 0.091675 0.282710
vt 0.097136 0.288171
vt 0.091675 0.288171
vt 0.086215 0.282710
vt 0.086215 0.288171
vt 0.102596 0.282710
vt 0.102596 0.288171
vn 0.0000 -1.0000 0.0000
vn 0.0000 0.0000 1.0000
vn -1.0000 0.0000 0.0000
vn 0.0000 1.0000 0.0000
vn 1.0000 0.0000 0.0000
vn 0.0000 0.0000 -1.0000
vn -0.9852 0.0000 0.1716
vn 0.0000 0.9852 0.1716
vn 0.9852 0.0000 0.1716
vn 0.0000 -0.9852 0.1716
vn 0.0000 -0.8698 -0.4935
vn 0.0000 0.9976 -0.0692
vn -0.8698 0.0000 -0.4935
vn 0.0000 0.8698 -0.4935
vn 0.8698 0.0000 -0.4935
vn 0.9721 0.0000 0.2346
vn 0.9976 0.0000 -0.0692
vn 0.0000 -0.9976 -0.0692
vn -0.9976 0.0000 -0.0692
vn 0.0000 -0.9721 0.2346
vn -0.9721 0.0000 0.2346
vn 0.0000 0.9721 0.2346
usemtl Light_Gray
s off
f 33/1/1 35/2/1 39/3/1 37/4/1
f 39/3/2 40/5/2 38/6/2 37/7/2
f 34/8/3 33/9/3 37/10/3 38/11/3
f 36/12/4 34/13/4 38/14/4 40/5/4
f 35/2/5 36/12/5 40/5/5 39/3/5
usemtl Green_Military
f 5/15/5 6/16/5 12/17/5 11/18/5
f 9/19/6 11/18/6 15/20/6 13/21/6
f 2/22/3 1/23/3 9/24/3 10/25/3
f 1/26/1 5/15/1 11/18/1 9/19/1
f 6/16/4 2/27/4 10/28/4 12/17/4
f 14/29/7 13/30/7 17/31/7 18/32/7
f 10/25/6 9/24/6 13/30/6 14/29/6
f 12/17/6 10/28/6 14/33/6 16/34/6
f 11/18/6 12/17/6 16/34/6 15/20/6
f 20/35/4 18/36/4 22/37/4 24/38/4
f 16/34/8 14/33/8 18/36/8 20/35/8
f 15/20/9 16/34/9 20/35/9 19/39/9
f 13/21/10 15/20/10 19/39/10 17/40/10
f 21/41/11 23/42/11 27/43/11 25/44/11
f 19/39/5 20/35/5 24/38/5 23/42/5
f 17/40/1 19/39/1 23/42/1 21/41/1
f 18/32/3 17/31/3 21/45/3 22/46/3
f 28/47/12 26/48/12 30/49/12 32/50/12
f 22/46/13 21/45/13 25/51/13 26/52/13
f 24/38/14 22/37/14 26/48/14 28/47/14
f 23/42/15 24/38/15 28/47/15 27/43/15
f 31/53/16 32/50/16 36/54/16 35/55/16
f 27/43/17 28/47/17 32/50/17 31/53/17
f 25/44/18 27/43/18 31/53/18 29/56/18
f 26/52/19 25/51/19 29/57/19 30/58/19
f 29/56/20 31/53/20 35/55/20 33/59/20
f 30/58/21 29/57/21 33/60/21 34/61/21
f 32/50/22 30/49/22 34/62/22 36/54/22
usemtl Dark_Green
f 1/63/3 2/64/3 4/65/3 3/66/3
f 3/66/6 4/65/6 8/67/6 7/68/6
f 7/68/5 8/67/5 6/69/5 5/70/5
f 3/71/1 7/68/1 5/70/1 1/72/1
f 8/67/4 4/73/4 2/74/4 6/69/4
